# Blender 4.1.1
# www.blender.org
mtllib iron cabinet.mtl
o iron_cabinet_b
v -1.000000 0.328536 0.150000
v -1.000000 0.328536 -0.150000
v -0.000000 0.328536 -0.150000
v -0.980223 0.328536 -0.127667
v -0.980343 0.328536 0.150000
v -0.000000 0.328536 -0.127680
v -1.000000 0.295271 0.150000
v -1.000000 0.295271 -0.150000
v 0.000000 0.295271 -0.150000
v -0.980223 0.294609 -0.127667
v -0.980343 0.294609 0.150000
v 0.000000 0.294610 -0.127680
v 1.000000 0.328536 0.150000
v 1.000000 0.328536 -0.150000
v 0.980223 0.328536 -0.127667
v 0.980343 0.328536 0.150000
v 1.000000 0.295271 0.150000
v 1.000000 0.295271 -0.150000
v 0.980223 0.294609 -0.127667
v 0.980343 0.294609 0.150000
v -1.000000 0.295257 0.150000
v -1.000000 0.295257 -0.150000
v 0.000000 0.295257 0.150000
v 0.000000 0.295257 -0.150000
v 1.000000 0.295257 0.150000
v 1.000000 0.295257 -0.150000
v -1.000000 0.275257 0.150000
v -1.000000 0.275257 -0.150000
v 0.000000 0.275257 0.150000
v 0.000000 0.275257 -0.150000
v 1.000000 0.275257 0.150000
v 1.000000 0.275257 -0.150000
v -1.000000 0.782136 0.150000
v -1.000000 0.782136 -0.150000
v -0.000000 0.782136 -0.150000
v -0.980223 0.782136 -0.127667
v -0.980343 0.782136 0.150000
v -0.000000 0.782136 -0.127680
v -1.000000 0.748871 0.150000
v -1.000000 0.748871 -0.150000
v 0.000000 0.748871 -0.150000
v -0.980223 0.748209 -0.127667
v -0.980343 0.748209 0.150000
v 0.000000 0.748210 -0.127680
v 1.000000 0.782136 0.150000
v 1.000000 0.782136 -0.150000
v 0.980223 0.782136 -0.127667
v 0.980343 0.782136 0.150000
v 1.000000 0.748871 0.150000
v 1.000000 0.748871 -0.150000
v 0.980223 0.748209 -0.127667
v 0.980343 0.748209 0.150000
v -1.000000 0.748857 0.150000
v -1.000000 0.748857 -0.150000
v 0.000000 0.748857 0.150000
v 0.000000 0.748857 -0.150000
v 1.000000 0.748857 0.150000
v 1.000000 0.748857 -0.150000
v -1.000000 0.728857 0.150000
v -1.000000 0.728857 -0.150000
v 0.000000 0.728857 0.150000
v 0.000000 0.728857 -0.150000
v 1.000000 0.728857 0.150000
v 1.000000 0.728857 -0.150000
v -1.000000 1.235736 0.150000
v -1.000000 1.235736 -0.150000
v -0.000000 1.235736 -0.150000
v -0.980223 1.235736 -0.127667
v -0.980343 1.235736 0.150000
v -0.000000 1.235736 -0.127680
v -1.000000 1.202471 0.150000
v -1.000000 1.202471 -0.150000
v 0.000000 1.202471 -0.150000
v -0.980223 1.201810 -0.127667
v -0.980343 1.201810 0.150000
v 0.000000 1.201810 -0.127680
v 1.000000 1.235736 0.150000
v 1.000000 1.235736 -0.150000
v 0.980223 1.235736 -0.127667
v 0.980343 1.235736 0.150000
v 1.000000 1.202471 0.150000
v 1.000000 1.202471 -0.150000
v 0.980223 1.201810 -0.127667
v 0.980343 1.201810 0.150000
v -1.000000 1.202457 0.150000
v -1.000000 1.202457 -0.150000
v 0.000000 1.202457 0.150000
v 0.000000 1.202457 -0.150000
v 1.000000 1.202457 0.150000
v 1.000000 1.202457 -0.150000
v -1.000000 1.182457 0.150000
v -1.000000 1.182457 -0.150000
v 0.000000 1.182457 0.150000
v 0.000000 1.182457 -0.150000
v 1.000000 1.182457 0.150000
v 1.000000 1.182457 -0.150000
v -1.000000 1.689336 0.150000
v -1.000000 1.689336 -0.150000
v -0.000000 1.689336 -0.150000
v -0.980223 1.689336 -0.127667
v -0.980343 1.689336 0.150000
v -0.000000 1.689336 -0.127680
v -1.000000 1.656071 0.150000
v -1.000000 1.656071 -0.150000
v 0.000000 1.656071 -0.150000
v -0.980223 1.655410 -0.127667
v -0.980343 1.655410 0.150000
v 0.000000 1.655410 -0.127680
v 1.000000 1.689336 0.150000
v 1.000000 1.689336 -0.150000
v 0.980223 1.689336 -0.127667
v 0.980343 1.689336 0.150000
v 1.000000 1.656071 0.150000
v 1.000000 1.656071 -0.150000
v 0.980223 1.655410 -0.127667
v 0.980343 1.655410 0.150000
v -1.000000 1.656057 0.150000
v -1.000000 1.656057 -0.150000
v 0.000000 1.656057 0.150000
v 0.000000 1.656057 -0.150000
v 1.000000 1.656057 0.150000
v 1.000000 1.656057 -0.150000
v -1.000000 1.636057 0.150000
v -1.000000 1.636057 -0.150000
v 0.000000 1.636057 0.150000
v 0.000000 1.636057 -0.150000
v 1.000000 1.636057 0.150000
v 1.000000 1.636057 -0.150000
v -1.000000 2.142936 0.150000
v -1.000000 2.142936 -0.150000
v -0.000000 2.142936 -0.150000
v -0.980223 2.142936 -0.127667
v -0.980343 2.142936 0.150000
v -0.000000 2.142936 -0.127680
v -1.000000 2.109671 0.150000
v -1.000000 2.109671 -0.150000
v 0.000000 2.109671 -0.150000
v -0.980223 2.109010 -0.127667
v -0.980343 2.109010 0.150000
v 0.000000 2.109010 -0.127680
v 1.000000 2.142936 0.150000
v 1.000000 2.142936 -0.150000
v 0.980223 2.142936 -0.127667
v 0.980343 2.142936 0.150000
v 1.000000 2.109671 0.150000
v 1.000000 2.109671 -0.150000
v 0.980223 2.109010 -0.127667
v 0.980343 2.109010 0.150000
v -1.000000 2.109657 0.150000
v -1.000000 2.109657 -0.150000
v 0.000000 2.109657 0.150000
v 0.000000 2.109657 -0.150000
v 1.000000 2.109657 0.150000
v 1.000000 2.109657 -0.150000
v -1.000000 2.089657 0.150000
v -1.000000 2.089657 -0.150000
v 0.000000 2.089657 0.150000
v 0.000000 2.089657 -0.150000
v 1.000000 2.089657 0.150000
v 1.000000 2.089657 -0.150000
vn -0.0000 1.0000 -0.0000
vn 1.0000 -0.0000 0.0004
vn -1.0000 -0.0000 -0.0000
vn -0.0000 -0.0000 1.0000
vn -0.0000 -0.0000 -1.0000
vn -1.0000 -0.0000 0.0004
vn 1.0000 -0.0000 -0.0000
vn -0.0000 -1.0000 -0.0000
vn -0.0000 0.7071 -0.7071
vn 0.5774 0.5774 -0.5774
vn 0.7071 0.7071 -0.0000
vt 1.771327 0.891171
vt 1.771327 0.893567
vt 1.523215 0.893581
vt 1.523215 0.891171
vt 1.649235 0.652957
vt 1.771327 0.652953
vt 1.771327 0.671101
vt 1.649235 0.671094
vt 1.771327 0.903905
vt 1.523215 0.903920
vt 1.523215 0.881034
vt 1.771327 0.881034
vt 1.771327 0.880832
vt 1.649235 0.642820
vt 1.771327 0.642816
vt 1.771327 0.681440
vt 1.649235 0.681433
vt 1.523215 0.868083
vt 1.771327 0.868083
vt 1.771327 0.870494
vt 1.523215 0.870479
vt 1.523215 0.671101
vt 1.523215 0.652953
vt 1.523215 0.880817
vt 1.523215 0.857946
vt 1.771327 0.857946
vt 1.523215 0.857744
vt 1.523215 0.642816
vt 1.523215 0.681440
vt 1.128172 0.000392
vt 1.250065 0.000392
vt 1.250065 0.244178
vt 1.128172 0.244178
vt 1.250065 0.250273
vt 1.128172 0.250273
vt 1.006279 0.250273
vt 1.006279 0.244178
vt 1.006279 0.000392
vt 1.006279 0.494059
vt 1.000184 0.494059
vt 1.000184 0.250273
vt 1.128172 0.494059
vt 1.128172 0.500154
vt 1.006279 0.500154
vt 1.250065 0.494059
vt 1.256159 0.250273
vt 1.256159 0.494059
vt 1.250065 0.500154
vt 1.523215 0.962829
vt 1.523215 0.960433
vt 1.771327 0.960604
vt 1.771327 0.963029
vt 1.647029 0.755297
vt 1.523215 0.755301
vt 1.523215 0.737153
vt 1.647029 0.737160
vt 1.523215 0.950095
vt 1.771327 0.950265
vt 1.771327 0.973166
vt 1.523215 0.972966
vt 1.523215 0.962827
vt 1.523215 0.973166
vt 1.647029 0.765434
vt 1.523215 0.765438
vt 1.523215 0.726814
vt 1.647029 0.726821
vt 1.523215 0.798849
vt 1.771327 0.798833
vt 1.771327 0.801245
vt 1.523215 0.801245
vt 1.771327 0.737153
vt 1.771327 0.755301
vt 1.771327 0.811584
vt 1.523215 0.811584
vt 1.523215 0.788712
vt 1.771327 0.788696
vt 1.523215 0.798849
vt 1.523215 0.788511
vt 1.771327 0.765438
vt 1.771327 0.726814
vt 1.250065 0.500154
vt 1.250065 0.743940
vt 1.128172 0.743940
vt 1.250065 0.750035
vt 1.128172 0.750035
vt 1.006279 0.750035
vt 1.006279 0.743940
vt 1.006279 0.500154
vt 1.006279 0.993821
vt 1.000184 0.993821
vt 1.000184 0.750035
vt 1.128172 0.993821
vt 1.128172 0.999915
vt 1.006279 0.999915
vt 1.250065 0.993821
vt 1.256159 0.750035
vt 1.256159 0.993821
vt 1.250065 0.999915
vt 1.523215 0.985901
vt 1.523215 0.983505
vt 1.771327 0.983675
vt 1.771327 0.986100
vt 1.645108 0.583755
vt 1.523215 0.583759
vt 1.523215 0.565611
vt 1.645108 0.565618
vt 1.771327 0.973336
vt 1.771327 0.996237
vt 1.523215 0.996037
vt 1.523215 0.985899
vt 1.523215 0.996237
vt 1.645108 0.593892
vt 1.523215 0.593896
vt 1.523215 0.555272
vt 1.645108 0.555279
vt 1.523215 0.844995
vt 1.771327 0.844995
vt 1.771327 0.847406
vt 1.523215 0.847391
vt 1.771327 0.565611
vt 1.771327 0.583759
vt 1.771327 0.857744
vt 1.523215 0.857730
vt 1.523215 0.834858
vt 1.771327 0.834858
vt 1.523215 0.834656
vt 1.771327 0.593896
vt 1.771327 0.555272
vt 1.384147 0.500154
vt 1.506040 0.500154
vt 1.506040 0.743940
vt 1.384147 0.743940
vt 1.506040 0.750035
vt 1.384147 0.750035
vt 1.262254 0.750035
vt 1.262254 0.743940
vt 1.262254 0.500154
vt 1.262254 0.993821
vt 1.256159 0.750035
vt 1.384147 0.993821
vt 1.384147 0.999915
vt 1.262254 0.999915
vt 1.506040 0.993821
vt 1.512135 0.750035
vt 1.512135 0.993821
vt 1.506040 0.999915
vt 1.771327 0.937346
vt 1.771327 0.939742
vt 1.523215 0.939756
vt 1.523215 0.937346
vt 1.647029 0.698331
vt 1.771327 0.698328
vt 1.771327 0.716476
vt 1.647029 0.716469
vt 1.771327 0.950080
vt 1.523215 0.927209
vt 1.771327 0.927209
vt 1.771327 0.927007
vt 1.647029 0.688194
vt 1.771327 0.688191
vt 1.647029 0.726807
vt 1.523215 0.775776
vt 1.771327 0.775760
vt 1.771327 0.778172
vt 1.523215 0.778172
vt 1.523215 0.716476
vt 1.523215 0.698327
vt 1.771327 0.788511
vt 1.523215 0.788511
vt 1.523215 0.765639
vt 1.771327 0.765623
vt 1.523215 0.775776
vt 1.523215 0.688191
vt 1.640123 0.000392
vt 1.762016 0.000392
vt 1.762016 0.244178
vt 1.640123 0.244178
vt 1.762016 0.250273
vt 1.640123 0.250273
vt 1.518229 0.250273
vt 1.518229 0.244178
vt 1.518229 0.000392
vt 1.518229 0.494059
vt 1.512135 0.494059
vt 1.512135 0.250273
vt 1.640123 0.494059
vt 1.640123 0.500154
vt 1.518229 0.500154
vt 1.762016 0.494059
vt 1.768110 0.250273
vt 1.768110 0.494059
vt 1.762016 0.500154
vt 1.771327 0.914258
vt 1.771327 0.916654
vt 1.523215 0.916669
vt 1.523215 0.914258
vt 1.649235 0.632676
vt 1.523215 0.632679
vt 1.523215 0.614531
vt 1.649235 0.614538
vt 1.771327 0.926993
vt 1.523215 0.927007
vt 1.523215 0.904121
vt 1.771327 0.904121
vt 1.771327 0.903920
vt 1.649235 0.642813
vt 1.523215 0.604193
vt 1.649235 0.604200
vt 1.523215 0.821922
vt 1.771327 0.821906
vt 1.771327 0.824318
vt 1.523215 0.824318
vt 1.771327 0.614531
vt 1.771327 0.632679
vt 1.771327 0.834656
vt 1.523215 0.811785
vt 1.771327 0.811769
vt 1.523215 0.821922
vt 1.771327 0.604193
vt 1.384147 0.000392
vt 1.506040 0.000392
vt 1.506040 0.244178
vt 1.384147 0.244178
vt 1.506040 0.250273
vt 1.384147 0.250273
vt 1.262254 0.250273
vt 1.262254 0.244178
vt 1.262254 0.000392
vt 1.262254 0.494059
vt 1.256159 0.494059
vt 1.256159 0.250273
vt 1.384147 0.494059
vt 1.384147 0.500154
vt 1.262254 0.500154
vt 1.506040 0.494059
vt 1.506040 0.500154
s 1
usemtl iron_cabinet_MT
f 1/1/1 5/2/1 4/3/1 2/4/1
f 3/5/1 2/6/1 4/7/1 6/8/1
f 4/3/2 5/2/2 11/9/2 10/10/2
f 1/1/3 2/4/3 8/11/3 7/12/3
f 5/1/4 1/1/4 7/12/4 11/13/4
f 2/6/5 3/5/5 9/14/5 8/15/5
f 6/8/4 4/7/4 10/16/4 12/17/4
f 13/18/1 14/19/1 15/20/1 16/21/1
f 3/5/1 6/8/1 15/22/1 14/23/1
f 15/20/6 19/13/6 20/24/6 16/21/6
f 13/18/7 17/25/7 18/26/7 14/19/7
f 16/18/4 20/27/4 17/25/4 13/18/4
f 14/23/5 18/28/5 9/14/5 3/5/5
f 6/8/4 12/17/4 19/29/4 15/22/4
f 30/30/8 32/31/8 31/32/8 29/33/8
f 25/34/4 23/35/4 29/33/4 31/32/4
f 23/35/4 21/36/4 27/37/4 29/33/4
f 30/30/8 29/33/8 27/37/8 28/38/8
f 21/36/3 22/39/3 28/40/3 27/41/3
f 22/39/9 24/42/9 30/43/5 28/44/5
f 26/45/10 25/34/11 31/46/7 32/47/7
f 24/42/9 26/45/10 32/48/5 30/43/5
f 21/36/1 23/35/1 24/42/9 22/39/9
f 25/34/11 26/45/10 24/42/9 23/35/1
f 33/49/1 37/50/1 36/51/1 34/52/1
f 35/53/1 34/54/1 36/55/1 38/56/1
f 36/51/2 37/50/2 43/57/2 42/58/2
f 33/49/3 34/52/3 40/59/3 39/60/3
f 37/61/4 33/49/4 39/60/4 43/62/4
f 34/54/5 35/53/5 41/63/5 40/64/5
f 38/56/4 36/55/4 42/65/4 44/66/4
f 45/67/1 46/68/1 47/69/1 48/70/1
f 35/53/1 38/56/1 47/71/1 46/72/1
f 47/69/6 51/73/6 52/74/6 48/70/6
f 45/67/7 49/75/7 50/76/7 46/68/7
f 48/77/4 52/78/4 49/75/4 45/67/4
f 46/72/5 50/79/5 41/63/5 35/53/5
f 38/56/4 44/66/4 51/80/4 47/71/4
f 62/43/8 64/81/8 63/82/8 61/83/8
f 57/84/4 55/85/4 61/83/4 63/82/4
f 55/85/4 53/86/4 59/87/4 61/83/4
f 62/43/8 61/83/8 59/87/8 60/88/8
f 53/86/3 54/89/3 60/90/3 59/91/3
f 54/89/5 56/92/5 62/93/5 60/94/5
f 58/95/7 57/84/7 63/96/7 64/97/7
f 56/92/5 58/95/5 64/98/5 62/93/5
f 53/86/1 55/85/1 56/92/1 54/89/1
f 57/84/1 58/95/1 56/92/1 55/85/1
f 65/99/1 69/100/1 68/101/1 66/102/1
f 67/103/1 66/104/1 68/105/1 70/106/1
f 68/101/2 69/100/2 75/62/2 74/107/2
f 65/99/3 66/102/3 72/108/3 71/109/3
f 69/110/4 65/99/4 71/109/4 75/111/4
f 66/104/5 67/103/5 73/112/5 72/113/5
f 70/106/4 68/105/4 74/114/4 76/115/4
f 77/116/1 78/117/1 79/118/1 80/119/1
f 67/103/1 70/106/1 79/120/1 78/121/1
f 79/118/6 83/122/6 84/123/6 80/119/6
f 77/116/7 81/124/7 82/125/7 78/117/7
f 80/116/4 84/126/4 81/124/4 77/116/4
f 78/121/5 82/127/5 73/112/5 67/103/5
f 70/106/4 76/115/4 83/128/4 79/120/4
f 94/129/8 96/130/8 95/131/8 93/132/8
f 89/133/4 87/134/4 93/132/4 95/131/4
f 87/134/4 85/135/4 91/136/4 93/132/4
f 94/129/8 93/132/8 91/136/8 92/137/8
f 85/135/3 86/138/3 92/97/3 91/139/3
f 86/138/5 88/140/5 94/141/5 92/142/5
f 90/143/7 89/133/7 95/144/7 96/145/7
f 88/140/5 90/143/5 96/146/5 94/141/5
f 85/135/1 87/134/1 88/140/1 86/138/1
f 89/133/1 90/143/1 88/140/1 87/134/1
f 97/147/1 101/148/1 100/149/1 98/150/1
f 99/151/1 98/152/1 100/153/1 102/154/1
f 100/149/2 101/148/2 107/155/2 106/57/2
f 97/147/3 98/150/3 104/156/3 103/157/3
f 101/147/4 97/147/4 103/157/4 107/158/4
f 98/152/5 99/151/5 105/159/5 104/160/5
f 102/154/4 100/153/4 106/80/4 108/161/4
f 109/162/1 110/163/1 111/164/1 112/165/1
f 99/151/1 102/154/1 111/166/1 110/167/1
f 111/164/6 115/168/6 116/169/6 112/165/6
f 109/162/7 113/170/7 114/171/7 110/163/7
f 112/172/4 116/64/4 113/170/4 109/162/4
f 110/167/5 114/173/5 105/159/5 99/151/5
f 102/154/4 108/161/4 115/65/4 111/166/4
f 126/174/8 128/175/8 127/176/8 125/177/8
f 121/178/4 119/179/4 125/177/4 127/176/4
f 119/179/4 117/180/4 123/181/4 125/177/4
f 126/174/8 125/177/8 123/181/8 124/182/8
f 117/180/3 118/183/3 124/184/3 123/185/3
f 118/183/5 120/186/5 126/187/5 124/188/5
f 122/189/7 121/178/7 127/190/7 128/191/7
f 120/186/5 122/189/5 128/192/5 126/187/5
f 117/180/1 119/179/1 120/186/1 118/183/1
f 121/178/1 122/189/1 120/186/1 119/179/1
f 129/193/1 133/194/1 132/195/1 130/196/1
f 131/197/1 130/198/1 132/199/1 134/200/1
f 132/195/2 133/194/2 139/201/2 138/202/2
f 129/193/3 130/196/3 136/203/3 135/204/3
f 133/193/4 129/193/4 135/204/4 139/205/4
f 130/198/5 131/197/5 137/206/5 136/28/5
f 134/200/4 132/199/4 138/207/4 140/208/4
f 141/209/1 142/210/1 143/211/1 144/212/1
f 131/197/1 134/200/1 143/213/1 142/214/1
f 143/211/6 147/215/6 148/126/6 144/212/6
f 141/209/7 145/216/7 146/217/7 142/210/7
f 144/218/4 148/74/4 145/216/4 141/209/4
f 142/214/5 146/15/5 137/206/5 131/197/5
f 134/200/4 140/208/4 147/219/4 143/213/4
f 158/220/8 160/221/8 159/222/8 157/223/8
f 153/224/4 151/225/4 157/223/4 159/222/4
f 151/225/4 149/226/4 155/227/4 157/223/4
f 158/220/8 157/223/8 155/227/8 156/228/8
f 149/226/3 150/229/3 156/230/3 155/231/3
f 150/229/5 152/232/5 158/233/5 156/234/5
f 154/235/7 153/224/7 159/185/7 160/184/7
f 152/232/5 154/235/5 160/236/5 158/233/5
f 149/226/1 151/225/1 152/232/1 150/229/1
f 153/224/1 154/235/1 152/232/1 151/225/1
o iron_cabinet_a
v 0.688210 0.000083 0.150124
v 0.688210 2.130084 0.150124
v 0.693210 0.000083 0.151464
v 0.693210 2.130084 0.151464
v 0.696870 0.000083 0.155124
v 0.696870 2.130084 0.155124
v 0.698210 0.000083 0.160124
v 0.698210 2.130084 0.160124
v 0.696870 0.000083 0.165124
v 0.696870 2.130084 0.165124
v 0.693210 0.000083 0.168785
v 0.693210 2.130084 0.168785
v 0.688210 0.000083 0.170124
v 0.688210 2.130084 0.170124
v 0.683210 0.000083 0.168785
v 0.683210 2.130084 0.168785
v 0.679550 0.000083 0.165124
v 0.679550 2.130084 0.165124
v 0.678210 0.000083 0.160124
v 0.678210 2.130084 0.160124
v 0.679550 0.000083 0.155124
v 0.679550 2.130084 0.155124
v 0.683210 0.000083 0.151464
v 0.683210 2.130084 0.151464
v 0.866200 0.000083 -0.170493
v 0.866200 2.130084 -0.170493
v 0.871200 0.000083 -0.169153
v 0.871200 2.130084 -0.169153
v 0.874860 0.000083 -0.165493
v 0.874860 2.130084 -0.165493
v 0.876200 0.000083 -0.160493
v 0.876200 2.130084 -0.160493
v 0.874860 0.000083 -0.155493
v 0.874860 2.130084 -0.155493
v 0.871200 0.000083 -0.151832
v 0.871200 2.130084 -0.151832
v 0.866200 0.000083 -0.150493
v 0.866200 2.130084 -0.150493
v 0.861200 0.000083 -0.151832
v 0.861200 2.130084 -0.151832
v 0.857540 0.000083 -0.155493
v 0.857540 2.130084 -0.155493
v 0.856200 0.000083 -0.160493
v 0.856200 2.130084 -0.160493
v 0.857540 0.000083 -0.165493
v 0.857540 2.130084 -0.165493
v 0.861200 0.000083 -0.169153
v 0.861200 2.130084 -0.169153
v 0.513030 0.000083 -0.170011
v 0.513030 2.130084 -0.170011
v 0.518030 0.000083 -0.168671
v 0.518030 2.130084 -0.168671
v 0.521690 0.000083 -0.165011
v 0.521690 2.130084 -0.165011
v 0.523030 0.000083 -0.160011
v 0.523030 2.130084 -0.160011
v 0.521690 0.000083 -0.155011
v 0.521690 2.130084 -0.155011
v 0.518030 0.000083 -0.151351
v 0.518030 2.130084 -0.151351
v 0.513030 0.000083 -0.150011
v 0.513030 2.130084 -0.150011
v 0.508030 0.000083 -0.151351
v 0.508030 2.130084 -0.151351
v 0.504370 0.000083 -0.155011
v 0.504370 2.130084 -0.155011
v 0.503030 0.000083 -0.160011
v 0.503030 2.130084 -0.160011
v 0.504370 0.000083 -0.165011
v 0.504370 2.130084 -0.165011
v 0.508030 0.000083 -0.168671
v 0.508030 2.130084 -0.168671
v -0.688210 0.000083 0.150124
v -0.688210 2.130084 0.150124
v -0.693210 0.000083 0.151464
v -0.693210 2.130084 0.151464
v -0.696870 0.000083 0.155124
v -0.696870 2.130084 0.155124
v -0.698210 0.000083 0.160124
v -0.698210 2.130084 0.160124
v -0.696870 0.000083 0.165124
v -0.696870 2.130084 0.165124
v -0.693210 0.000083 0.168785
v -0.693210 2.130084 0.168785
v -0.688210 0.000083 0.170124
v -0.688210 2.130084 0.170124
v -0.683210 0.000083 0.168785
v -0.683210 2.130084 0.168785
v -0.679550 0.000083 0.165124
v -0.679550 2.130084 0.165124
v -0.678210 0.000083 0.160124
v -0.678210 2.130084 0.160124
v -0.679550 0.000083 0.155124
v -0.679550 2.130084 0.155124
v -0.683210 0.000083 0.151464
v -0.683210 2.130084 0.151464
v -0.866200 0.000083 -0.170493
v -0.866200 2.130084 -0.170493
v -0.871200 0.000083 -0.169153
v -0.871200 2.130084 -0.169153
v -0.874861 0.000083 -0.165493
v -0.874861 2.130084 -0.165493
v -0.876200 0.000083 -0.160493
v -0.876200 2.130084 -0.160493
v -0.874861 0.000083 -0.155493
v -0.874861 2.130084 -0.155493
v -0.871200 0.000083 -0.151832
v -0.871200 2.130084 -0.151832
v -0.866200 0.000083 -0.150493
v -0.866200 2.130084 -0.150493
v -0.861200 0.000083 -0.151832
v -0.861200 2.130084 -0.151832
v -0.857540 0.000083 -0.155493
v -0.857540 2.130084 -0.155493
v -0.856200 0.000083 -0.160493
v -0.856200 2.130084 -0.160493
v -0.857540 0.000083 -0.165493
v -0.857540 2.130084 -0.165493
v -0.861200 0.000083 -0.169153
v -0.861200 2.130084 -0.169153
v -0.513030 0.000083 -0.170011
v -0.513030 2.130084 -0.170011
v -0.518030 0.000083 -0.168671
v -0.518030 2.130084 -0.168671
v -0.521690 0.000083 -0.165011
v -0.521690 2.130084 -0.165011
v -0.523030 0.000083 -0.160011
v -0.523030 2.130084 -0.160011
v -0.521690 0.000083 -0.155011
v -0.521690 2.130084 -0.155011
v -0.518030 0.000083 -0.151351
v -0.518030 2.130084 -0.151351
v -0.513030 0.000083 -0.150011
v -0.513030 2.130084 -0.150011
v -0.508030 0.000083 -0.151351
v -0.508030 2.130084 -0.151351
v -0.504370 0.000083 -0.155011
v -0.504370 2.130084 -0.155011
v -0.503030 0.000083 -0.160011
v -0.503030 2.130084 -0.160011
v -0.504370 0.000083 -0.165011
v -0.504370 2.130084 -0.165011
v -0.508030 0.000083 -0.168671
v -0.508030 2.130084 -0.168671
v 0.698588 0.266080 -0.065443
v 0.698588 0.266080 0.161237
v 0.697249 0.261080 -0.065443
v 0.697249 0.261080 0.161237
v 0.693588 0.257420 -0.065443
v 0.693588 0.257420 0.161237
v 0.688588 0.256080 -0.065443
v 0.688588 0.256080 0.161237
v 0.683588 0.257420 -0.065443
v 0.683588 0.257420 0.161237
v 0.679928 0.261080 -0.065443
v 0.679928 0.261080 0.161237
v 0.678588 0.266080 -0.065443
v 0.678588 0.266080 0.161237
v 0.679928 0.271080 -0.065443
v 0.679928 0.271080 0.161237
v 0.683588 0.274740 -0.065443
v 0.683588 0.274740 0.161237
v 0.688588 0.276080 -0.065443
v 0.688588 0.276080 0.161237
v 0.693588 0.274740 -0.065443
v 0.693588 0.274740 0.161237
v 0.697249 0.271080 -0.065443
v 0.697249 0.271080 0.161237
v 0.867024 0.266080 -0.148085
v 0.696668 0.266080 -0.055416
v 0.866382 0.261080 -0.149261
v 0.696026 0.261080 -0.056592
v 0.864628 0.257420 -0.152473
v 0.694272 0.257420 -0.059804
v 0.862232 0.256080 -0.156862
v 0.691876 0.256080 -0.064193
v 0.859836 0.257420 -0.161250
v 0.689480 0.257420 -0.068581
v 0.858082 0.261080 -0.164463
v 0.687725 0.261080 -0.071794
v 0.857439 0.266080 -0.165639
v 0.687083 0.266080 -0.072969
v 0.858082 0.271080 -0.164463
v 0.687725 0.271080 -0.071794
v 0.859836 0.274740 -0.161250
v 0.689480 0.274740 -0.068581
v 0.862232 0.276080 -0.156862
v 0.691876 0.276080 -0.064193
v 0.864628 0.274740 -0.152473
v 0.694272 0.274740 -0.059804
v 0.866382 0.271080 -0.149261
v 0.696026 0.271080 -0.056592
v 0.521730 0.266080 -0.165129
v 0.692396 0.266080 -0.073033
v 0.521096 0.261080 -0.163949
v 0.691762 0.261080 -0.071852
v 0.519363 0.257420 -0.160725
v 0.690029 0.257420 -0.068629
v 0.516995 0.256080 -0.156321
v 0.687661 0.256080 -0.064225
v 0.514628 0.257420 -0.151917
v 0.685294 0.257420 -0.059821
v 0.512894 0.261080 -0.148693
v 0.683561 0.261080 -0.056597
v 0.512260 0.266080 -0.147513
v 0.682926 0.266080 -0.055417
v 0.512894 0.271080 -0.148693
v 0.683561 0.271080 -0.056597
v 0.514628 0.274740 -0.151917
v 0.685294 0.274740 -0.059821
v 0.516995 0.276080 -0.156321
v 0.687661 0.276080 -0.064225
v 0.519363 0.274740 -0.160725
v 0.690029 0.274740 -0.068629
v 0.521096 0.271080 -0.163949
v 0.691762 0.271080 -0.071852
v 0.698588 0.718880 -0.065443
v 0.698588 0.718880 0.161237
v 0.697249 0.713880 -0.065443
v 0.697249 0.713880 0.161237
v 0.693588 0.710220 -0.065443
v 0.693588 0.710220 0.161237
v 0.688588 0.708880 -0.065443
v 0.688588 0.708880 0.161237
v 0.683588 0.710220 -0.065443
v 0.683588 0.710220 0.161237
v 0.679928 0.713880 -0.065443
v 0.679928 0.713880 0.161237
v 0.678588 0.718880 -0.065443
v 0.678588 0.718880 0.161237
v 0.679928 0.723880 -0.065443
v 0.679928 0.723880 0.161237
v 0.683588 0.727540 -0.065443
v 0.683588 0.727540 0.161237
v 0.688588 0.728880 -0.065443
v 0.688588 0.728880 0.161237
v 0.693588 0.727540 -0.065443
v 0.693588 0.727540 0.161237
v 0.697249 0.723880 -0.065443
v 0.697249 0.723880 0.161237
v 0.867024 0.718880 -0.148085
v 0.696668 0.718880 -0.055416
v 0.866382 0.713880 -0.149261
v 0.696026 0.713880 -0.056592
v 0.864628 0.710220 -0.152473
v 0.694272 0.710220 -0.059804
v 0.862232 0.708880 -0.156862
v 0.691876 0.708880 -0.064193
v 0.859836 0.710220 -0.161250
v 0.689480 0.710220 -0.068581
v 0.858082 0.713880 -0.164463
v 0.687725 0.713880 -0.071794
v 0.857439 0.718880 -0.165639
v 0.687083 0.718880 -0.072969
v 0.858082 0.723880 -0.164463
v 0.687725 0.723880 -0.071794
v 0.859836 0.727540 -0.161250
v 0.689480 0.727540 -0.068581
v 0.862232 0.728880 -0.156862
v 0.691876 0.728880 -0.064193
v 0.864628 0.727540 -0.152473
v 0.694272 0.727540 -0.059804
v 0.866382 0.723880 -0.149261
v 0.696026 0.723880 -0.056592
v 0.521730 0.718880 -0.165129
v 0.692396 0.718880 -0.073033
v 0.521096 0.713880 -0.163949
v 0.691762 0.713880 -0.071852
v 0.519363 0.710220 -0.160725
v 0.690029 0.710220 -0.068629
v 0.516995 0.708880 -0.156321
v 0.687661 0.708880 -0.064225
v 0.514628 0.710220 -0.151917
v 0.685294 0.710220 -0.059821
v 0.512894 0.713880 -0.148693
v 0.683561 0.713880 -0.056597
v 0.512260 0.718880 -0.147513
v 0.682926 0.718880 -0.055417
v 0.512894 0.723880 -0.148693
v 0.683561 0.723880 -0.056597
v 0.514628 0.727540 -0.151917
v 0.685294 0.727540 -0.059821
v 0.516995 0.728880 -0.156321
v 0.687661 0.728880 -0.064225
v 0.519363 0.727540 -0.160725
v 0.690029 0.727540 -0.068629
v 0.521096 0.723880 -0.163949
v 0.691762 0.723880 -0.071852
v 0.698588 1.171680 -0.065443
v 0.698588 1.171680 0.161237
v 0.697249 1.166680 -0.065443
v 0.697249 1.166680 0.161237
v 0.693588 1.163020 -0.065443
v 0.693588 1.163020 0.161237
v 0.688588 1.161680 -0.065443
v 0.688588 1.161680 0.161237
v 0.683588 1.163020 -0.065443
v 0.683588 1.163020 0.161237
v 0.679928 1.166680 -0.065443
v 0.679928 1.166680 0.161237
v 0.678588 1.171680 -0.065443
v 0.678588 1.171680 0.161237
v 0.679928 1.176680 -0.065443
v 0.679928 1.176680 0.161237
v 0.683588 1.180340 -0.065443
v 0.683588 1.180340 0.161237
v 0.688588 1.181680 -0.065443
v 0.688588 1.181680 0.161237
v 0.693588 1.180340 -0.065443
v 0.693588 1.180340 0.161237
v 0.697249 1.176680 -0.065443
v 0.697249 1.176680 0.161237
v 0.867024 1.171680 -0.148085
v 0.696668 1.171680 -0.055416
v 0.866382 1.166680 -0.149261
v 0.696026 1.166680 -0.056592
v 0.864628 1.163020 -0.152473
v 0.694272 1.163020 -0.059804
v 0.862232 1.161680 -0.156862
v 0.691876 1.161680 -0.064193
v 0.859836 1.163020 -0.161250
v 0.689480 1.163020 -0.068581
v 0.858082 1.166680 -0.164463
v 0.687725 1.166680 -0.071794
v 0.857439 1.171680 -0.165639
v 0.687083 1.171680 -0.072969
v 0.858082 1.176680 -0.164463
v 0.687725 1.176680 -0.071794
v 0.859836 1.180340 -0.161250
v 0.689480 1.180340 -0.068581
v 0.862232 1.181680 -0.156862
v 0.691876 1.181680 -0.064193
v 0.864628 1.180340 -0.152473
v 0.694272 1.180340 -0.059804
v 0.866382 1.176680 -0.149261
v 0.696026 1.176680 -0.056592
v 0.521730 1.171680 -0.165129
v 0.692396 1.171680 -0.073033
v 0.521096 1.166680 -0.163949
v 0.691762 1.166680 -0.071852
v 0.519363 1.163020 -0.160725
v 0.690029 1.163020 -0.068629
v 0.516995 1.161680 -0.156321
v 0.687661 1.161680 -0.064225
v 0.514628 1.163020 -0.151917
v 0.685294 1.163020 -0.059821
v 0.512894 1.166680 -0.148693
v 0.683561 1.166680 -0.056597
v 0.512260 1.171680 -0.147513
v 0.682926 1.171680 -0.055417
v 0.512894 1.176680 -0.148693
v 0.683561 1.176680 -0.056597
v 0.514628 1.180340 -0.151917
v 0.685294 1.180340 -0.059821
v 0.516995 1.181680 -0.156321
v 0.687661 1.181680 -0.064225
v 0.519363 1.180340 -0.160725
v 0.690029 1.180340 -0.068629
v 0.521096 1.176680 -0.163949
v 0.691762 1.176680 -0.071852
v 0.698588 1.624480 -0.065443
v 0.698588 1.624480 0.161237
v 0.697249 1.619480 -0.065443
v 0.697249 1.619480 0.161237
v 0.693588 1.615820 -0.065443
v 0.693588 1.615820 0.161237
v 0.688588 1.614480 -0.065443
v 0.688588 1.614480 0.161237
v 0.683588 1.615820 -0.065443
v 0.683588 1.615820 0.161237
v 0.679928 1.619480 -0.065443
v 0.679928 1.619480 0.161237
v 0.678588 1.624480 -0.065443
v 0.678588 1.624480 0.161237
v 0.679928 1.629480 -0.065443
v 0.679928 1.629480 0.161237
v 0.683588 1.633140 -0.065443
v 0.683588 1.633140 0.161237
v 0.688588 1.634480 -0.065443
v 0.688588 1.634480 0.161237
v 0.693588 1.633140 -0.065443
v 0.693588 1.633140 0.161237
v 0.697249 1.629480 -0.065443
v 0.697249 1.629480 0.161237
v 0.867024 1.624480 -0.148085
v 0.696668 1.624480 -0.055416
v 0.866382 1.619480 -0.149261
v 0.696026 1.619480 -0.056592
v 0.864628 1.615820 -0.152473
v 0.694272 1.615820 -0.059804
v 0.862232 1.614480 -0.156862
v 0.691876 1.614480 -0.064193
v 0.859836 1.615820 -0.161250
v 0.689480 1.615820 -0.068581
v 0.858082 1.619480 -0.164463
v 0.687725 1.619480 -0.071794
v 0.857439 1.624480 -0.165639
v 0.687083 1.624480 -0.072969
v 0.858082 1.629480 -0.164463
v 0.687725 1.629480 -0.071794
v 0.859836 1.633140 -0.161250
v 0.689480 1.633140 -0.068581
v 0.862232 1.634480 -0.156862
v 0.691876 1.634480 -0.064193
v 0.864628 1.633140 -0.152473
v 0.694272 1.633140 -0.059804
v 0.866382 1.629480 -0.149261
v 0.696026 1.629480 -0.056592
v 0.521730 1.624480 -0.165129
v 0.692396 1.624480 -0.073033
v 0.521096 1.619480 -0.163949
v 0.691762 1.619480 -0.071852
v 0.519363 1.615820 -0.160725
v 0.690029 1.615820 -0.068629
v 0.516995 1.614480 -0.156321
v 0.687661 1.614480 -0.064225
v 0.514628 1.615820 -0.151917
v 0.685294 1.615820 -0.059821
v 0.512894 1.619480 -0.148693
v 0.683561 1.619480 -0.056597
v 0.512260 1.624480 -0.147513
v 0.682926 1.624480 -0.055417
v 0.512894 1.629480 -0.148693
v 0.683561 1.629480 -0.056597
v 0.514628 1.633140 -0.151917
v 0.685294 1.633140 -0.059821
v 0.516995 1.634480 -0.156321
v 0.687661 1.634480 -0.064225
v 0.519363 1.633140 -0.160725
v 0.690029 1.633140 -0.068629
v 0.521096 1.629480 -0.163949
v 0.691762 1.629480 -0.071852
v 0.698588 2.077280 -0.065443
v 0.698588 2.077280 0.161237
v 0.697249 2.072280 -0.065443
v 0.697249 2.072280 0.161237
v 0.693588 2.068620 -0.065443
v 0.693588 2.068620 0.161237
v 0.688588 2.067280 -0.065443
v 0.688588 2.067280 0.161237
v 0.683588 2.068620 -0.065443
v 0.683588 2.068620 0.161237
v 0.679928 2.072280 -0.065443
v 0.679928 2.072280 0.161237
v 0.678588 2.077280 -0.065443
v 0.678588 2.077280 0.161237
v 0.679928 2.082280 -0.065443
v 0.679928 2.082280 0.161237
v 0.683588 2.085940 -0.065443
v 0.683588 2.085940 0.161237
v 0.688588 2.087280 -0.065443
v 0.688588 2.087280 0.161237
v 0.693588 2.085940 -0.065443
v 0.693588 2.085940 0.161237
v 0.697249 2.082280 -0.065443
v 0.697249 2.082280 0.161237
v 0.867024 2.077280 -0.148085
v 0.696668 2.077280 -0.055416
v 0.866382 2.072280 -0.149261
v 0.696026 2.072280 -0.056592
v 0.864628 2.068620 -0.152473
v 0.694272 2.068620 -0.059804
v 0.862232 2.067280 -0.156862
v 0.691876 2.067280 -0.064193
v 0.859836 2.068620 -0.161250
v 0.689480 2.068620 -0.068581
v 0.858082 2.072280 -0.164463
v 0.687725 2.072280 -0.071794
v 0.857439 2.077280 -0.165639
v 0.687083 2.077280 -0.072969
v 0.858082 2.082280 -0.164463
v 0.687725 2.082280 -0.071794
v 0.859836 2.085940 -0.161250
v 0.689480 2.085940 -0.068581
v 0.862232 2.087280 -0.156862
v 0.691876 2.087280 -0.064193
v 0.864628 2.085940 -0.152473
v 0.694272 2.085940 -0.059804
v 0.866382 2.082280 -0.149261
v 0.696026 2.082280 -0.056592
v 0.521730 2.077280 -0.165129
v 0.692396 2.077280 -0.073033
v 0.521096 2.072280 -0.163949
v 0.691762 2.072280 -0.071852
v 0.519363 2.068620 -0.160725
v 0.690029 2.068620 -0.068629
v 0.516995 2.067280 -0.156321
v 0.687661 2.067280 -0.064225
v 0.514628 2.068620 -0.151917
v 0.685294 2.068620 -0.059821
v 0.512894 2.072280 -0.148693
v 0.683561 2.072280 -0.056597
v 0.512260 2.077280 -0.147513
v 0.682926 2.077280 -0.055417
v 0.512894 2.082280 -0.148693
v 0.683561 2.082280 -0.056597
v 0.514628 2.085940 -0.151917
v 0.685294 2.085940 -0.059821
v 0.516995 2.087280 -0.156321
v 0.687661 2.087280 -0.064225
v 0.519363 2.085940 -0.160725
v 0.690029 2.085940 -0.068629
v 0.521096 2.082280 -0.163949
v 0.691762 2.082280 -0.071852
v -0.698588 0.266080 -0.065443
v -0.698588 0.266080 0.161237
v -0.697249 0.261080 -0.065443
v -0.697249 0.261080 0.161237
v -0.693588 0.257420 -0.065443
v -0.693588 0.257420 0.161237
v -0.688588 0.256080 -0.065443
v -0.688588 0.256080 0.161237
v -0.683588 0.257420 -0.065443
v -0.683588 0.257420 0.161237
v -0.679928 0.261080 -0.065443
v -0.679928 0.261080 0.161237
v -0.678588 0.266080 -0.065443
v -0.678588 0.266080 0.161237
v -0.679928 0.271080 -0.065443
v -0.679928 0.271080 0.161237
v -0.683588 0.274740 -0.065443
v -0.683588 0.274740 0.161237
v -0.688588 0.276080 -0.065443
v -0.688588 0.276080 0.161237
v -0.693588 0.274740 -0.065443
v -0.693588 0.274740 0.161237
v -0.697249 0.271080 -0.065443
v -0.697249 0.271080 0.161237
v -0.521730 0.266080 -0.165129
v -0.692396 0.266080 -0.073033
v -0.521096 0.261080 -0.163949
v -0.691762 0.261080 -0.071852
v -0.519363 0.257420 -0.160725
v -0.690029 0.257420 -0.068629
v -0.516995 0.256080 -0.156321
v -0.687661 0.256080 -0.064225
v -0.514628 0.257420 -0.151917
v -0.685294 0.257420 -0.059821
v -0.512894 0.261080 -0.148693
v -0.683561 0.261080 -0.056597
v -0.512260 0.266080 -0.147513
v -0.682926 0.266080 -0.055417
v -0.512894 0.271080 -0.148693
v -0.683561 0.271080 -0.056597
v -0.514628 0.274740 -0.151917
v -0.685294 0.274740 -0.059821
v -0.516995 0.276080 -0.156321
v -0.687661 0.276080 -0.064225
v -0.519363 0.274740 -0.160725
v -0.690029 0.274740 -0.068629
v -0.521096 0.271080 -0.163949
v -0.691762 0.271080 -0.071852
v -0.698588 0.718880 -0.065443
v -0.698588 0.718880 0.161237
v -0.697249 0.713880 -0.065443
v -0.697249 0.713880 0.161237
v -0.693588 0.710220 -0.065443
v -0.693588 0.710220 0.161237
v -0.688588 0.708880 -0.065443
v -0.688588 0.708880 0.161237
v -0.683588 0.710220 -0.065443
v -0.683588 0.710220 0.161237
v -0.679928 0.713880 -0.065443
v -0.679928 0.713880 0.161237
v -0.678588 0.718880 -0.065443
v -0.678588 0.718880 0.161237
v -0.679928 0.723880 -0.065443
v -0.679928 0.723880 0.161237
v -0.683588 0.727540 -0.065443
v -0.683588 0.727540 0.161237
v -0.688588 0.728880 -0.065443
v -0.688588 0.728880 0.161237
v -0.693588 0.727540 -0.065443
v -0.693588 0.727540 0.161237
v -0.697249 0.723880 -0.065443
v -0.697249 0.723880 0.161237
v -0.867024 0.718880 -0.148085
v -0.696668 0.718880 -0.055416
v -0.866382 0.713880 -0.149261
v -0.696026 0.713880 -0.056592
v -0.864628 0.710220 -0.152473
v -0.694272 0.710220 -0.059804
v -0.862232 0.708880 -0.156862
v -0.691876 0.708880 -0.064193
v -0.859836 0.710220 -0.161250
v -0.689480 0.710220 -0.068581
v -0.858082 0.713880 -0.164463
v -0.687725 0.713880 -0.071794
v -0.857439 0.718880 -0.165639
v -0.687083 0.718880 -0.072969
v -0.858082 0.723880 -0.164463
v -0.687725 0.723880 -0.071794
v -0.859836 0.727540 -0.161250
v -0.689480 0.727540 -0.068581
v -0.862232 0.728880 -0.156862
v -0.691876 0.728880 -0.064193
v -0.864628 0.727540 -0.152473
v -0.694272 0.727540 -0.059804
v -0.866382 0.723880 -0.149261
v -0.696026 0.723880 -0.056592
v -0.521730 0.718880 -0.165129
v -0.692396 0.718880 -0.073033
v -0.521096 0.713880 -0.163949
v -0.691762 0.713880 -0.071852
v -0.519363 0.710220 -0.160725
v -0.690029 0.710220 -0.068629
v -0.516995 0.708880 -0.156321
v -0.687661 0.708880 -0.064225
v -0.514628 0.710220 -0.151917
v -0.685294 0.710220 -0.059821
v -0.512895 0.713880 -0.148693
v -0.683561 0.713880 -0.056597
v -0.512260 0.718880 -0.147513
v -0.682926 0.718880 -0.055417
v -0.512895 0.723880 -0.148693
v -0.683561 0.723880 -0.056597
v -0.514628 0.727540 -0.151917
v -0.685294 0.727540 -0.059821
v -0.516995 0.728880 -0.156321
v -0.687661 0.728880 -0.064225
v -0.519363 0.727540 -0.160725
v -0.690029 0.727540 -0.068629
v -0.521096 0.723880 -0.163949
v -0.691762 0.723880 -0.071852
v -0.698588 1.171680 -0.065443
v -0.698588 1.171680 0.161237
v -0.697249 1.166680 -0.065443
v -0.697249 1.166680 0.161237
v -0.693588 1.163020 -0.065443
v -0.693588 1.163020 0.161237
v -0.688588 1.161680 -0.065443
v -0.688588 1.161680 0.161237
v -0.683588 1.163020 -0.065443
v -0.683588 1.163020 0.161237
v -0.679928 1.166680 -0.065443
v -0.679928 1.166680 0.161237
v -0.678588 1.171680 -0.065443
v -0.678588 1.171680 0.161237
v -0.679928 1.176680 -0.065443
v -0.679928 1.176680 0.161237
v -0.683588 1.180340 -0.065443
v -0.683588 1.180340 0.161237
v -0.688588 1.181680 -0.065443
v -0.688588 1.181680 0.161237
v -0.693588 1.180340 -0.065443
v -0.693588 1.180340 0.161237
v -0.697249 1.176680 -0.065443
v -0.697249 1.176680 0.161237
v -0.867024 1.171680 -0.148085
v -0.696668 1.171680 -0.055416
v -0.866382 1.166680 -0.149261
v -0.696026 1.166680 -0.056592
v -0.864628 1.163020 -0.152473
v -0.694272 1.163020 -0.059804
v -0.862232 1.161680 -0.156862
v -0.691876 1.161680 -0.064193
v -0.859836 1.163020 -0.161250
v -0.689480 1.163020 -0.068581
v -0.858082 1.166680 -0.164463
v -0.687725 1.166680 -0.071794
v -0.857439 1.171680 -0.165639
v -0.687083 1.171680 -0.072969
v -0.858082 1.176680 -0.164463
v -0.687725 1.176680 -0.071794
v -0.859836 1.180340 -0.161250
v -0.689480 1.180340 -0.068581
v -0.862232 1.181680 -0.156862
v -0.691876 1.181680 -0.064193
v -0.864628 1.180340 -0.152473
v -0.694272 1.180340 -0.059804
v -0.866382 1.176680 -0.149261
v -0.696026 1.176680 -0.056592
v -0.521730 1.171680 -0.165129
v -0.692396 1.171680 -0.073033
v -0.521096 1.166680 -0.163949
v -0.691762 1.166680 -0.071852
v -0.519363 1.163020 -0.160725
v -0.690029 1.163020 -0.068629
v -0.516995 1.161680 -0.156321
v -0.687661 1.161680 -0.064225
v -0.514628 1.163020 -0.151917
v -0.685294 1.163020 -0.059821
v -0.512894 1.166680 -0.148693
v -0.683561 1.166680 -0.056597
v -0.512260 1.171680 -0.147513
v -0.682926 1.171680 -0.055417
v -0.512894 1.176680 -0.148693
v -0.683561 1.176680 -0.056597
v -0.514628 1.180340 -0.151917
v -0.685294 1.180340 -0.059821
v -0.516995 1.181680 -0.156321
v -0.687661 1.181680 -0.064225
v -0.519363 1.180340 -0.160725
v -0.690029 1.180340 -0.068629
v -0.521096 1.176680 -0.163949
v -0.691762 1.176680 -0.071852
v -0.698588 1.624480 -0.065443
v -0.698588 1.624480 0.161237
v -0.697249 1.619480 -0.065443
v -0.697249 1.619480 0.161237
v -0.693588 1.615820 -0.065443
v -0.693588 1.615820 0.161237
v -0.688588 1.614480 -0.065443
v -0.688588 1.614480 0.161237
v -0.683588 1.615820 -0.065443
v -0.683588 1.615820 0.161237
v -0.679928 1.619480 -0.065443
v -0.679928 1.619480 0.161237
v -0.678588 1.624480 -0.065443
v -0.678588 1.624480 0.161237
v -0.679928 1.629480 -0.065443
v -0.679928 1.629480 0.161237
v -0.683588 1.633140 -0.065443
v -0.683588 1.633140 0.161237
v -0.688588 1.634480 -0.065443
v -0.688588 1.634480 0.161237
v -0.693588 1.633140 -0.065443
v -0.693588 1.633140 0.161237
v -0.697249 1.629480 -0.065443
v -0.697249 1.629480 0.161237
v -0.867024 1.624480 -0.148085
v -0.696668 1.624480 -0.055416
v -0.866382 1.619480 -0.149261
v -0.696026 1.619480 -0.056592
v -0.864628 1.615820 -0.152473
v -0.694272 1.615820 -0.059804
v -0.862232 1.614480 -0.156862
v -0.691876 1.614480 -0.064193
v -0.859836 1.615820 -0.161250
v -0.689480 1.615820 -0.068581
v -0.858082 1.619480 -0.164463
v -0.687725 1.619480 -0.071794
v -0.857440 1.624480 -0.165639
v -0.687083 1.624480 -0.072969
v -0.858082 1.629480 -0.164463
v -0.687725 1.629480 -0.071794
v -0.859836 1.633140 -0.161250
v -0.689480 1.633140 -0.068581
v -0.862232 1.634480 -0.156862
v -0.691876 1.634480 -0.064193
v -0.864628 1.633140 -0.152473
v -0.694272 1.633140 -0.059804
v -0.866382 1.629480 -0.149261
v -0.696026 1.629480 -0.056592
v -0.521730 1.624480 -0.165129
v -0.692396 1.624480 -0.073033
v -0.521096 1.619480 -0.163949
v -0.691762 1.619480 -0.071852
v -0.519363 1.615820 -0.160725
v -0.690029 1.615820 -0.068629
v -0.516995 1.614480 -0.156321
v -0.687661 1.614480 -0.064225
v -0.514628 1.615820 -0.151917
v -0.685294 1.615820 -0.059821
v -0.512895 1.619480 -0.148693
v -0.683561 1.619480 -0.056597
v -0.512260 1.624480 -0.147513
v -0.682926 1.624480 -0.055417
v -0.512895 1.629480 -0.148693
v -0.683561 1.629480 -0.056597
v -0.514628 1.633140 -0.151917
v -0.685294 1.633140 -0.059821
v -0.516995 1.634480 -0.156321
v -0.687661 1.634480 -0.064225
v -0.519363 1.633140 -0.160725
v -0.690029 1.633140 -0.068629
v -0.521096 1.629480 -0.163949
v -0.691762 1.629480 -0.071852
v -0.698588 2.077280 -0.065443
v -0.698588 2.077280 0.161237
v -0.697249 2.072280 -0.065443
v -0.697249 2.072280 0.161237
v -0.693588 2.068620 -0.065443
v -0.693588 2.068620 0.161237
v -0.688588 2.067280 -0.065443
v -0.688588 2.067280 0.161237
v -0.683588 2.068620 -0.065443
v -0.683588 2.068620 0.161237
v -0.679928 2.072280 -0.065443
v -0.679928 2.072280 0.161237
v -0.678588 2.077280 -0.065443
v -0.678588 2.077280 0.161237
v -0.679928 2.082280 -0.065443
v -0.679928 2.082280 0.161237
v -0.683588 2.085940 -0.065443
v -0.683588 2.085940 0.161237
v -0.688588 2.087280 -0.065443
v -0.688588 2.087280 0.161237
v -0.693588 2.085940 -0.065443
v -0.693588 2.085940 0.161237
v -0.697249 2.082280 -0.065443
v -0.697249 2.082280 0.161237
v -0.867024 2.077280 -0.148085
v -0.696668 2.077280 -0.055416
v -0.866382 2.072280 -0.149261
v -0.696026 2.072280 -0.056592
v -0.864628 2.068620 -0.152473
v -0.694272 2.068620 -0.059804
v -0.862232 2.067280 -0.156862
v -0.691876 2.067280 -0.064193
v -0.859836 2.068620 -0.161250
v -0.689480 2.068620 -0.068581
v -0.858082 2.072280 -0.164463
v -0.687725 2.072280 -0.071794
v -0.857439 2.077280 -0.165639
v -0.687083 2.077280 -0.072969
v -0.858082 2.082280 -0.164463
v -0.687725 2.082280 -0.071794
v -0.859836 2.085940 -0.161250
v -0.689480 2.085940 -0.068581
v -0.862232 2.087280 -0.156862
v -0.691876 2.087280 -0.064193
v -0.864628 2.085940 -0.152473
v -0.694272 2.085940 -0.059804
v -0.866382 2.082280 -0.149261
v -0.696026 2.082280 -0.056592
v -0.521730 2.077280 -0.165129
v -0.692396 2.077280 -0.073033
v -0.521096 2.072280 -0.163949
v -0.691762 2.072280 -0.071852
v -0.519363 2.068620 -0.160725
v -0.690029 2.068620 -0.068629
v -0.516995 2.067280 -0.156321
v -0.687661 2.067280 -0.064225
v -0.514628 2.068620 -0.151917
v -0.685294 2.068620 -0.059821
v -0.512895 2.072280 -0.148693
v -0.683561 2.072280 -0.056597
v -0.512260 2.077280 -0.147513
v -0.682926 2.077280 -0.055417
v -0.512895 2.082280 -0.148693
v -0.683561 2.082280 -0.056597
v -0.514628 2.085940 -0.151917
v -0.685294 2.085940 -0.059821
v -0.516995 2.087280 -0.156321
v -0.687661 2.087280 -0.064225
v -0.519363 2.085940 -0.160725
v -0.690029 2.085940 -0.068629
v -0.521096 2.082280 -0.163949
v -0.691762 2.082280 -0.071852
v -0.688210 0.000083 0.160124
v 0.688210 2.130084 0.160124
v 0.866200 2.130084 -0.160493
v 0.513030 2.130084 -0.160011
v -0.688210 2.130084 0.160124
v -0.866200 2.130084 -0.160493
v -0.866200 0.000083 -0.160493
v -0.513030 2.130084 -0.160011
v -0.513030 0.000083 -0.160011
v 0.866200 0.000083 -0.160493
v 0.513030 0.000083 -0.160011
v 0.688210 0.000083 0.160124
v -0.867024 0.266080 -0.148085
v -0.696668 0.266080 -0.055416
v -0.866382 0.261080 -0.149261
v -0.696026 0.261080 -0.056592
v -0.864628 0.257420 -0.152473
v -0.694272 0.257420 -0.059804
v -0.862232 0.256080 -0.156862
v -0.691876 0.256080 -0.064193
v -0.859836 0.257420 -0.161250
v -0.689480 0.257420 -0.068581
v -0.858082 0.261080 -0.164463
v -0.687725 0.261080 -0.071794
v -0.857439 0.266080 -0.165639
v -0.687083 0.266080 -0.072969
v -0.858082 0.271080 -0.164463
v -0.687725 0.271080 -0.071794
v -0.859836 0.274740 -0.161250
v -0.689480 0.274740 -0.068581
v -0.862232 0.276080 -0.156862
v -0.691876 0.276080 -0.064193
v -0.864628 0.274740 -0.152473
v -0.694272 0.274740 -0.059804
v -0.866382 0.271080 -0.149261
v -0.696026 0.271080 -0.056592
vn -0.0000 -0.6532 -0.7572
vn -0.0000 0.6532 -0.7572
vn 0.3786 -0.6532 -0.6557
vn 0.3786 0.6532 -0.6557
vn 0.6557 -0.6532 -0.3786
vn 0.6557 0.6532 -0.3786
vn 0.7572 -0.6532 -0.0000
vn 0.7572 0.6532 -0.0000
vn 0.6557 -0.6532 0.3786
vn 0.6557 0.6532 0.3786
vn 0.3786 -0.6532 0.6557
vn 0.3786 0.6532 0.6557
vn -0.0000 -0.6532 0.7572
vn -0.0000 0.6532 0.7572
vn -0.3786 -0.6532 0.6557
vn -0.3786 0.6532 0.6557
vn -0.6557 -0.6532 0.3786
vn -0.6557 0.6532 0.3786
vn -0.7572 -0.6532 -0.0000
vn -0.7572 0.6532 -0.0000
vn -0.6557 -0.6532 -0.3786
vn -0.6557 0.6532 -0.3786
vn -0.3786 -0.6532 -0.6557
vn -0.3786 0.6532 -0.6557
vn 1.0000 -0.0000 -0.0000
vn 0.8660 -0.5000 -0.0000
vn 0.5000 -0.8660 -0.0000
vn -0.0000 -1.0000 -0.0000
vn -0.5000 -0.8660 -0.0000
vn -0.8660 -0.5000 -0.0000
vn -1.0000 -0.0000 -0.0000
vn -0.8660 0.5000 -0.0000
vn -0.5000 0.8660 -0.0000
vn -0.0000 1.0000 -0.0000
vn 0.5000 0.8660 -0.0000
vn 0.8660 0.5000 -0.0000
vn 0.4778 -0.0000 0.8784
vn 0.4139 -0.4999 0.7608
vn 0.4138 -0.5001 0.7607
vn 0.2390 -0.8659 0.4394
vn 0.2388 -0.8661 0.4390
vn 0.0001 -1.0000 0.0002
vn -0.0001 -1.0000 -0.0002
vn -0.2388 -0.8661 -0.4390
vn -0.2390 -0.8659 -0.4394
vn -0.4138 -0.5001 -0.7607
vn -0.4139 -0.4999 -0.7608
vn -0.4778 -0.0000 -0.8784
vn -0.4138 0.5001 -0.7607
vn -0.4139 0.4999 -0.7608
vn -0.2388 0.8661 -0.4390
vn -0.2390 0.8659 -0.4394
vn 0.0001 1.0000 0.0002
vn -0.0001 1.0000 -0.0002
vn 0.2390 0.8659 0.4394
vn 0.2388 0.8661 0.4390
vn 0.4139 0.4999 0.7608
vn 0.4138 0.5001 0.7607
vn 0.4749 -0.0000 -0.8800
vn 0.4113 -0.4999 -0.7622
vn 0.4112 -0.5001 -0.7621
vn 0.2375 -0.8659 -0.4402
vn 0.2374 -0.8661 -0.4398
vn 0.0001 -1.0000 -0.0002
vn -0.0001 -1.0000 0.0002
vn -0.2374 -0.8661 0.4398
vn -0.2375 -0.8659 0.4402
vn -0.4112 -0.5001 0.7621
vn -0.4113 -0.4999 0.7622
vn -0.4749 -0.0000 0.8800
vn -0.4112 0.5001 0.7621
vn -0.4113 0.4999 0.7622
vn -0.2374 0.8661 0.4398
vn -0.2375 0.8659 0.4402
vn 0.0001 1.0000 -0.0002
vn -0.0001 1.0000 0.0002
vn 0.2375 0.8659 -0.4402
vn 0.2374 0.8661 -0.4398
vn 0.4113 0.4999 -0.7622
vn 0.4112 0.5001 -0.7621
vn 0.4779 -0.0000 0.8784
vn -0.4779 -0.0000 -0.8784
vn 0.2388 -0.8661 0.4391
vn -0.2388 -0.8661 -0.4391
vn 0.2374 -0.8661 -0.4399
vn -0.2374 -0.8661 0.4399
vn -0.4113 -0.5001 0.7621
vn -0.2373 0.8661 0.4398
vn 0.2373 0.8661 -0.4398
vn -0.4749 -0.0000 -0.8800
vn -0.4113 -0.4999 -0.7622
vn -0.4112 -0.5001 -0.7621
vn -0.2375 -0.8659 -0.4402
vn -0.2374 -0.8661 -0.4398
vn 0.2374 -0.8661 0.4398
vn 0.2375 -0.8659 0.4402
vn 0.4112 -0.5001 0.7621
vn 0.4113 -0.4999 0.7622
vn 0.4749 -0.0000 0.8800
vn 0.4112 0.5001 0.7621
vn 0.4113 0.4999 0.7622
vn 0.2374 0.8661 0.4398
vn 0.2375 0.8659 0.4402
vn -0.2375 0.8659 -0.4402
vn -0.2374 0.8661 -0.4399
vn -0.4113 0.4999 -0.7622
vn -0.4112 0.5001 -0.7621
vn -0.4778 -0.0000 0.8784
vn -0.4139 -0.4999 0.7608
vn -0.4138 -0.5001 0.7607
vn -0.2390 -0.8659 0.4394
vn -0.2388 -0.8661 0.4390
vn 0.2388 -0.8661 -0.4390
vn 0.2390 -0.8659 -0.4394
vn 0.4138 -0.5001 -0.7607
vn 0.4139 -0.4999 -0.7608
vn 0.4779 -0.0000 -0.8784
vn 0.4138 0.5001 -0.7607
vn 0.4139 0.4999 -0.7608
vn 0.2388 0.8661 -0.4390
vn 0.2390 0.8659 -0.4394
vn -0.2390 0.8659 0.4394
vn -0.2388 0.8661 0.4390
vn -0.4139 0.4999 0.7608
vn -0.4138 0.5001 0.7607
vn -0.2374 0.8661 -0.4398
vn 0.4778 -0.0000 -0.8784
vn -0.4779 -0.0000 0.8784
vn -0.2388 -0.8661 0.4391
vn 0.2388 -0.8661 -0.4391
vn -0.2374 -0.8661 -0.4399
vn 0.2374 -0.8661 0.4399
vn 0.2373 0.8661 0.4398
vn -0.2373 0.8661 -0.4398
vt 0.915589 0.883306
vt 0.915589 0.666667
vt 0.924484 0.666667
vt 0.924484 0.883306
vt 0.932189 0.666667
vt 0.932189 0.883306
vt 0.107283 0.939534
vt 0.107283 0.722895
vt 0.114987 0.722895
vt 0.114987 0.939534
vt 0.123883 0.722895
vt 0.123883 0.939534
vt 0.131587 0.722895
vt 0.131587 0.939534
vt -0.000000 0.939533
vt -0.000000 0.722894
vt 0.007704 0.722894
vt 0.007704 0.939533
vt 0.016600 0.722894
vt 0.016600 0.939533
vt 0.024304 0.722894
vt 0.024304 0.939533
vt 0.137484 0.939534
vt 0.137484 0.722895
vt 0.145188 0.722895
vt 0.145188 0.939534
vt 0.154084 0.722895
vt 0.154084 0.939534
vt 0.459611 0.751647
vt 0.455163 0.743943
vt 0.471763 0.739495
vt 0.467315 0.756095
vt 0.161788 0.722895
vt 0.161788 0.939534
vt 0.907884 0.883306
vt 0.907884 0.666667
vt 0.414259 0.939534
vt 0.414259 0.722895
vt 0.423155 0.722895
vt 0.423155 0.939534
vt 0.430859 0.722895
vt 0.430859 0.939534
vt 0.333643 0.939534
vt 0.333643 0.722895
vt 0.341347 0.722895
vt 0.341347 0.939534
vt 0.350243 0.722895
vt 0.350243 0.939534
vt 0.357947 0.722895
vt 0.357947 0.939534
vt 0.430859 0.939534
vt 0.430859 0.722895
vt 0.438562 0.722895
vt 0.438562 0.939534
vt 0.447459 0.722895
vt 0.447459 0.939534
vt 0.455162 0.722895
vt 0.455162 0.939534
vt 0.357947 0.939534
vt 0.357947 0.722895
vt 0.365651 0.722895
vt 0.365651 0.939534
vt 0.374547 0.722895
vt 0.374547 0.939534
vt 0.542611 0.756095
vt 0.533715 0.756095
vt 0.538163 0.739495
vt 0.550315 0.751647
vt 0.382251 0.722895
vt 0.382251 0.939534
vt 0.406555 0.939534
vt 0.406555 0.722895
vt 0.389955 0.939534
vt 0.389955 0.722895
vt 0.398851 0.722895
vt 0.398851 0.939534
vt 0.406555 0.722895
vt 0.406555 0.939534
vt 0.161788 0.939534
vt 0.161788 0.722895
vt 0.169492 0.722895
vt 0.169492 0.939534
vt 0.178388 0.722895
vt 0.178388 0.939534
vt 0.186092 0.722895
vt 0.186092 0.939534
vt 0.034371 0.939534
vt 0.034371 0.722895
vt 0.042075 0.722895
vt 0.042075 0.939534
vt 0.050971 0.722895
vt 0.050971 0.939534
vt 0.058675 0.722895
vt 0.058675 0.939534
vt 0.186092 0.939534
vt 0.186092 0.722895
vt 0.193796 0.722895
vt 0.193796 0.939534
vt 0.202692 0.722895
vt 0.202692 0.939534
vt 0.600114 0.756095
vt 0.592410 0.751647
vt 0.604562 0.739495
vt 0.609010 0.756095
vt 0.210396 0.722895
vt 0.210396 0.939534
vt 0.382251 0.939534
vt 0.382251 0.722895
vt 0.808305 0.883305
vt 0.800601 0.883305
vt 0.800601 0.666667
vt 0.808305 0.666667
vt 0.082979 0.939534
vt 0.075275 0.939534
vt 0.075275 0.722895
vt 0.082979 0.722895
vt 0.066379 0.939534
vt 0.066379 0.722895
vt 0.058675 0.939534
vt 0.058675 0.722895
vt 0.849209 0.883306
vt 0.841505 0.883306
vt 0.841505 0.666667
vt 0.849209 0.666667
vt 0.832609 0.883306
vt 0.832609 0.666667
vt 0.824905 0.883306
vt 0.824905 0.666667
vt 0.107283 0.939534
vt 0.099579 0.939534
vt 0.099579 0.722895
vt 0.107283 0.722895
vt 0.090683 0.939534
vt 0.090683 0.722895
vt 0.559210 0.784847
vt 0.554763 0.777143
vt 0.571362 0.772695
vt 0.566914 0.789295
vt 0.824905 0.883305
vt 0.817201 0.883305
vt 0.817201 0.666667
vt 0.824905 0.666667
vt 0.649914 0.751647
vt 0.642210 0.756095
vt 0.637762 0.739495
vt 0.654362 0.743943
vt 0.866980 0.883306
vt 0.859276 0.883306
vt 0.859276 0.666667
vt 0.866980 0.666667
vt 0.234700 0.939534
vt 0.226996 0.939534
vt 0.226996 0.722895
vt 0.234700 0.722895
vt 0.218100 0.939534
vt 0.218100 0.722895
vt 0.210396 0.939534
vt 0.210396 0.722895
vt 0.780467 0.883305
vt 0.772763 0.883305
vt 0.772763 0.666667
vt 0.780467 0.666667
vt 0.763867 0.883305
vt 0.763867 0.666667
vt 0.756163 0.883305
vt 0.756163 0.666667
vt 0.307612 0.939534
vt 0.299908 0.939534
vt 0.299908 0.722895
vt 0.307612 0.722895
vt 0.291012 0.939534
vt 0.291012 0.722895
vt 0.283308 0.939534
vt 0.283308 0.722895
vt 0.492811 0.760543
vt 0.500515 0.756095
vt 0.504963 0.772695
vt 0.488363 0.768247
vt 0.883580 0.883306
vt 0.875876 0.883306
vt 0.875876 0.666667
vt 0.883580 0.666667
vt 0.533715 0.789295
vt 0.526011 0.784847
vt 0.538163 0.772695
vt 0.542611 0.789295
vt 0.891284 0.883306
vt 0.883580 0.883306
vt 0.883580 0.666667
vt 0.891284 0.666667
vt 0.259004 0.939534
vt 0.251300 0.939534
vt 0.251300 0.722895
vt 0.259004 0.722895
vt 0.242404 0.939534
vt 0.242404 0.722895
vt 0.234700 0.939534
vt 0.234700 0.722895
vt 0.333643 0.939534
vt 0.325940 0.939534
vt 0.325940 0.722895
vt 0.333643 0.722895
vt 0.317044 0.939534
vt 0.317044 0.722895
vt 0.309340 0.939534
vt 0.309340 0.722895
vt 0.275604 0.939534
vt 0.275604 0.722895
vt 0.266708 0.939534
vt 0.266708 0.722895
vt 0.609010 0.756095
vt 0.604562 0.772695
vt 0.592410 0.760543
vt 0.907884 0.883306
vt 0.900180 0.883306
vt 0.900180 0.666667
vt 0.907884 0.666667
vt 0.343711 0.389561
vt 0.343711 -0.000000
vt 0.346013 -0.000000
vt 0.346013 0.389561
vt 0.352303 -0.000000
vt 0.352303 0.389561
vt 0.360896 -0.000000
vt 0.360896 0.389561
vt 0.369489 -0.000000
vt 0.369489 0.389561
vt 0.375779 -0.000000
vt 0.375779 0.389561
vt 0.378082 -0.000000
vt 0.378082 0.389561
vt 0.378082 0.000000
vt 0.380384 0.000000
vt 0.380384 0.389561
vt 0.386675 0.000000
vt 0.386674 0.389561
vt 0.395267 0.000000
vt 0.395267 0.389561
vt 0.403860 0.000000
vt 0.403860 0.389561
vt 0.410150 0.000000
vt 0.410150 0.389561
vt 0.412453 0.000000
vt 0.412453 0.389561
vt 0.274969 0.722895
vt 0.274969 0.389616
vt 0.277271 0.389612
vt 0.277271 0.722891
vt 0.283561 0.389602
vt 0.283561 0.722881
vt 0.292154 0.389589
vt 0.292154 0.722867
vt 0.300747 0.389575
vt 0.300747 0.722854
vt 0.307037 0.389565
vt 0.307037 0.722844
vt 0.309340 0.389561
vt 0.309340 0.722840
vt 0.309340 0.722840
vt 0.309340 0.389561
vt 0.311642 0.389565
vt 0.311642 0.722844
vt 0.317932 0.389575
vt 0.317932 0.722854
vt 0.326525 0.389589
vt 0.326525 0.722867
vt 0.335118 0.389602
vt 0.335118 0.722881
vt 0.341408 0.389612
vt 0.341408 0.722891
vt 0.343711 0.389616
vt 0.343711 0.722895
vt 0.756163 0.666667
vt 0.756163 0.333388
vt 0.758466 0.333385
vt 0.758466 0.666663
vt 0.764756 0.333375
vt 0.764756 0.666653
vt 0.773349 0.333361
vt 0.773349 0.666640
vt 0.781942 0.333347
vt 0.781942 0.666626
vt 0.788232 0.333337
vt 0.788232 0.666616
vt 0.790534 0.333334
vt 0.790534 0.666612
vt 0.687421 0.666612
vt 0.687421 0.333333
vt 0.689723 0.333337
vt 0.689723 0.666616
vt 0.696014 0.333347
vt 0.696014 0.666625
vt 0.704606 0.333361
vt 0.704606 0.666639
vt 0.713199 0.333374
vt 0.713199 0.666653
vt 0.719490 0.333384
vt 0.719489 0.666663
vt 0.721792 0.333388
vt 0.721792 0.666667
vt 0.412453 0.389561
vt 0.412453 -0.000000
vt 0.414755 -0.000000
vt 0.414755 0.389561
vt 0.421046 -0.000000
vt 0.421046 0.389561
vt 0.429638 -0.000000
vt 0.429638 0.389561
vt 0.438231 -0.000000
vt 0.438231 0.389561
vt 0.444521 -0.000000
vt 0.444521 0.389561
vt 0.446824 -0.000000
vt 0.446824 0.389561
vt 0.446824 0.000000
vt 0.449126 0.000000
vt 0.449126 0.389561
vt 0.455417 0.000000
vt 0.455417 0.389561
vt 0.464009 0.000000
vt 0.464009 0.389561
vt 0.472602 0.000000
vt 0.472602 0.389561
vt 0.478893 0.000000
vt 0.478892 0.389561
vt 0.481195 0.000000
vt 0.481195 0.389561
vt 0.343711 0.722895
vt 0.343711 0.389616
vt 0.346013 0.389612
vt 0.346013 0.722891
vt 0.352303 0.389602
vt 0.352303 0.722881
vt 0.360896 0.389589
vt 0.360896 0.722867
vt 0.369489 0.389575
vt 0.369489 0.722854
vt 0.375779 0.389565
vt 0.375779 0.722844
vt 0.378082 0.389561
vt 0.378082 0.722840
vt 0.378082 0.722840
vt 0.378082 0.389561
vt 0.380384 0.389565
vt 0.380384 0.722844
vt 0.386674 0.389575
vt 0.386674 0.722854
vt 0.395267 0.389589
vt 0.395267 0.722867
vt 0.403860 0.389602
vt 0.403860 0.722881
vt 0.410150 0.389612
vt 0.410150 0.722891
vt 0.412453 0.389616
vt 0.412453 0.722895
vt 0.687421 0.333333
vt 0.687421 0.000054
vt 0.689724 0.000051
vt 0.689724 0.333329
vt 0.696014 0.000041
vt 0.696014 0.333320
vt 0.704607 0.000027
vt 0.704607 0.333306
vt 0.713199 0.000013
vt 0.713199 0.333292
vt 0.719490 0.000003
vt 0.719490 0.333282
vt 0.721792 -0.000000
vt 0.721792 0.333278
vt -0.000000 0.722840
vt -0.000000 0.389561
vt 0.002302 0.389565
vt 0.002302 0.722843
vt 0.008593 0.389575
vt 0.008593 0.722853
vt 0.017185 0.389589
vt 0.017185 0.722867
vt 0.025778 0.389602
vt 0.025778 0.722881
vt 0.032068 0.389612
vt 0.032068 0.722891
vt 0.034371 0.389616
vt 0.034371 0.722894
vt 0.481195 0.000000
vt 0.483497 0.000000
vt 0.483498 0.389561
vt 0.489788 0.000000
vt 0.489788 0.389561
vt 0.498380 0.000000
vt 0.498380 0.389561
vt 0.506973 -0.000000
vt 0.506973 0.389561
vt 0.513264 -0.000000
vt 0.513264 0.389561
vt 0.515566 -0.000000
vt 0.515566 0.389561
vt 0.515566 -0.000000
vt 0.517868 -0.000000
vt 0.517868 0.389561
vt 0.524159 -0.000000
vt 0.524159 0.389561
vt 0.532751 0.000000
vt 0.532751 0.389561
vt 0.541344 0.000000
vt 0.541344 0.389561
vt 0.547635 0.000000
vt 0.547634 0.389561
vt 0.549937 0.000000
vt 0.549937 0.389561
vt 0.412453 0.722895
vt 0.412453 0.389616
vt 0.414755 0.389612
vt 0.414755 0.722891
vt 0.421046 0.389602
vt 0.421046 0.722881
vt 0.429638 0.389589
vt 0.429638 0.722867
vt 0.438231 0.389575
vt 0.438231 0.722853
vt 0.444521 0.389565
vt 0.444521 0.722844
vt 0.446824 0.389561
vt 0.446824 0.722840
vt 0.446824 0.722840
vt 0.446824 0.389561
vt 0.449126 0.389565
vt 0.449126 0.722844
vt 0.455416 0.389575
vt 0.455417 0.722854
vt 0.464009 0.389589
vt 0.464009 0.722867
vt 0.472602 0.389602
vt 0.472602 0.722881
vt 0.478892 0.389612
vt 0.478892 0.722891
vt 0.481195 0.389616
vt 0.481195 0.722895
vt 0.137484 0.722895
vt 0.137484 0.389616
vt 0.139787 0.389612
vt 0.139787 0.722891
vt 0.146077 0.389602
vt 0.146077 0.722881
vt 0.154670 0.389589
vt 0.154670 0.722867
vt 0.163263 0.389575
vt 0.163262 0.722854
vt 0.169553 0.389565
vt 0.169553 0.722844
vt 0.171855 0.389561
vt 0.171855 0.722840
vt 0.240598 0.722840
vt 0.240598 0.389561
vt 0.242900 0.389565
vt 0.242900 0.722844
vt 0.249190 0.389575
vt 0.249191 0.722854
vt 0.257783 0.389589
vt 0.257783 0.722867
vt 0.266376 0.389603
vt 0.266376 0.722881
vt 0.272666 0.389613
vt 0.272666 0.722891
vt 0.274969 0.389616
vt 0.274969 0.722895
vt 0.549937 0.389561
vt 0.549937 0.000000
vt 0.552239 0.000000
vt 0.552239 0.389561
vt 0.558530 0.000000
vt 0.558530 0.389561
vt 0.567123 0.000000
vt 0.567122 0.389561
vt 0.575715 -0.000000
vt 0.575715 0.389561
vt 0.582006 -0.000000
vt 0.582006 0.389561
vt 0.584308 -0.000000
vt 0.584308 0.389561
vt 0.584308 -0.000000
vt 0.586610 -0.000000
vt 0.586610 0.389561
vt 0.592901 -0.000000
vt 0.592901 0.389561
vt 0.601494 0.000000
vt 0.601494 0.389561
vt 0.610086 0.000000
vt 0.610086 0.389561
vt 0.616377 0.000000
vt 0.616377 0.389561
vt 0.618679 0.000000
vt 0.618679 0.389561
vt 0.481195 0.722895
vt 0.481195 0.389616
vt 0.483497 0.389612
vt 0.483497 0.722891
vt 0.489788 0.389602
vt 0.489788 0.722881
vt 0.498381 0.389589
vt 0.498380 0.722867
vt 0.506973 0.389575
vt 0.506973 0.722854
vt 0.513264 0.389565
vt 0.513264 0.722844
vt 0.515566 0.389561
vt 0.515566 0.722840
vt 0.515566 0.722840
vt 0.515566 0.389561
vt 0.517868 0.389565
vt 0.517868 0.722844
vt 0.524159 0.389575
vt 0.524159 0.722854
vt 0.532751 0.389589
vt 0.532751 0.722867
vt 0.541344 0.389602
vt 0.541344 0.722881
vt 0.547634 0.389612
vt 0.547634 0.722891
vt 0.549937 0.389616
vt 0.549937 0.722895
vt 0.928018 0.666667
vt 0.928018 0.333388
vt 0.930321 0.333384
vt 0.930321 0.666663
vt 0.936611 0.333374
vt 0.936611 0.666653
vt 0.945204 0.333361
vt 0.945204 0.666639
vt 0.953797 0.333347
vt 0.953796 0.666626
vt 0.960087 0.333337
vt 0.960087 0.666616
vt 0.962389 0.333333
vt 0.962389 0.666612
vt 0.962389 0.333279
vt 0.962389 -0.000000
vt 0.964692 0.000004
vt 0.964692 0.333282
vt 0.970982 0.000014
vt 0.970982 0.333292
vt 0.979575 0.000027
vt 0.979575 0.333306
vt 0.988167 0.000041
vt 0.988168 0.333320
vt 0.994458 0.000051
vt 0.994458 0.333330
vt 0.996760 0.000055
vt 0.996760 0.333333
vt 0.618679 0.389561
vt 0.618679 0.000000
vt 0.620981 0.000000
vt 0.620981 0.389561
vt 0.627272 0.000000
vt 0.627272 0.389561
vt 0.635865 0.000000
vt 0.635865 0.389561
vt 0.644457 -0.000000
vt 0.644457 0.389561
vt 0.650748 -0.000000
vt 0.650748 0.389561
vt 0.653050 -0.000000
vt 0.653050 0.389561
vt 0.653050 0.389561
vt 0.653050 -0.000000
vt 0.655352 -0.000000
vt 0.655353 0.389561
vt 0.661643 -0.000000
vt 0.661643 0.389561
vt 0.670236 0.000000
vt 0.670236 0.389561
vt 0.678828 0.000000
vt 0.678828 0.389561
vt 0.685119 0.000000
vt 0.685119 0.389561
vt 0.687421 0.000000
vt 0.687421 0.389561
vt 0.549937 0.722895
vt 0.549937 0.389616
vt 0.552239 0.389612
vt 0.552239 0.722891
vt 0.558530 0.389602
vt 0.558530 0.722881
vt 0.567123 0.389589
vt 0.567122 0.722867
vt 0.575715 0.389575
vt 0.575715 0.722854
vt 0.582006 0.389565
vt 0.582006 0.722844
vt 0.584308 0.389561
vt 0.584308 0.722840
vt 0.584308 0.722840
vt 0.584308 0.389561
vt 0.586610 0.389565
vt 0.586610 0.722844
vt 0.592901 0.389575
vt 0.592901 0.722854
vt 0.601493 0.389589
vt 0.601494 0.722867
vt 0.610086 0.389602
vt 0.610086 0.722881
vt 0.616377 0.389612
vt 0.616377 0.722891
vt 0.618679 0.389616
vt 0.618679 0.722895
vt 0.962389 0.666667
vt 0.962389 0.333388
vt 0.964692 0.333384
vt 0.964692 0.666663
vt 0.970982 0.333374
vt 0.970982 0.666653
vt 0.979575 0.333361
vt 0.979575 0.666639
vt 0.988168 0.333347
vt 0.988168 0.666626
vt 0.994458 0.333337
vt 0.994458 0.666616
vt 0.996760 0.333333
vt 0.996760 0.666612
vt 0.687421 0.999945
vt 0.687421 0.666666
vt 0.689723 0.666670
vt 0.689724 0.999949
vt 0.696014 0.666680
vt 0.696014 0.999959
vt 0.704607 0.666694
vt 0.704607 0.999972
vt 0.713199 0.666707
vt 0.713199 0.999986
vt 0.719490 0.666717
vt 0.719490 0.999996
vt 0.721792 0.666721
vt 0.721792 1.000000
vt 0.034371 0.389561
vt 0.032069 0.389561
vt 0.032069 0.000000
vt 0.034371 0.000000
vt 0.025778 0.389561
vt 0.025778 0.000000
vt 0.017186 0.389561
vt 0.017186 0.000000
vt 0.008593 0.389561
vt 0.008593 0.000000
vt 0.002302 0.389561
vt 0.002302 -0.000000
vt -0.000000 0.389561
vt 0.000000 -0.000000
vt 0.068742 0.389561
vt 0.066440 0.389561
vt 0.066440 0.000000
vt 0.068742 0.000000
vt 0.060149 0.389561
vt 0.060149 -0.000000
vt 0.051557 0.389561
vt 0.051557 -0.000000
vt 0.042964 0.389561
vt 0.042964 -0.000000
vt 0.036673 0.389561
vt 0.036673 -0.000000
vt 0.034371 0.389561
vt 0.034371 -0.000000
vt 0.824905 0.666667
vt 0.822603 0.666663
vt 0.822603 0.333384
vt 0.824905 0.333388
vt 0.816313 0.666653
vt 0.816313 0.333374
vt 0.807720 0.666639
vt 0.807720 0.333361
vt 0.799127 0.666626
vt 0.799127 0.333347
vt 0.792837 0.666616
vt 0.792837 0.333337
vt 0.790534 0.666612
vt 0.790534 0.333333
vt 0.859276 0.333279
vt 0.856974 0.333282
vt 0.856974 0.000004
vt 0.859276 0.000000
vt 0.850683 0.333292
vt 0.850683 0.000014
vt 0.842091 0.333306
vt 0.842091 0.000027
vt 0.833498 0.333320
vt 0.833498 0.000041
vt 0.827208 0.333330
vt 0.827208 0.000051
vt 0.824905 0.333333
vt 0.824905 0.000055
vt 0.171855 0.389561
vt 0.169553 0.389561
vt 0.169553 0.000000
vt 0.171855 0.000000
vt 0.163263 0.389561
vt 0.163263 0.000000
vt 0.154670 0.389561
vt 0.154670 0.000000
vt 0.146077 0.389561
vt 0.146077 0.000000
vt 0.139787 0.389561
vt 0.139787 -0.000000
vt 0.137484 0.389561
vt 0.137484 -0.000000
vt 0.206226 0.389561
vt 0.203924 0.389561
vt 0.203924 -0.000000
vt 0.206226 -0.000000
vt 0.197634 0.389561
vt 0.197634 0.000000
vt 0.189041 0.389561
vt 0.189041 0.000000
vt 0.180448 0.389561
vt 0.180448 0.000000
vt 0.174158 0.389561
vt 0.174158 0.000000
vt 0.171855 0.389561
vt 0.171855 0.000000
vt 0.687421 0.722895
vt 0.685119 0.722891
vt 0.685119 0.389612
vt 0.687421 0.389616
vt 0.678828 0.722881
vt 0.678828 0.389602
vt 0.670236 0.722867
vt 0.670236 0.389589
vt 0.661643 0.722854
vt 0.661643 0.389575
vt 0.655352 0.722844
vt 0.655352 0.389565
vt 0.653050 0.722840
vt 0.653050 0.389561
vt 0.137484 0.722840
vt 0.135182 0.722844
vt 0.135182 0.389565
vt 0.137484 0.389561
vt 0.128892 0.722854
vt 0.128892 0.389575
vt 0.120299 0.722867
vt 0.120299 0.389589
vt 0.111706 0.722881
vt 0.111706 0.389602
vt 0.105416 0.722891
vt 0.105416 0.389612
vt 0.103113 0.722895
vt 0.103113 0.389616
vt 0.068742 0.722895
vt 0.066440 0.722891
vt 0.066440 0.389612
vt 0.068742 0.389616
vt 0.060149 0.722881
vt 0.060149 0.389602
vt 0.051557 0.722867
vt 0.051557 0.389589
vt 0.042964 0.722854
vt 0.042964 0.389575
vt 0.036674 0.722844
vt 0.036673 0.389565
vt 0.034371 0.722840
vt 0.034371 0.389561
vt 0.859276 0.666612
vt 0.856974 0.666616
vt 0.856974 0.333337
vt 0.859276 0.333333
vt 0.850684 0.666626
vt 0.850684 0.333347
vt 0.842091 0.666640
vt 0.842091 0.333361
vt 0.833498 0.666653
vt 0.833498 0.333375
vt 0.827208 0.666663
vt 0.827208 0.333385
vt 0.824905 0.666667
vt 0.824905 0.333388
vt 0.240597 0.389561
vt 0.238295 0.389561
vt 0.238295 0.000000
vt 0.240597 0.000000
vt 0.232005 0.389561
vt 0.232005 0.000000
vt 0.223412 0.389561
vt 0.223412 0.000000
vt 0.214819 0.389561
vt 0.214819 0.000000
vt 0.208529 0.389561
vt 0.208529 -0.000000
vt 0.206226 0.389561
vt 0.206226 -0.000000
vt 0.274969 0.389561
vt 0.272666 0.389561
vt 0.272666 -0.000000
vt 0.274969 -0.000000
vt 0.266376 0.389561
vt 0.266376 0.000000
vt 0.257783 0.389561
vt 0.257783 0.000000
vt 0.249190 0.389561
vt 0.249190 0.000000
vt 0.242900 0.389561
vt 0.242900 0.000000
vt 0.240598 0.389561
vt 0.240598 0.000000
vt 0.756163 0.333333
vt 0.753861 0.333330
vt 0.753861 0.000051
vt 0.756163 0.000055
vt 0.747571 0.333320
vt 0.747571 0.000041
vt 0.738978 0.333306
vt 0.738978 0.000027
vt 0.730385 0.333292
vt 0.730385 0.000014
vt 0.724095 0.333282
vt 0.724095 0.000004
vt 0.721792 0.333279
vt 0.721792 0.000000
vt 0.206226 0.722840
vt 0.203924 0.722844
vt 0.203924 0.389565
vt 0.206226 0.389561
vt 0.197634 0.722854
vt 0.197634 0.389575
vt 0.189041 0.722867
vt 0.189041 0.389589
vt 0.180448 0.722881
vt 0.180448 0.389602
vt 0.174158 0.722891
vt 0.174158 0.389612
vt 0.171855 0.722895
vt 0.171855 0.389616
vt 0.893647 0.333333
vt 0.891345 0.333330
vt 0.891345 0.000051
vt 0.893647 0.000055
vt 0.885055 0.333320
vt 0.885055 0.000041
vt 0.876462 0.333306
vt 0.876462 0.000027
vt 0.867869 0.333292
vt 0.867869 0.000014
vt 0.861579 0.333283
vt 0.861579 0.000004
vt 0.859276 0.333279
vt 0.859276 -0.000000
vt 0.893647 0.666612
vt 0.891345 0.666616
vt 0.891345 0.333337
vt 0.893647 0.333333
vt 0.885055 0.666626
vt 0.885055 0.333347
vt 0.876462 0.666640
vt 0.876462 0.333361
vt 0.867869 0.666653
vt 0.867869 0.333375
vt 0.861579 0.666663
vt 0.861579 0.333384
vt 0.859276 0.666667
vt 0.859276 0.333388
vt 0.309340 0.389561
vt 0.307037 0.389561
vt 0.307037 0.000000
vt 0.309340 0.000000
vt 0.300747 0.389561
vt 0.300747 0.000000
vt 0.292154 0.389561
vt 0.292154 0.000000
vt 0.283561 0.389561
vt 0.283561 0.000000
vt 0.277271 0.389561
vt 0.277271 -0.000000
vt 0.274969 -0.000000
vt 0.343711 0.389561
vt 0.341408 0.389561
vt 0.341408 -0.000000
vt 0.343711 -0.000000
vt 0.335118 0.389561
vt 0.335118 0.000000
vt 0.326525 0.389561
vt 0.326525 0.000000
vt 0.317932 0.389561
vt 0.317932 0.000000
vt 0.311642 0.389561
vt 0.311642 0.000000
vt 0.309340 0.389561
vt 0.309340 0.000000
vt 0.756163 1.000000
vt 0.753861 0.999996
vt 0.753861 0.666718
vt 0.756163 0.666721
vt 0.747570 0.999986
vt 0.747570 0.666708
vt 0.738978 0.999973
vt 0.738978 0.666694
vt 0.730385 0.999959
vt 0.730385 0.666681
vt 0.724095 0.999949
vt 0.724095 0.666670
vt 0.721792 0.999945
vt 0.721792 0.666667
vt 0.962389 0.333279
vt 0.960087 0.333282
vt 0.960087 0.000003
vt 0.962389 0.000000
vt 0.953797 0.333292
vt 0.953797 0.000014
vt 0.945204 0.333306
vt 0.945204 0.000027
vt 0.936611 0.333319
vt 0.936611 0.000041
vt 0.930321 0.333329
vt 0.930321 0.000051
vt 0.928018 0.333333
vt 0.928018 0.000055
vt 0.790534 0.333333
vt 0.788232 0.333330
vt 0.788232 0.000051
vt 0.790534 0.000055
vt 0.781942 0.333320
vt 0.781942 0.000041
vt 0.773349 0.333306
vt 0.773349 0.000027
vt 0.764756 0.333292
vt 0.764756 0.000014
vt 0.758466 0.333282
vt 0.758466 0.000004
vt 0.756163 0.333279
vt 0.756163 0.000000
vt 0.824905 0.333279
vt 0.822603 0.333282
vt 0.822603 0.000004
vt 0.824905 0.000000
vt 0.816313 0.333292
vt 0.816312 0.000014
vt 0.807720 0.333306
vt 0.807720 0.000027
vt 0.799127 0.333320
vt 0.799127 0.000041
vt 0.792837 0.333330
vt 0.792837 0.000051
vt 0.790534 0.333333
vt 0.790534 0.000055
vt 0.103113 0.389561
vt 0.100811 0.389561
vt 0.100811 0.000000
vt 0.103113 0.000000
vt 0.094520 0.389561
vt 0.094520 0.000000
vt 0.085928 0.389561
vt 0.085928 0.000000
vt 0.077335 0.389561
vt 0.077335 0.000000
vt 0.071045 0.389561
vt 0.071045 -0.000000
vt 0.068742 0.389561
vt 0.068742 -0.000000
vt 0.137484 0.389561
vt 0.135182 0.389561
vt 0.135182 0.000000
vt 0.137484 0.000000
vt 0.128892 0.389561
vt 0.128892 -0.000000
vt 0.120299 0.389561
vt 0.120299 -0.000000
vt 0.111706 0.389561
vt 0.111706 -0.000000
vt 0.105416 0.389561
vt 0.105416 -0.000000
vt 0.103113 0.389561
vt 0.103113 -0.000000
vt 0.756163 0.666667
vt 0.753861 0.666663
vt 0.753861 0.333384
vt 0.756163 0.333388
vt 0.747571 0.666653
vt 0.747571 0.333375
vt 0.738978 0.666639
vt 0.738978 0.333361
vt 0.730385 0.666626
vt 0.730385 0.333347
vt 0.724095 0.666616
vt 0.724095 0.333337
vt 0.721792 0.666612
vt 0.721792 0.333333
vt 0.240597 0.722840
vt 0.238295 0.722844
vt 0.238295 0.389565
vt 0.240598 0.389561
vt 0.232005 0.722854
vt 0.232005 0.389575
vt 0.223412 0.722867
vt 0.223412 0.389589
vt 0.214819 0.722881
vt 0.214819 0.389602
vt 0.208529 0.722891
vt 0.208529 0.389612
vt 0.206226 0.722895
vt 0.206226 0.389616
vt 0.928018 0.333333
vt 0.925716 0.333330
vt 0.925716 0.000051
vt 0.928018 0.000055
vt 0.919426 0.333319
vt 0.919426 0.000041
vt 0.910833 0.333306
vt 0.910833 0.000027
vt 0.902240 0.333292
vt 0.902240 0.000014
vt 0.895950 0.333282
vt 0.895950 0.000004
vt 0.893647 0.333278
vt 0.893647 0.000000
vt 0.928018 0.666612
vt 0.925716 0.666615
vt 0.925716 0.333337
vt 0.928018 0.333333
vt 0.919426 0.666625
vt 0.919426 0.333347
vt 0.910833 0.666639
vt 0.910833 0.333360
vt 0.902240 0.666653
vt 0.902240 0.333374
vt 0.895950 0.666663
vt 0.895950 0.333384
vt 0.893647 0.666666
vt 0.893647 0.333388
vt 0.587962 0.743943
vt 0.583515 0.751647
vt 0.571362 0.739495
vt 0.575810 0.756095
vt 0.566915 0.756095
vt 0.559210 0.751647
vt 0.554763 0.743943
vt 0.554763 0.735047
vt 0.559210 0.727343
vt 0.566915 0.722895
vt 0.575810 0.722895
vt 0.583515 0.727343
vt 0.587962 0.735047
vt 0.633314 0.756095
vt 0.625610 0.751647
vt 0.621162 0.743943
vt 0.621162 0.735047
vt 0.625610 0.727343
vt 0.633314 0.722895
vt 0.642210 0.722895
vt 0.649914 0.727343
vt 0.621162 0.743943
vt 0.616714 0.751647
vt 0.455163 0.735047
vt 0.459611 0.727343
vt 0.467315 0.722895
vt 0.476211 0.722895
vt 0.483915 0.727343
vt 0.488363 0.735047
vt 0.488363 0.743942
vt 0.483915 0.751647
vt 0.526011 0.751647
vt 0.521563 0.743943
vt 0.521563 0.735047
vt 0.526011 0.727343
vt 0.533715 0.722895
vt 0.542610 0.722895
vt 0.550315 0.727343
vt 0.554762 0.735047
vt 0.654362 0.735047
vt 0.587962 0.743943
vt 0.587962 0.735047
vt 0.592410 0.727343
vt 0.600114 0.722895
vt 0.609010 0.722895
vt 0.616714 0.727343
vt 0.621162 0.735047
vt 0.554762 0.777143
vt 0.550315 0.784847
vt 0.554763 0.768247
vt 0.559210 0.760543
vt 0.566915 0.756095
vt 0.575810 0.756095
vt 0.583514 0.760543
vt 0.587962 0.768247
vt 0.587962 0.777143
vt 0.583515 0.784847
vt 0.488363 0.777143
vt 0.492811 0.784847
vt 0.509411 0.756095
vt 0.517115 0.760543
vt 0.517115 0.727343
vt 0.521563 0.735047
vt 0.521563 0.743943
vt 0.504963 0.739495
vt 0.521562 0.768247
vt 0.521562 0.777143
vt 0.649914 0.784846
vt 0.642210 0.789294
vt 0.637762 0.772695
vt 0.654362 0.777143
vt 0.517115 0.784847
vt 0.509411 0.789295
vt 0.500515 0.722895
vt 0.509411 0.722895
vt 0.500515 0.789295
vt 0.621162 0.768247
vt 0.625610 0.760543
vt 0.633314 0.756095
vt 0.587962 0.768247
vt 0.587962 0.777143
vt 0.488363 0.735047
vt 0.492811 0.727343
vt 0.521563 0.777143
vt 0.521563 0.768247
vt 0.526011 0.760543
vt 0.533715 0.756095
vt 0.542610 0.756095
vt 0.550314 0.760543
vt 0.554762 0.768247
vt 0.575810 0.789295
vt 0.476211 0.756095
vt 0.483915 0.760543
vt 0.471763 0.772695
vt 0.467315 0.756095
vt 0.616714 0.760543
vt 0.621162 0.768247
vt 0.492811 0.751647
vt 0.488363 0.743943
vt 0.621162 0.777143
vt 0.616714 0.784847
vt 0.621162 0.777142
vt 0.625610 0.784846
vt 0.609010 0.789295
vt 0.600114 0.789295
vt 0.500515 0.756095
vt 0.509411 0.756095
vt 0.592410 0.784847
vt 0.476211 0.789295
vt 0.467315 0.789295
vt 0.459611 0.784847
vt 0.654362 0.768247
vt 0.649914 0.760543
vt 0.476211 0.756095
vt 0.554762 0.743943
vt 0.517115 0.751647
vt 0.483915 0.784847
vt 0.488363 0.777143
vt 0.633314 0.789294
vt 0.459611 0.760543
vt 0.455163 0.768247
vt 0.642210 0.756095
vt 0.488363 0.768247
vt 0.455163 0.777143
vt 0.653050 0.722895
vt 0.650748 0.722891
vt 0.650748 0.389612
vt 0.653050 0.389616
vt 0.644457 0.722881
vt 0.644457 0.389602
vt 0.635864 0.722867
vt 0.635864 0.389589
vt 0.627272 0.722854
vt 0.627272 0.389575
vt 0.620981 0.722844
vt 0.620981 0.389565
vt 0.618679 0.722840
vt 0.618679 0.389561
vt 0.103113 0.722840
vt 0.100811 0.722844
vt 0.100811 0.389565
vt 0.103113 0.389561
vt 0.094520 0.722854
vt 0.094520 0.389575
vt 0.085928 0.722867
vt 0.085928 0.389589
vt 0.077335 0.722881
vt 0.077335 0.389602
vt 0.071045 0.722891
vt 0.071045 0.389612
vt 0.068742 0.722895
vt 0.068742 0.389616
s 1
usemtl iron_cabinet_MT
f 161/237/12 162/238/13 164/239/15 163/240/14
f 163/240/14 164/239/15 166/241/17 165/242/16
f 165/243/16 166/244/17 168/245/19 167/246/18
f 167/246/18 168/245/19 170/247/21 169/248/20
f 169/248/20 170/247/21 172/249/23 171/250/22
f 171/251/22 172/252/23 174/253/25 173/254/24
f 173/254/24 174/253/25 176/255/27 175/256/26
f 175/256/26 176/255/27 178/257/29 177/258/28
f 177/259/28 178/260/29 180/261/31 179/262/30
f 179/262/30 180/261/31 182/263/33 181/264/32
f 208/265/35 206/266/33 1003/267/45 186/268/13
f 181/264/32 182/263/33 184/269/35 183/270/34
f 183/271/34 184/272/35 162/238/13 161/237/12
f 185/273/12 186/274/13 188/275/15 187/276/14
f 187/276/14 188/275/15 190/277/17 189/278/16
f 189/279/16 190/280/17 192/281/19 191/282/18
f 191/282/18 192/281/19 194/283/21 193/284/20
f 193/284/20 194/283/21 196/285/23 195/286/22
f 195/287/22 196/288/23 198/289/25 197/290/24
f 197/290/24 198/289/25 200/291/27 199/292/26
f 199/292/26 200/291/27 202/293/29 201/294/28
f 201/295/28 202/296/29 204/297/31 203/298/30
f 203/298/30 204/297/31 206/299/33 205/300/32
f 232/301/35 230/302/33 1004/303/45 210/304/13
f 205/300/32 206/299/33 208/305/35 207/306/34
f 207/307/34 208/308/35 186/274/13 185/273/12
f 209/309/12 210/310/13 212/311/15 211/312/14
f 211/312/14 212/311/15 214/313/17 213/314/16
f 213/315/16 214/316/17 216/317/19 215/318/18
f 215/318/18 216/317/19 218/319/21 217/320/20
f 217/320/20 218/319/21 220/321/23 219/322/22
f 219/323/22 220/324/23 222/325/25 221/326/24
f 221/326/24 222/325/25 224/327/27 223/328/26
f 223/328/26 224/327/27 226/329/29 225/330/28
f 225/331/28 226/332/29 228/333/31 227/334/30
f 227/334/30 228/333/31 230/335/33 229/336/32
f 240/337/31 242/338/29 1005/339/45 238/340/33
f 229/336/32 230/335/33 232/341/35 231/342/34
f 231/343/34 232/344/35 210/310/13 209/309/12
f 233/345/12 235/346/34 236/347/35 234/348/13
f 235/349/34 237/350/32 238/351/33 236/352/35
f 237/350/32 239/353/30 240/354/31 238/351/33
f 239/353/30 241/355/28 242/356/29 240/354/31
f 241/357/28 243/358/26 244/359/27 242/360/29
f 243/358/26 245/361/24 246/362/25 244/359/27
f 245/361/24 247/363/22 248/364/23 246/362/25
f 247/365/22 249/366/20 250/367/21 248/368/23
f 249/366/20 251/369/18 252/370/19 250/367/21
f 251/369/18 253/349/16 254/352/17 252/370/19
f 264/371/31 266/372/29 1006/373/45 262/374/33
f 253/375/16 255/376/14 256/377/15 254/378/17
f 255/376/14 233/345/12 234/348/13 256/377/15
f 184/379/35 182/380/33 1002/381/45 162/382/13
f 257/383/12 259/384/34 260/385/35 258/386/13
f 259/387/34 261/388/32 262/389/33 260/390/35
f 261/388/32 263/391/30 264/392/31 262/389/33
f 263/391/30 265/393/28 266/394/29 264/392/31
f 265/395/28 267/396/26 268/397/27 266/398/29
f 267/396/26 269/399/24 270/400/25 268/397/27
f 269/399/24 271/401/22 272/402/23 270/400/25
f 271/403/22 273/404/20 274/405/21 272/406/23
f 273/404/20 275/407/18 276/408/19 274/405/21
f 275/407/18 277/409/16 278/410/17 276/408/19
f 275/411/18 273/412/20 1007/413/39 277/414/16
f 277/415/16 279/416/14 280/417/15 278/418/17
f 279/416/14 257/383/12 258/386/13 280/417/15
f 288/419/31 290/420/29 1008/421/45 286/422/33
f 281/423/12 283/424/34 284/425/35 282/426/13
f 283/427/34 285/428/32 286/429/33 284/430/35
f 285/428/32 287/431/30 288/432/31 286/429/33
f 287/431/30 289/433/28 290/434/29 288/432/31
f 289/435/28 291/436/26 292/437/27 290/438/29
f 291/436/26 293/439/24 294/440/25 292/437/27
f 293/439/24 295/441/22 296/442/23 294/440/25
f 295/409/22 297/443/20 298/444/21 296/410/23
f 297/443/20 299/445/18 300/446/19 298/444/21
f 299/445/18 301/427/16 302/430/17 300/446/19
f 299/337/18 297/447/20 1009/448/39 301/449/16
f 301/450/16 303/451/14 304/452/15 302/453/17
f 303/451/14 281/423/12 282/426/13 304/452/15
f 305/454/36 306/455/36 308/456/37 307/457/37
f 307/457/37 308/456/37 310/458/38 309/459/38
f 309/459/38 310/458/38 312/460/39 311/461/39
f 311/461/39 312/460/39 314/462/40 313/463/40
f 313/463/40 314/462/40 316/464/41 315/465/41
f 315/465/41 316/464/41 318/466/42 317/467/42
f 317/467/42 318/468/42 320/469/43 319/470/43
f 319/470/43 320/469/43 322/471/44 321/472/44
f 321/472/44 322/471/44 324/473/45 323/474/45
f 323/474/45 324/473/45 326/475/46 325/476/46
f 325/476/46 326/475/46 328/477/47 327/478/47
f 327/478/47 328/477/47 306/479/36 305/480/36
f 329/481/48 330/482/48 332/483/50 331/484/49
f 331/484/49 332/483/50 334/485/52 333/486/51
f 333/486/51 334/485/52 336/487/54 335/488/53
f 335/488/53 336/487/54 338/489/56 337/490/55
f 337/490/55 338/489/56 340/491/58 339/492/57
f 339/492/57 340/491/58 342/493/59 341/494/59
f 341/495/59 342/496/59 344/497/61 343/498/60
f 343/498/60 344/497/61 346/499/63 345/500/62
f 345/500/62 346/499/63 348/501/65 347/502/64
f 347/502/64 348/501/65 350/503/67 349/504/66
f 349/504/66 350/503/67 352/505/69 351/506/68
f 351/506/68 352/505/69 330/507/48 329/508/48
f 353/509/70 354/510/70 356/511/72 355/512/71
f 355/512/71 356/511/72 358/513/74 357/514/73
f 357/514/73 358/513/74 360/515/76 359/516/75
f 359/516/75 360/515/76 362/517/78 361/518/77
f 361/518/77 362/517/78 364/519/80 363/520/79
f 363/520/79 364/519/80 366/521/81 365/522/81
f 365/523/81 366/524/81 368/525/83 367/526/82
f 367/526/82 368/525/83 370/527/85 369/528/84
f 369/528/84 370/527/85 372/529/87 371/530/86
f 371/530/86 372/529/87 374/531/89 373/532/88
f 373/532/88 374/531/89 376/533/91 375/534/90
f 375/534/90 376/533/91 354/535/70 353/536/70
f 377/537/36 378/538/36 380/539/37 379/540/37
f 379/540/37 380/539/37 382/541/38 381/542/38
f 381/542/38 382/541/38 384/543/39 383/544/39
f 383/544/39 384/543/39 386/545/40 385/546/40
f 385/546/40 386/545/40 388/547/41 387/548/41
f 387/548/41 388/547/41 390/549/42 389/550/42
f 389/550/42 390/551/42 392/552/43 391/553/43
f 391/553/43 392/552/43 394/554/44 393/555/44
f 393/555/44 394/554/44 396/556/45 395/557/45
f 395/557/45 396/556/45 398/558/46 397/559/46
f 397/559/46 398/558/46 400/560/47 399/561/47
f 399/561/47 400/560/47 378/562/36 377/563/36
f 401/564/92 402/565/92 404/566/50 403/567/49
f 403/567/49 404/566/50 406/568/52 405/569/51
f 405/569/51 406/568/52 408/570/54 407/571/53
f 407/571/53 408/570/54 410/572/56 409/573/55
f 409/573/55 410/572/56 412/574/58 411/575/57
f 411/575/57 412/574/58 414/576/93 413/577/93
f 413/578/93 414/579/93 416/580/61 415/581/60
f 415/581/60 416/580/61 418/582/63 417/583/62
f 417/583/62 418/582/63 420/584/65 419/585/64
f 419/585/64 420/584/65 422/586/67 421/587/66
f 421/587/66 422/586/67 424/588/69 423/589/68
f 423/589/68 424/588/69 402/590/92 401/591/92
f 425/592/70 426/593/70 428/594/72 427/595/71
f 427/595/71 428/594/72 430/596/74 429/597/73
f 429/597/73 430/596/74 432/598/76 431/599/75
f 431/599/75 432/598/76 434/600/78 433/601/77
f 433/601/77 434/600/78 436/602/80 435/603/79
f 435/603/79 436/602/80 438/604/81 437/605/81
f 437/606/81 438/607/81 440/608/83 439/609/82
f 439/609/82 440/608/83 442/610/85 441/611/84
f 441/611/84 442/610/85 444/612/87 443/613/86
f 443/613/86 444/612/87 446/614/89 445/615/88
f 445/615/88 446/614/89 448/616/91 447/617/90
f 447/617/90 448/616/91 426/618/70 425/619/70
f 449/563/36 450/620/36 452/621/37 451/622/37
f 451/622/37 452/621/37 454/623/38 453/624/38
f 453/624/38 454/623/38 456/625/39 455/626/39
f 455/626/39 456/625/39 458/627/40 457/628/40
f 457/628/40 458/627/40 460/629/41 459/630/41
f 459/630/41 460/629/41 462/631/42 461/632/42
f 461/632/42 462/633/42 464/634/43 463/635/43
f 463/635/43 464/634/43 466/636/44 465/637/44
f 465/637/44 466/636/44 468/638/45 467/639/45
f 467/639/45 468/638/45 470/640/46 469/641/46
f 469/641/46 470/640/46 472/642/47 471/643/47
f 471/643/47 472/642/47 450/644/36 449/645/36
f 473/646/48 474/647/48 476/648/50 475/649/49
f 475/649/49 476/648/50 478/650/52 477/651/51
f 477/651/51 478/650/52 480/652/54 479/653/53
f 479/653/53 480/652/54 482/654/56 481/655/55
f 481/655/55 482/654/56 484/656/58 483/657/57
f 483/657/57 484/656/58 486/658/59 485/659/59
f 485/660/59 486/661/59 488/662/61 487/663/60
f 487/663/60 488/662/61 490/664/63 489/665/62
f 489/665/62 490/664/63 492/666/65 491/667/64
f 491/667/64 492/666/65 494/668/67 493/669/66
f 493/669/66 494/668/67 496/670/69 495/671/68
f 495/671/68 496/670/69 474/672/48 473/673/48
f 497/674/70 498/675/70 500/676/72 499/677/71
f 499/677/71 500/676/72 502/678/74 501/679/73
f 501/679/73 502/678/74 504/680/76 503/681/75
f 503/681/75 504/680/76 506/682/78 505/683/77
f 505/683/77 506/682/78 508/684/80 507/685/79
f 507/685/79 508/684/80 510/686/81 509/687/81
f 509/688/81 510/689/81 512/690/83 511/691/82
f 511/691/82 512/690/83 514/692/85 513/693/84
f 513/693/84 514/692/85 516/694/87 515/695/86
f 515/695/86 516/694/87 518/696/89 517/697/88
f 517/697/88 518/696/89 520/698/91 519/699/90
f 519/699/90 520/698/91 498/700/70 497/701/70
f 521/702/36 522/703/36 524/704/37 523/705/37
f 523/705/37 524/704/37 526/706/38 525/707/38
f 525/707/38 526/706/38 528/708/39 527/709/39
f 527/709/39 528/708/39 530/710/40 529/711/40
f 529/711/40 530/710/40 532/712/41 531/713/41
f 531/713/41 532/712/41 534/714/42 533/715/42
f 533/715/42 534/716/42 536/717/43 535/718/43
f 535/718/43 536/717/43 538/719/44 537/720/44
f 537/720/44 538/719/44 540/721/45 539/722/45
f 539/722/45 540/721/45 542/723/46 541/724/46
f 541/724/46 542/723/46 544/725/47 543/726/47
f 543/726/47 544/725/47 522/727/36 521/728/36
f 545/729/48 546/730/48 548/731/50 547/732/49
f 547/732/49 548/731/50 550/733/52 549/734/51
f 549/734/51 550/733/52 552/735/54 551/736/53
f 551/736/53 552/735/54 554/737/56 553/738/55
f 553/738/55 554/737/56 556/739/58 555/740/57
f 555/740/57 556/739/58 558/741/59 557/742/59
f 557/743/59 558/744/59 560/745/61 559/746/60
f 559/746/60 560/745/61 562/747/63 561/748/62
f 561/748/62 562/747/63 564/749/65 563/750/64
f 563/750/64 564/749/65 566/751/67 565/752/66
f 565/752/66 566/751/67 568/753/69 567/754/68
f 567/754/68 568/753/69 546/755/48 545/756/48
f 569/757/70 570/758/70 572/759/72 571/760/71
f 571/760/71 572/759/72 574/761/74 573/762/73
f 573/762/73 574/761/74 576/763/76 575/764/75
f 575/764/75 576/763/76 578/765/78 577/766/77
f 577/766/77 578/765/78 580/767/80 579/768/79
f 579/768/79 580/767/80 582/769/81 581/770/81
f 581/771/81 582/772/81 584/773/83 583/774/82
f 583/774/82 584/773/83 586/775/85 585/776/84
f 585/776/84 586/775/85 588/777/87 587/778/86
f 587/778/86 588/777/87 590/779/89 589/780/88
f 589/780/88 590/779/89 592/781/91 591/782/90
f 591/782/90 592/781/91 570/783/70 569/784/70
f 593/785/36 594/786/36 596/787/37 595/788/37
f 595/788/37 596/787/37 598/789/38 597/790/38
f 597/790/38 598/789/38 600/791/39 599/792/39
f 599/792/39 600/791/39 602/793/40 601/794/40
f 601/794/40 602/793/40 604/795/41 603/796/41
f 603/796/41 604/795/41 606/797/42 605/798/42
f 605/799/42 606/800/42 608/801/43 607/802/43
f 607/802/43 608/801/43 610/803/44 609/804/44
f 609/804/44 610/803/44 612/805/45 611/806/45
f 611/806/45 612/805/45 614/807/46 613/808/46
f 613/808/46 614/807/46 616/809/47 615/810/47
f 615/810/47 616/809/47 594/811/36 593/812/36
f 617/813/92 618/814/92 620/815/50 619/816/49
f 619/816/49 620/815/50 622/817/94 621/818/51
f 621/818/51 622/817/94 624/819/54 623/820/53
f 623/820/53 624/819/54 626/821/56 625/822/95
f 625/822/95 626/821/56 628/823/58 627/824/57
f 627/824/57 628/823/58 630/825/93 629/826/93
f 629/827/93 630/828/93 632/829/61 631/830/60
f 631/830/60 632/829/61 634/831/63 633/832/62
f 633/832/62 634/831/63 636/833/65 635/834/64
f 635/834/64 636/833/65 638/835/67 637/836/66
f 637/836/66 638/835/67 640/837/69 639/838/68
f 639/838/68 640/837/69 618/839/92 617/840/92
f 641/841/70 642/842/70 644/843/72 643/844/71
f 643/844/71 644/843/72 646/845/96 645/846/73
f 645/846/73 646/845/96 648/847/76 647/848/75
f 647/848/75 648/847/76 650/849/78 649/850/97
f 649/850/97 650/849/78 652/851/80 651/852/98
f 651/852/98 652/851/80 654/853/81 653/854/81
f 653/855/81 654/856/81 656/857/83 655/858/82
f 655/858/82 656/857/83 658/859/85 657/860/99
f 657/860/99 658/859/85 660/861/87 659/862/86
f 659/862/86 660/861/87 662/863/100 661/864/88
f 661/864/88 662/863/100 664/865/91 663/866/90
f 663/866/90 664/865/91 642/867/70 641/868/70
f 665/869/42 667/870/41 668/871/41 666/872/42
f 667/870/41 669/873/40 670/874/40 668/871/41
f 669/873/40 671/875/39 672/876/39 670/874/40
f 671/875/39 673/877/38 674/878/38 672/876/39
f 673/877/38 675/879/37 676/880/37 674/878/38
f 675/879/37 677/881/36 678/882/36 676/880/37
f 677/883/36 679/884/47 680/885/47 678/886/36
f 679/884/47 681/887/46 682/888/46 680/885/47
f 681/887/46 683/889/45 684/890/45 682/888/46
f 683/889/45 685/891/44 686/892/44 684/890/45
f 685/891/44 687/893/43 688/894/43 686/892/44
f 687/893/43 665/895/42 666/896/42 688/894/43
f 689/897/101 691/898/102 692/899/103 690/900/101
f 691/898/102 693/901/104 694/902/105 692/899/103
f 693/901/104 695/903/54 696/904/53 694/902/105
f 695/903/54 697/905/106 698/906/107 696/904/53
f 697/905/106 699/907/108 700/908/109 698/906/107
f 699/907/108 701/909/110 702/910/110 700/908/109
f 701/911/110 703/912/111 704/913/112 702/914/110
f 703/912/111 705/915/113 706/916/114 704/913/112
f 705/915/113 707/917/65 708/918/64 706/916/114
f 707/917/65 709/919/115 710/920/116 708/918/64
f 709/919/115 711/921/117 712/922/118 710/920/116
f 711/921/117 689/923/101 690/924/101 712/922/118
f 713/925/42 715/926/41 716/927/41 714/928/42
f 715/926/41 717/929/40 718/930/40 716/927/41
f 717/929/40 719/931/39 720/932/39 718/930/40
f 719/931/39 721/933/38 722/934/38 720/932/39
f 721/933/38 723/935/37 724/936/37 722/934/38
f 723/935/37 725/937/36 726/938/36 724/936/37
f 725/939/36 727/940/47 728/941/47 726/942/36
f 727/940/47 729/943/46 730/944/46 728/941/47
f 729/943/46 731/945/45 732/946/45 730/944/46
f 731/945/45 733/947/44 734/948/44 732/946/45
f 733/947/44 735/949/43 736/950/43 734/948/44
f 735/949/43 713/951/42 714/952/42 736/950/43
f 737/953/119 739/954/120 740/955/121 738/956/119
f 739/954/120 741/957/122 742/958/123 740/955/121
f 741/957/122 743/959/76 744/960/75 742/958/123
f 743/959/76 745/961/124 746/962/125 744/960/75
f 745/961/124 747/963/126 748/964/127 746/962/125
f 747/963/126 749/965/128 750/966/128 748/964/127
f 749/967/128 751/968/129 752/969/130 750/970/128
f 751/968/129 753/971/131 754/972/132 752/969/130
f 753/971/131 755/973/87 756/974/86 754/972/132
f 755/973/87 757/975/133 758/976/134 756/974/86
f 757/975/133 759/977/135 760/978/136 758/976/134
f 759/977/135 737/979/119 738/980/119 760/978/136
f 761/981/101 763/982/102 764/983/103 762/984/101
f 763/982/102 765/985/104 766/986/105 764/983/103
f 765/985/104 767/987/54 768/988/53 766/986/105
f 767/987/54 769/989/106 770/990/107 768/988/53
f 769/989/106 771/991/108 772/992/109 770/990/107
f 771/991/108 773/993/110 774/994/110 772/992/109
f 773/995/110 775/996/111 776/997/112 774/998/110
f 775/996/111 777/999/113 778/1000/114 776/997/112
f 777/999/113 779/1001/65 780/1002/64 778/1000/114
f 779/1001/65 781/1003/115 782/1004/137 780/1002/64
f 781/1003/115 783/1005/117 784/1006/118 782/1004/137
f 783/1005/117 761/1007/101 762/1008/101 784/1006/118
f 785/1009/42 787/1010/41 788/1011/41 786/1012/42
f 787/1010/41 789/1013/40 790/1014/40 788/1011/41
f 789/1013/40 791/1015/39 792/1016/39 790/1014/40
f 791/1015/39 793/1017/38 794/1018/38 792/1016/39
f 793/1017/38 795/1019/37 796/1020/37 794/1018/38
f 795/1019/37 797/1021/36 798/1022/36 796/1020/37
f 797/1023/36 799/1024/47 800/1025/47 798/1026/36
f 799/1024/47 801/1027/46 802/1028/46 800/1025/47
f 801/1027/46 803/1029/45 804/1030/45 802/1028/46
f 803/1029/45 805/1031/44 806/1032/44 804/1030/45
f 805/1031/44 807/1033/43 808/1034/43 806/1032/44
f 807/1033/43 785/1035/42 786/1036/42 808/1034/43
f 809/1037/119 811/1038/120 812/1039/121 810/1040/119
f 811/1038/120 813/1041/122 814/1042/123 812/1039/121
f 813/1041/122 815/1043/76 816/1044/75 814/1042/123
f 815/1043/76 817/1045/124 818/1046/125 816/1044/75
f 817/1045/124 819/1047/126 820/1048/127 818/1046/125
f 819/1047/126 821/1049/138 822/1050/138 820/1048/127
f 821/1051/138 823/1052/129 824/1053/130 822/1054/138
f 823/1052/129 825/1055/131 826/1056/132 824/1053/130
f 825/1055/131 827/1057/87 828/1058/86 826/1056/132
f 827/1057/87 829/1059/133 830/1060/134 828/1058/86
f 829/1059/133 831/1061/135 832/1062/136 830/1060/134
f 831/1061/135 809/1063/119 810/1064/119 832/1062/136
f 833/1065/101 835/1066/102 836/1067/103 834/1068/101
f 835/1066/102 837/1069/104 838/1070/105 836/1067/103
f 837/1069/104 839/1071/54 840/1072/53 838/1070/105
f 839/1071/54 841/1073/106 842/1074/107 840/1072/53
f 841/1073/106 843/1075/108 844/1076/109 842/1074/107
f 843/1075/108 845/1077/110 846/1078/110 844/1076/109
f 845/1079/110 847/1080/111 848/1081/112 846/1082/110
f 847/1080/111 849/1083/113 850/1084/114 848/1081/112
f 849/1083/113 851/1085/65 852/1086/64 850/1084/114
f 851/1085/65 853/1087/115 854/1088/137 852/1086/64
f 853/1087/115 855/1089/117 856/1090/118 854/1088/137
f 855/1089/117 833/1091/101 834/1092/101 856/1090/118
f 857/1093/42 859/1094/41 860/1095/41 858/1096/42
f 859/1094/41 861/1097/40 862/1098/40 860/1095/41
f 861/1097/40 863/1099/39 864/1100/39 862/1098/40
f 863/1099/39 865/1101/38 866/1102/38 864/1100/39
f 865/1101/38 867/1103/37 868/1104/37 866/1102/38
f 867/1103/37 869/1023/36 870/1105/36 868/1104/37
f 869/1106/36 871/1107/47 872/1108/47 870/1109/36
f 871/1107/47 873/1110/46 874/1111/46 872/1108/47
f 873/1110/46 875/1112/45 876/1113/45 874/1111/46
f 875/1112/45 877/1114/44 878/1115/44 876/1113/45
f 877/1114/44 879/1116/43 880/1117/43 878/1115/44
f 879/1116/43 857/1118/42 858/1119/42 880/1117/43
f 881/1120/139 883/1121/120 884/1122/121 882/1123/139
f 883/1121/120 885/1124/122 886/1125/123 884/1122/121
f 885/1124/122 887/1126/76 888/1127/75 886/1125/123
f 887/1126/76 889/1128/124 890/1129/125 888/1127/75
f 889/1128/124 891/1130/126 892/1131/127 890/1129/125
f 891/1130/126 893/1132/128 894/1133/128 892/1131/127
f 893/1134/128 895/1135/129 896/1136/130 894/1137/128
f 895/1135/129 897/1138/131 898/1139/132 896/1136/130
f 897/1138/131 899/1140/87 900/1141/86 898/1139/132
f 899/1140/87 901/1142/133 902/1143/134 900/1141/86
f 901/1142/133 903/1144/135 904/1145/136 902/1143/134
f 903/1144/135 881/1146/139 882/1147/139 904/1145/136
f 905/1148/101 907/1149/102 908/1150/103 906/1151/101
f 907/1149/102 909/1152/104 910/1153/105 908/1150/103
f 909/1152/104 911/1154/54 912/1155/53 910/1153/105
f 911/1154/54 913/1156/106 914/1157/107 912/1155/53
f 913/1156/106 915/1158/108 916/1159/109 914/1157/107
f 915/1158/108 917/1160/110 918/1161/110 916/1159/109
f 917/1162/110 919/1163/111 920/1164/112 918/1165/110
f 919/1163/111 921/1166/113 922/1167/114 920/1164/112
f 921/1166/113 923/1168/65 924/1169/64 922/1167/114
f 923/1168/65 925/1170/115 926/1171/137 924/1169/64
f 925/1170/115 927/1172/117 928/1173/118 926/1171/137
f 927/1172/117 905/1174/101 906/1175/101 928/1173/118
f 929/1176/42 931/1177/41 932/1178/41 930/1179/42
f 931/1177/41 933/1180/40 934/1181/40 932/1178/41
f 933/1180/40 935/1182/39 936/1183/39 934/1181/40
f 935/1182/39 937/1184/38 938/1185/38 936/1183/39
f 937/1184/38 939/1186/37 940/1187/37 938/1185/38
f 939/1186/37 941/1188/36 942/1189/36 940/1187/37
f 941/1190/36 943/1191/47 944/1192/47 942/1193/36
f 943/1191/47 945/1194/46 946/1195/46 944/1192/47
f 945/1194/46 947/1196/45 948/1197/45 946/1195/46
f 947/1196/45 949/1198/44 950/1199/44 948/1197/45
f 949/1198/44 951/1200/43 952/1201/43 950/1199/44
f 951/1200/43 929/1202/42 930/1203/42 952/1201/43
f 953/1204/119 955/1205/120 956/1206/121 954/1207/119
f 955/1205/120 957/1208/122 958/1209/140 956/1206/121
f 957/1208/122 959/1210/76 960/1211/75 958/1209/140
f 959/1210/76 961/1212/141 962/1213/125 960/1211/75
f 961/1212/141 963/1214/126 964/1215/127 962/1213/125
f 963/1214/126 965/1216/138 966/1217/138 964/1215/127
f 965/1218/138 967/1219/129 968/1220/130 966/1221/138
f 967/1219/129 969/1222/131 970/1223/132 968/1220/130
f 969/1222/131 971/1224/87 972/1225/86 970/1223/132
f 971/1224/87 973/1226/133 974/1227/134 972/1225/86
f 973/1226/133 975/1228/135 976/1229/136 974/1227/134
f 975/1228/135 953/1230/119 954/1231/119 976/1229/136
f 977/1232/101 979/1233/102 980/1234/103 978/1235/101
f 979/1233/102 981/1236/104 982/1237/142 980/1234/103
f 981/1236/104 983/1238/54 984/1239/53 982/1237/142
f 983/1238/54 985/1240/143 986/1241/107 984/1239/53
f 985/1240/143 987/1242/108 988/1243/109 986/1241/107
f 987/1242/108 989/1244/110 990/1245/110 988/1243/109
f 989/1246/110 991/1247/111 992/1248/112 990/1249/110
f 991/1247/111 993/1250/144 994/1251/114 992/1248/112
f 993/1250/144 995/1252/65 996/1253/64 994/1251/114
f 995/1252/65 997/1254/115 998/1255/145 996/1253/64
f 997/1254/115 999/1256/117 1000/1257/118 998/1255/145
f 999/1256/117 977/1258/101 978/1259/101 1000/1257/118
f 233/1260/12 255/1261/14 1001/1262/39
f 255/1261/14 253/1263/16 1001/1262/39
f 253/1263/16 251/1264/18 1001/1262/39
f 251/1264/18 249/1265/20 1001/1262/39
f 249/1265/20 247/1266/22 1001/1262/39
f 247/1266/22 245/1267/24 1001/1262/39
f 245/1267/24 243/1268/26 1001/1262/39
f 243/1268/26 241/1269/28 1001/1262/39
f 241/1269/28 239/1270/30 1001/1262/39
f 239/1270/30 237/1271/32 1001/1262/39
f 237/1271/32 235/1272/34 1001/1262/39
f 235/1272/34 233/1260/12 1001/1262/39
f 180/1273/31 178/1274/29 1002/381/45 182/380/33
f 176/1275/27 174/1276/25 1002/381/45 178/1274/29
f 172/1277/23 170/1278/21 1002/381/45 174/1276/25
f 168/1279/19 166/1280/17 1002/381/45 170/1278/21
f 234/1281/13 236/1282/35 238/340/33 1005/339/45
f 204/1283/31 202/1284/29 1003/267/45 206/266/33
f 200/1285/27 198/1286/25 1003/267/45 202/1284/29
f 196/1287/23 194/1288/21 1003/267/45 198/1286/25
f 192/1289/19 190/1290/17 1003/267/45 194/1288/21
f 228/1291/31 226/1292/29 1004/303/45 230/302/33
f 224/1293/27 222/1294/25 1004/303/45 226/1292/29
f 220/1295/23 218/1296/21 1004/303/45 222/1294/25
f 216/1297/19 214/1298/17 1004/303/45 218/1296/21
f 166/1280/17 164/1299/15 162/382/13 1002/381/45
f 244/1300/27 246/1301/25 1005/339/45 242/338/29
f 248/1302/23 250/1303/21 1005/339/45 246/1301/25
f 252/1304/19 254/1305/17 1005/339/45 250/1303/21
f 256/1306/15 234/1281/13 1005/339/45 254/1305/17
f 282/1307/13 284/1308/35 286/422/33 1008/421/45
f 268/1309/27 270/1310/25 1006/373/45 266/372/29
f 272/1311/23 274/1312/21 1006/373/45 270/1310/25
f 276/1313/19 278/1314/17 1006/373/45 274/1312/21
f 280/1315/15 258/1316/13 1006/373/45 278/1314/17
f 279/1317/14 277/414/16 1007/413/39 257/1318/12
f 271/1319/22 269/1320/24 1007/413/39 273/412/20
f 201/1321/28 203/1322/30 205/1323/32 1010/1324/39
f 267/1325/26 265/1326/28 1007/413/39 269/1320/24
f 227/1327/30 229/1328/32 1011/1329/39 225/1330/28
f 263/1331/30 261/1332/32 1007/413/39 265/1326/28
f 197/1333/24 199/1334/26 201/1321/28 1010/1324/39
f 259/1335/34 257/1318/12 1007/413/39 261/1332/32
f 213/1336/16 215/1337/18 217/1338/20 1011/1329/39
f 303/1339/14 301/449/16 1009/448/39 281/1340/12
f 193/1341/20 195/1342/22 197/1333/24 1010/1324/39
f 292/1343/27 294/1344/25 1008/421/45 290/420/29
f 296/1345/23 298/1346/21 1008/421/45 294/1344/25
f 300/1347/19 302/1348/17 1008/421/45 298/1346/21
f 304/1349/15 282/1307/13 1008/421/45 302/1348/17
f 258/1316/13 260/1350/35 262/374/33 1006/373/45
f 179/1351/30 181/1352/32 1012/1353/39 177/1354/28
f 295/1355/22 293/1356/24 1009/448/39 297/447/20
f 189/1357/16 191/1358/18 193/1341/20 1010/1324/39
f 291/1359/26 289/1360/28 1009/448/39 293/1356/24
f 211/1361/14 213/1336/16 1011/1329/39 209/1362/12
f 287/1363/30 285/1364/32 1009/448/39 289/1360/28
f 187/1365/14 189/1357/16 1010/1324/39 185/1366/12
f 283/1367/34 281/1340/12 1009/448/39 285/1364/32
f 165/1368/16 167/1369/18 169/1370/20 1012/1353/39
f 223/1371/26 225/1330/28 1011/1329/39 221/1372/24
f 190/1290/17 188/1373/15 186/268/13 1003/267/45
f 214/1298/17 212/1374/15 210/304/13 1004/303/45
f 205/1323/32 207/1375/34 185/1366/12 1010/1324/39
f 163/1376/14 165/1368/16 1012/1353/39 161/1377/12
f 231/1378/34 209/1362/12 1011/1329/39 229/1328/32
f 175/1379/26 177/1354/28 1012/1353/39 173/1380/24
f 217/1338/20 219/1381/22 221/1372/24 1011/1329/39
f 183/1382/34 161/1377/12 1012/1353/39 181/1352/32
f 169/1370/20 171/1383/22 173/1380/24 1012/1353/39
f 1013/1384/119 1015/1385/120 1016/1386/121 1014/1387/119
f 1015/1385/120 1017/1388/122 1018/1389/123 1016/1386/121
f 1017/1388/122 1019/1390/76 1020/1391/75 1018/1389/123
f 1019/1390/76 1021/1392/124 1022/1393/125 1020/1391/75
f 1021/1392/124 1023/1394/126 1024/1395/127 1022/1393/125
f 1023/1394/126 1025/1396/138 1026/1397/138 1024/1395/127
f 1025/1398/138 1027/1399/129 1028/1400/130 1026/1401/138
f 1027/1399/129 1029/1402/131 1030/1403/132 1028/1400/130
f 1029/1402/131 1031/1404/87 1032/1405/86 1030/1403/132
f 1031/1404/87 1033/1406/133 1034/1407/134 1032/1405/86
f 1033/1406/133 1035/1408/135 1036/1409/136 1034/1407/134
f 1035/1408/135 1013/1410/119 1014/1411/119 1036/1409/136
