# Blender 5.0.1
# www.blender.org
mtllib tank.mtl
o Cylinder
v 2.833099 -0.975200 -0.866972
v 2.833099 0.967524 -0.994860
v 2.998418 -0.975200 -0.850689
v 3.023368 0.967524 -0.976120
v 3.157384 -0.975200 -0.802468
v 3.206324 0.967524 -0.920621
v 3.303887 -0.975200 -0.724160
v 3.374938 0.967524 -0.830495
v 3.432299 -0.975200 -0.618775
v 3.522729 0.967524 -0.709206
v 3.537683 -0.975200 -0.490364
v 3.644018 0.967524 -0.561415
v 3.615991 -0.975200 -0.343860
v 3.734144 0.967524 -0.392801
v 3.664213 -0.975200 -0.184894
v 3.789644 0.967524 -0.209845
v 3.680496 -0.975200 -0.019576
v 3.808383 0.967525 -0.019576
v 3.664213 -0.975200 0.145743
v 3.789644 0.967525 0.170692
v 3.615991 -0.975200 0.304709
v 3.734144 0.967525 0.353649
v 3.537683 -0.975200 0.451212
v 3.644018 0.967525 0.522263
v 3.432299 -0.975200 0.579624
v 3.522729 0.967525 0.670054
v 3.303887 -0.975200 0.685009
v 3.374938 0.967525 0.791343
v 3.157384 -0.975200 0.763316
v 3.206324 0.967525 0.881469
v 2.998418 -0.975200 0.811538
v 3.023368 0.967525 0.936968
v 2.833099 -0.975200 0.827820
v 2.833099 0.967525 0.955708
v 2.667781 -0.975200 0.811538
v 2.642831 0.967525 0.936968
v 2.508815 -0.975200 0.763316
v 2.459874 0.967525 0.881469
v 2.362311 -0.975200 0.685009
v 2.291261 0.967525 0.791343
v 2.233900 -0.975200 0.579624
v 2.143469 0.967525 0.670054
v 2.128515 -0.975200 0.451212
v 2.022181 0.967525 0.522262
v 2.050207 -0.975200 0.304709
v 1.932055 0.967525 0.353649
v 2.001986 -0.975200 0.145743
v 1.876555 0.967525 0.170692
v 1.985703 -0.975200 -0.019576
v 1.857816 0.967525 -0.019576
v 2.001986 -0.975200 -0.184894
v 1.876555 0.967524 -0.209845
v 2.050207 -0.975200 -0.343860
v 1.932055 0.967524 -0.392801
v 2.128515 -0.975200 -0.490364
v 2.022181 0.967524 -0.561415
v 2.233900 -0.975200 -0.618775
v 2.143469 0.967524 -0.709206
v 2.362311 -0.975200 -0.724160
v 2.291261 0.967524 -0.830495
v 2.508815 -0.975200 -0.802468
v 2.459874 0.967524 -0.920621
v 2.667781 -0.975200 -0.850689
v 2.642831 0.967524 -0.976120
v 2.833099 -0.984523 -0.866358
v 2.833099 0.980313 -0.995702
v 2.998298 -0.984523 -0.850087
v 3.023532 0.980313 -0.976946
v 3.157149 -0.984523 -0.801901
v 3.206646 0.980313 -0.921399
v 3.303546 -0.984523 -0.723650
v 3.375406 0.980313 -0.831195
v 3.431865 -0.984523 -0.618341
v 3.523324 0.980313 -0.709801
v 3.537173 -0.984523 -0.490023
v 3.644718 0.980313 -0.561883
v 3.615424 -0.984523 -0.343625
v 3.734922 0.980313 -0.393123
v 3.663611 -0.984523 -0.184775
v 3.790469 0.980313 -0.210009
v 3.679882 -0.984523 -0.019576
v 3.809225 0.980313 -0.019576
v 3.663611 -0.984523 0.145623
v 3.790469 0.980313 0.170856
v 3.615424 -0.984523 0.304474
v 3.734922 0.980313 0.353971
v 3.537173 -0.984523 0.450871
v 3.644718 0.980313 0.522730
v 3.431865 -0.984523 0.579190
v 3.523324 0.980313 0.670649
v 3.303546 -0.984523 0.684498
v 3.375406 0.980313 0.792043
v 3.157149 -0.984523 0.762749
v 3.206646 0.980313 0.882246
v 2.998298 -0.984523 0.810936
v 3.023532 0.980313 0.937794
v 2.833099 -0.984523 0.827207
v 2.833099 0.980313 0.956549
v 2.667900 -0.984523 0.810936
v 2.642667 0.980313 0.937794
v 2.509050 -0.984523 0.762749
v 2.459552 0.980313 0.882246
v 2.362652 -0.984523 0.684498
v 2.290793 0.980313 0.792043
v 2.234334 -0.984523 0.579190
v 2.142874 0.980313 0.670649
v 2.129025 -0.984523 0.450871
v 2.021480 0.980313 0.522730
v 2.050775 -0.984523 0.304474
v 1.931277 0.980313 0.353971
v 2.002588 -0.984523 0.145623
v 1.875730 0.980313 0.170856
v 1.986317 -0.984523 -0.019576
v 1.856974 0.980313 -0.019576
v 2.002588 -0.984523 -0.184775
v 1.875730 0.980313 -0.210009
v 2.050775 -0.984523 -0.343625
v 1.931277 0.980313 -0.393123
v 2.129025 -0.984523 -0.490023
v 2.021481 0.980313 -0.561883
v 2.234334 -0.984523 -0.618341
v 2.142874 0.980313 -0.709801
v 2.362652 -0.984523 -0.723650
v 2.290793 0.980313 -0.831195
v 2.509050 -0.984523 -0.801901
v 2.459552 0.980313 -0.921399
v 2.667900 -0.984523 -0.850087
v 2.642667 0.980313 -0.976946
v 2.833099 -0.984523 -0.850910
v 2.833099 0.984816 -0.987798
v 2.995285 -0.984523 -0.834936
v 3.021990 0.984816 -0.969194
v 3.151237 -0.984523 -0.787629
v 3.203622 0.984816 -0.914097
v 3.294964 -0.984523 -0.710805
v 3.371015 0.984816 -0.824623
v 3.420942 -0.984523 -0.607418
v 3.517736 0.984816 -0.704213
v 3.524329 -0.984523 -0.481440
v 3.638147 0.984816 -0.557492
v 3.601152 -0.984523 -0.337714
v 3.727620 0.984816 -0.390099
v 3.648460 -0.984523 -0.181761
v 3.782717 0.984816 -0.208467
v 3.664434 -0.984523 -0.019576
v 3.801322 0.984816 -0.019576
v 3.648460 -0.984523 0.142610
v 3.782717 0.984816 0.169315
v 3.601152 -0.984523 0.298562
v 3.727620 0.984816 0.350946
v 3.524329 -0.984523 0.442289
v 3.638147 0.984816 0.518339
v 3.420942 -0.984523 0.568267
v 3.517736 0.984816 0.665060
v 3.294964 -0.984523 0.671654
v 3.371015 0.984816 0.785471
v 3.151237 -0.984523 0.748477
v 3.203622 0.984816 0.874944
v 2.995285 -0.984523 0.795785
v 3.021990 0.984816 0.930042
v 2.833099 -0.984523 0.811759
v 2.833099 0.984816 0.948646
v 2.670914 -0.984523 0.795785
v 2.644209 0.984816 0.930042
v 2.514961 -0.984523 0.748477
v 2.462577 0.984816 0.874944
v 2.371235 -0.984523 0.671654
v 2.295184 0.984816 0.785471
v 2.245257 -0.984523 0.568267
v 2.148463 0.984816 0.665060
v 2.141870 -0.984523 0.442289
v 2.028052 0.984816 0.518339
v 2.065047 -0.984523 0.298562
v 1.938579 0.984816 0.350946
v 2.017739 -0.984523 0.142610
v 1.883481 0.984816 0.169315
v 2.001765 -0.984523 -0.019576
v 1.864877 0.984816 -0.019576
v 2.017739 -0.984523 -0.181761
v 1.883481 0.984816 -0.208467
v 2.065047 -0.984523 -0.337714
v 1.938579 0.984816 -0.390099
v 2.141870 -0.984523 -0.481440
v 2.028052 0.984816 -0.557492
v 2.245257 -0.984523 -0.607418
v 2.148463 0.984816 -0.704213
v 2.371235 -0.984523 -0.710805
v 2.295184 0.984816 -0.824624
v 2.514961 -0.984523 -0.787629
v 2.462577 0.984816 -0.914097
v 2.670914 -0.984523 -0.834936
v 2.644209 0.984816 -0.969194
v 2.833099 0.984816 -0.908761
v 3.006571 0.984816 -0.891676
v 3.173376 0.984816 -0.841076
v 3.327104 0.984816 -0.758906
v 3.461848 0.984816 -0.648325
v 3.572430 0.984816 -0.513581
v 3.654599 0.984816 -0.359853
v 3.705199 0.984816 -0.193048
v 3.722284 0.984816 -0.019576
v 3.705199 0.984816 0.153895
v 3.654599 0.984816 0.320700
v 3.572430 0.984816 0.474428
v 3.461848 0.984816 0.609172
v 3.327104 0.984816 0.719754
v 3.173376 0.984816 0.801924
v 3.006571 0.984816 0.852523
v 2.833099 0.984816 0.869609
v 2.659628 0.984816 0.852523
v 2.492823 0.984816 0.801924
v 2.339095 0.984816 0.719754
v 2.204351 0.984816 0.609172
v 2.093769 0.984816 0.474428
v 2.011600 0.984816 0.320700
v 1.961000 0.984816 0.153895
v 1.943914 0.984816 -0.019576
v 1.961000 0.984816 -0.193048
v 2.011600 0.984816 -0.359853
v 2.093769 0.984816 -0.513581
v 2.204351 0.984816 -0.648325
v 2.339095 0.984816 -0.758906
v 2.492823 0.984816 -0.841076
v 2.659628 0.984816 -0.891676
v 2.816744 -0.984523 -0.771736
v 2.970382 -0.984523 -0.754582
v 3.118618 -0.984523 -0.708877
v 3.255754 -0.984523 -0.636377
v 3.376523 -0.984523 -0.539868
v 3.476281 -0.984523 -0.423059
v 3.547998 -0.984523 -0.315986
v 3.572363 -0.984523 -0.190826
v 3.583507 -0.984523 -0.038404
v 3.565497 -0.984523 0.115503
v 3.519180 -0.984523 0.264608
v 3.446498 -0.984523 0.402792
v 3.350404 -0.984523 0.524356
v 3.234746 -0.984523 0.624255
v 3.129015 -0.984523 0.695528
v 3.002591 -0.984523 0.720528
v 2.849455 -0.984523 0.732585
v 2.695817 -0.984523 0.715431
v 2.547581 -0.984523 0.669726
v 2.410444 -0.984523 0.597226
v 2.289676 -0.984523 0.500717
v 2.189918 -0.984523 0.383908
v 2.118201 -0.984523 0.276835
v 2.093836 -0.984523 0.151674
v 2.082692 -0.984523 -0.000747
v 2.100702 -0.984523 -0.154655
v 2.147019 -0.984523 -0.303760
v 2.219701 -0.984523 -0.441944
v 2.315795 -0.984523 -0.563508
v 2.431453 -0.984523 -0.663406
v 2.537183 -0.984523 -0.734679
v 2.663607 -0.984523 -0.759679
v 3.475500 -0.984523 -0.291394
v 3.357801 -0.984523 -0.405276
v 3.219285 -0.984523 -0.502759
v 3.065274 -0.984523 -0.580095
v 2.901687 -0.984523 -0.634312
v 2.734811 -0.984523 -0.663328
v 2.571058 -0.984523 -0.666026
v 3.468153 -0.984523 -0.131498
v 3.328862 -0.984523 -0.237490
v 3.169709 -0.984523 -0.333153
v 2.996812 -0.984523 -0.414812
v 2.816813 -0.984523 -0.479328
v 2.636631 -0.984523 -0.524221
v 2.463190 -0.984523 -0.547767
v 3.434587 -0.984523 0.037078
v 3.277658 -0.984523 -0.053574
v 3.103124 -0.984523 -0.141663
v 2.917693 -0.984523 -0.223804
v 2.728492 -0.984523 -0.296841
v 2.542790 -0.984523 -0.357966
v 2.367724 -0.984523 -0.404831
v 3.376981 -0.984523 0.205708
v 3.207732 -0.984523 0.135602
v 3.024085 -0.984523 0.059533
v 2.833099 -0.984523 -0.019576
v 2.642113 -0.984523 -0.098685
v 2.458467 -0.984523 -0.174754
v 2.289217 -0.984523 -0.244859
v 3.298475 -0.984523 0.365680
v 3.123409 -0.984523 0.318815
v 2.937707 -0.984523 0.257689
v 2.748505 -0.984523 0.184653
v 2.563075 -0.984523 0.102511
v 2.388541 -0.984523 0.014423
v 2.231612 -0.984523 -0.076229
v 3.203009 -0.984523 0.508615
v 3.029567 -0.984523 0.485070
v 2.849385 -0.984523 0.440176
v 2.669387 -0.984523 0.375661
v 2.496490 -0.984523 0.294002
v 2.337337 -0.984523 0.198339
v 2.198046 -0.984523 0.092346
v 3.095141 -0.984523 0.626875
v 2.931388 -0.984523 0.624177
v 2.764512 -0.984523 0.595161
v 2.600925 -0.984523 0.540944
v 2.446914 -0.984523 0.463608
v 2.308397 -0.984523 0.366125
v 2.190698 -0.984523 0.252242
v 2.833099 0.973077 -0.900395
v 3.004939 0.973077 -0.883470
v 3.170174 0.973077 -0.833347
v 3.322456 0.973077 -0.751950
v 3.455932 0.973077 -0.642409
v 3.565474 0.973077 -0.508933
v 3.646870 0.973077 -0.356651
v 3.696994 0.973077 -0.191415
v 3.713918 0.973077 -0.019576
v 3.696994 0.973077 0.152263
v 3.646870 0.973077 0.317499
v 3.565474 0.973077 0.469781
v 3.455932 0.973078 0.603257
v 3.322456 0.973078 0.712798
v 3.170174 0.973078 0.794194
v 3.004939 0.973078 0.844318
v 2.833099 0.973078 0.861243
v 2.661260 0.973078 0.844318
v 2.496025 0.973078 0.794194
v 2.343743 0.973078 0.712798
v 2.210266 0.973078 0.603257
v 2.100725 0.973077 0.469781
v 2.019329 0.973077 0.317499
v 1.969205 0.973077 0.152263
v 1.952280 0.973077 -0.019576
v 1.969205 0.973077 -0.191415
v 2.019329 0.973077 -0.356651
v 2.100725 0.973077 -0.508933
v 2.210266 0.973077 -0.642409
v 2.343743 0.973077 -0.751950
v 2.496025 0.973077 -0.833347
v 2.661260 0.973077 -0.883471
v 2.833099 -0.455185 -0.794835
v 2.984345 -0.455185 -0.779938
v 3.129778 -0.455185 -0.735821
v 3.263810 -0.455185 -0.664180
v 3.381290 -0.455185 -0.567766
v 3.477703 -0.455185 -0.450287
v 3.549345 -0.455184 -0.316254
v 3.593462 -0.455184 -0.170821
v 3.608358 -0.455184 -0.019576
v 3.593462 -0.455184 0.131670
v 3.549345 -0.455184 0.277103
v 3.477703 -0.455184 0.411135
v 3.381290 -0.455184 0.528615
v 3.263810 -0.455184 0.625028
v 3.129778 -0.455184 0.696670
v 2.984345 -0.455184 0.740786
v 2.833099 -0.455184 0.755683
v 2.681854 -0.455184 0.740786
v 2.536421 -0.455184 0.696670
v 2.402389 -0.455184 0.625028
v 2.284909 -0.455184 0.528615
v 2.188495 -0.455184 0.411135
v 2.116854 -0.455184 0.277103
v 2.072737 -0.455184 0.131670
v 2.057841 -0.455184 -0.019576
v 2.072737 -0.455184 -0.170821
v 2.116854 -0.455184 -0.316254
v 2.188495 -0.455185 -0.450286
v 2.284909 -0.455185 -0.567766
v 2.402389 -0.455185 -0.664180
v 2.536421 -0.455185 -0.735821
v 2.681854 -0.455185 -0.779938
v 2.847977 -0.733601 -0.704004
v 2.987321 -0.733601 -0.693032
v 3.102414 -0.733601 -0.670395
v 3.198583 -0.733601 -0.605423
v 3.303825 -0.733601 -0.514522
v 3.391265 -0.733601 -0.403908
v 3.457401 -0.733601 -0.278170
v 3.499546 -0.733601 -0.142495
v 3.515933 -0.733601 -0.002449
v 3.505792 -0.733601 0.136245
v 3.483733 -0.733601 0.250189
v 3.418356 -0.733601 0.347579
v 3.327583 -0.733601 0.453868
v 3.217692 -0.733601 0.541685
v 3.092907 -0.733601 0.607656
v 2.958023 -0.733601 0.649244
v 2.818222 -0.733601 0.664852
v 2.678878 -0.733601 0.653880
v 2.563784 -0.733601 0.631244
v 2.467616 -0.733601 0.566271
v 2.362374 -0.733601 0.475371
v 2.274934 -0.733601 0.364756
v 2.208798 -0.733601 0.239018
v 2.166653 -0.733601 0.103343
v 2.150266 -0.733601 -0.036702
v 2.160407 -0.733601 -0.175396
v 2.182466 -0.733601 -0.289340
v 2.247843 -0.733601 -0.386730
v 2.338616 -0.733601 -0.493020
v 2.448506 -0.733601 -0.580837
v 2.573292 -0.733601 -0.646807
v 2.708176 -0.733601 -0.688396
v 2.248766 -0.733601 -0.266824
v 2.355826 -0.733601 -0.370413
v 2.481822 -0.733601 -0.459084
v 2.621911 -0.733601 -0.529429
v 2.770711 -0.733601 -0.578746
v 2.922504 -0.733601 -0.605138
v 3.071455 -0.733601 -0.607593
v 2.255450 -0.733601 -0.121381
v 2.382150 -0.733601 -0.217792
v 2.526916 -0.733601 -0.304809
v 2.684185 -0.733601 -0.379086
v 2.847913 -0.733601 -0.437770
v 3.011809 -0.733601 -0.478606
v 3.169572 -0.733601 -0.500023
v 2.285981 -0.733601 0.031957
v 2.428725 -0.733601 -0.050501
v 2.587482 -0.733601 -0.130627
v 2.756152 -0.733601 -0.205344
v 2.928252 -0.733601 -0.271778
v 3.097167 -0.733601 -0.327379
v 3.256409 -0.733601 -0.370008
v 2.338380 -0.733601 0.185344
v 2.492331 -0.733601 0.121575
v 2.659377 -0.733601 0.052382
v 2.833099 -0.733601 -0.019576
v 3.006822 -0.733601 -0.091534
v 3.173868 -0.733601 -0.160727
v 3.327819 -0.733601 -0.224495
v 2.409790 -0.733601 0.330856
v 2.569031 -0.733601 0.288227
v 2.737947 -0.733601 0.232627
v 2.910047 -0.733601 0.166192
v 3.078716 -0.733601 0.091476
v 3.237473 -0.733601 0.011349
v 3.380217 -0.733601 -0.071108
v 2.496626 -0.733601 0.460872
v 2.654390 -0.733601 0.439454
v 2.818285 -0.733601 0.398619
v 2.982013 -0.733601 0.339935
v 3.139283 -0.733601 0.265657
v 3.284049 -0.733601 0.178641
v 3.410749 -0.733601 0.082229
v 2.594744 -0.733601 0.568441
v 2.743695 -0.733601 0.565987
v 2.895487 -0.733601 0.539594
v 3.044287 -0.733601 0.490277
v 3.184377 -0.733601 0.419932
v 3.310373 -0.733601 0.331261
v 3.417433 -0.733601 0.227672
v 2.176407 0.998325 0.637116
v 2.317139 0.998325 0.752612
v 2.060911 0.998325 -0.535536
v 1.975089 0.998325 -0.374976
v 3.743958 0.998325 -0.200757
v 3.691110 0.998325 -0.374976
v 3.188499 0.998325 0.838434
v 3.349060 0.998325 0.752612
v 2.060911 0.998325 0.496384
v 3.014280 0.998325 -0.930435
v 2.833099 0.998325 -0.948280
v 2.176407 0.998325 -0.676269
v 3.761803 0.998325 -0.019576
v 3.014280 0.998325 0.891282
v 1.975089 0.998325 0.335823
v 3.188499 0.998325 -0.877586
v 2.317139 0.998325 -0.791765
v 3.743958 0.998325 0.161605
v 2.833099 0.998325 0.909127
v 1.922241 0.998325 0.161605
v 3.349059 0.998325 -0.791765
v 2.477700 0.998325 -0.877586
v 3.691109 0.998325 0.335823
v 2.651918 0.998325 0.891282
v 1.904396 0.998325 -0.019576
v 3.489792 0.998325 -0.676269
v 2.651918 0.998325 -0.930435
v 3.605288 0.998325 0.496384
v 2.477700 0.998325 0.838434
v 1.922241 0.998325 -0.200757
v 3.605288 0.998325 -0.535536
v 3.489792 0.998325 0.637116
v 2.833099 -0.632546 -0.889529
v 3.002819 -0.632546 -0.872813
v 3.166016 -0.632546 -0.823307
v 3.316419 -0.632546 -0.742915
v 3.448249 -0.632546 -0.634725
v 3.556439 -0.632546 -0.502896
v 3.636831 -0.632546 -0.352492
v 3.686336 -0.632546 -0.189295
v 3.703052 -0.632545 -0.019576
v 3.686336 -0.632545 0.150144
v 3.636831 -0.632545 0.313341
v 3.556439 -0.632545 0.463744
v 3.448249 -0.632545 0.595574
v 3.316419 -0.632545 0.703764
v 3.166016 -0.632545 0.784156
v 3.002819 -0.632545 0.833661
v 2.833099 -0.632545 0.850377
v 2.663380 -0.632545 0.833661
v 2.500183 -0.632545 0.784156
v 2.349779 -0.632545 0.703763
v 2.217950 -0.632545 0.595574
v 2.109760 -0.632545 0.463744
v 2.029368 -0.632545 0.313341
v 1.979863 -0.632545 0.150144
v 1.963147 -0.632545 -0.019576
v 1.979863 -0.632546 -0.189295
v 2.029368 -0.632546 -0.352492
v 2.109760 -0.632546 -0.502896
v 2.217950 -0.632546 -0.634725
v 2.349779 -0.632546 -0.742915
v 2.500183 -0.632546 -0.823307
v 2.663380 -0.632546 -0.872813
v 2.833099 0.611009 -0.971391
v 3.018789 0.611009 -0.953102
v 3.197343 0.611009 -0.898938
v 3.361899 0.611009 -0.810981
v 3.506134 0.611009 -0.692611
v 3.624505 0.611009 -0.548376
v 3.712461 0.611009 -0.383820
v 3.766625 0.611009 -0.205266
v 3.784914 0.611009 -0.019576
v 3.766625 0.611010 0.166114
v 3.712461 0.611010 0.344668
v 3.624505 0.611010 0.509224
v 3.506134 0.611010 0.653459
v 3.361899 0.611010 0.771829
v 3.197343 0.611010 0.859786
v 3.018789 0.611010 0.913950
v 2.833099 0.611010 0.932239
v 2.647409 0.611010 0.913950
v 2.468855 0.611010 0.859786
v 2.304299 0.611010 0.771829
v 2.160065 0.611010 0.653459
v 2.041694 0.611010 0.509224
v 1.953737 0.611010 0.344668
v 1.899573 0.611010 0.166114
v 1.881284 0.611009 -0.019576
v 1.899573 0.611009 -0.205266
v 1.953737 0.611009 -0.383820
v 2.041694 0.611009 -0.548376
v 2.160065 0.611009 -0.692611
v 2.304299 0.611009 -0.810981
v 2.468855 0.611009 -0.898938
v 2.647409 0.611009 -0.953102
v 3.677733 0.665717 -0.187584
v 3.628727 0.665717 -0.349136
v 2.117053 0.665718 0.458871
v 2.224152 0.665718 0.589371
v 3.694281 0.665717 -0.019576
v 2.037471 0.665718 0.309984
v 3.677734 0.665718 0.148432
v 1.988465 0.665718 0.148432
v 3.628727 0.665718 0.309984
v 1.971918 0.665718 -0.019576
v 3.549146 0.665718 0.458871
v 1.988465 0.665717 -0.187584
v 3.442047 0.665718 0.589371
v 2.037471 0.665717 -0.349136
v 3.311546 0.665718 0.696470
v 2.117053 0.665717 -0.498023
v 3.162659 0.665718 0.776052
v 3.001108 0.665717 -0.864210
v 2.833099 0.665717 -0.880758
v 2.224152 0.665717 -0.628523
v 3.001107 0.665718 0.825058
v 3.162659 0.665717 -0.815204
v 2.354652 0.665717 -0.735622
v 2.833099 0.665718 0.841605
v 3.311546 0.665717 -0.735622
v 2.503539 0.665717 -0.815204
v 2.665091 0.665718 0.825058
v 3.442047 0.665717 -0.628523
v 2.665091 0.665717 -0.864210
v 2.503539 0.665718 0.776052
v 3.549146 0.665717 -0.498023
v 2.354652 0.665718 0.696470
vn 0.4925 0.4648 -0.7358
vn 0.5544 -0.0657 -0.8297
vn 0.3819 -0.0657 -0.9219
vn 0.3321 0.4610 -0.8229
vn -0.0000 -0.0657 -0.9978
vn 0.1947 -0.0657 -0.9787
vn -0.0000 -1.0000 -0.0000
vn -0.1369 -0.7195 -0.6808
vn -0.0000 -0.7164 -0.6977
vn 0.7367 0.4653 -0.4907
vn 0.8297 -0.0657 -0.5544
vn 0.7056 -0.0657 -0.7056
vn 0.6233 0.4615 -0.6312
vn 0.8198 0.4620 -0.3384
vn 0.9219 -0.0657 -0.3819
vn 0.8705 0.4604 -0.1743
vn 0.9787 -0.0657 -0.1947
vn 0.8883 0.4592 -0.0000
vn 0.9978 -0.0657 -0.0000
vn 0.8719 0.4580 0.1734
vn 0.9787 -0.0657 0.1947
vn 0.8197 0.4624 0.3380
vn 0.9219 -0.0657 0.3819
vn 0.4079 0.9094 0.0811
vn 0.4159 0.9094 -0.0000
vn 0.7396 0.4583 0.4930
vn 0.8297 -0.0657 0.5544
vn 0.6291 0.4590 0.6273
vn 0.7056 -0.0657 0.7056
vn -0.5909 -0.7033 -0.3952
vn -0.5037 -0.7088 -0.4939
vn 0.4936 0.4633 0.7360
vn 0.5544 -0.0657 0.8297
vn 0.3399 0.4628 0.8187
vn 0.3819 -0.0657 0.9219
vn 0.1730 0.4672 0.8671
vn 0.1947 -0.0657 0.9787
vn -0.0026 0.4605 0.8877
vn -0.0000 -0.0657 0.9978
vn -0.1732 0.4672 0.8670
vn -0.1947 -0.0657 0.9787
vn -0.0112 0.9998 0.0168
vn -0.0143 0.9998 0.0143
vn -0.2941 0.9094 0.2941
vn -0.2311 0.9094 0.3458
vn -0.3392 0.4642 0.8182
vn -0.3819 -0.0657 0.9219
vn -0.6866 -0.7105 -0.1544
vn -0.6574 -0.7087 -0.2561
vn -0.4936 0.4619 0.7369
vn -0.5544 -0.0657 0.8297
vn -0.6283 0.4610 0.6267
vn -0.7056 -0.0657 0.7056
vn -0.7349 0.4691 0.4898
vn -0.8297 -0.0657 0.5544
vn -0.8187 0.4647 0.3374
vn -0.9219 -0.0657 0.3819
vn -0.8699 0.4620 0.1729
vn -0.9787 -0.0657 0.1947
vn -0.8877 0.4605 0.0027
vn -0.9978 -0.0657 -0.0000
vn -0.8709 0.4599 -0.1729
vn -0.9787 -0.0657 -0.1947
vn -0.8203 0.4609 -0.3387
vn -0.9219 -0.0657 -0.3819
vn -0.7361 0.4666 -0.4903
vn -0.8297 -0.0657 -0.5544
vn -0.6272 0.4640 -0.6256
vn -0.7056 -0.0657 -0.7056
vn -0.2694 -0.7105 0.6501
vn -0.3952 -0.7096 0.5833
vn -0.4958 0.4553 -0.7395
vn -0.5544 -0.0657 -0.8297
vn -0.3381 0.4700 -0.8154
vn -0.3819 -0.0657 -0.9219
vn 0.6919 -0.7091 -0.1361
vn 0.7048 -0.7093 0.0122
vn 0.4079 0.9094 -0.0811
vn 0.1370 -0.7132 0.6875
vn -0.0000 -0.7057 0.7085
vn -0.1947 -0.0657 -0.9787
vn 0.0086 0.4604 -0.8877
vn -0.1815 0.4596 -0.8694
vn 0.8687 0.3404 0.3598
vn 0.5405 0.8110 0.2239
vn 0.5738 0.8110 0.1141
vn 0.9222 0.3404 0.1834
vn -0.3843 0.9094 -0.1592
vn -0.4080 0.9094 -0.0811
vn 0.3917 -0.7095 -0.5858
vn 0.4969 -0.7096 -0.4996
vn -0.1376 -0.7072 0.6935
vn -0.3458 0.9094 -0.2311
vn 0.0187 0.9998 0.0077
vn 0.0168 0.9998 0.0112
vn 0.3458 0.9094 0.2311
vn 0.3843 0.9094 0.1592
vn 0.6925 -0.7086 0.1351
vn -0.1592 0.9094 0.3843
vn 0.1382 -0.7035 -0.6971
vn -0.2941 0.9094 -0.2941
vn 0.0143 0.9998 0.0143
vn 0.2941 0.9094 0.2941
vn 0.1592 0.9094 -0.3843
vn 0.1735 0.4557 -0.8731
vn 0.0811 0.9094 -0.4079
vn 0.6563 -0.7089 0.2584
vn -0.0168 0.9998 0.0112
vn -0.3458 0.9094 0.2311
vn -0.2311 0.9094 -0.3458
vn 0.2749 -0.7096 -0.6488
vn -0.0112 0.9998 -0.0168
vn -0.0077 0.9998 -0.0187
vn -0.1592 0.9094 -0.3843
vn -0.3817 0.0701 -0.9216
vn -0.1946 0.0701 -0.9784
vn -0.1834 0.3404 -0.9222
vn -0.3598 0.3404 -0.8687
vn 0.2311 0.9094 -0.3458
vn 0.5862 -0.7092 0.3917
vn -0.2239 0.8110 -0.5405
vn -0.3250 0.8110 -0.4864
vn -0.5224 0.3404 -0.7818
vn 0.0039 0.9998 0.0198
vn 0.0002 0.9998 0.0202
vn -0.0000 0.9094 0.4159
vn 0.0811 0.9094 0.4079
vn -0.4979 -0.7096 0.4985
vn -0.3865 -0.7089 -0.5900
vn 0.0077 0.9998 -0.0187
vn 0.0112 0.9998 -0.0168
vn 0.2941 0.9094 -0.2941
vn 0.4967 -0.7110 0.4977
vn 0.2311 0.9094 0.3458
vn -0.5931 -0.7095 0.3807
vn -0.4160 0.9094 -0.0000
vn -0.3843 0.9094 0.1592
vn -0.2713 -0.7091 -0.6508
vn -0.0811 0.9094 -0.4079
vn 0.3458 0.9094 -0.2311
vn -0.4080 0.9094 0.0811
vn 0.3928 -0.7090 0.5857
vn 0.1592 0.9094 0.3843
vn 0.6649 0.3404 -0.6649
vn 0.4137 0.8110 -0.4137
vn 0.3250 0.8110 -0.4864
vn 0.5224 0.3404 -0.7818
vn -0.6483 -0.7094 0.2765
vn 0.0143 0.9998 -0.0143
vn 0.0168 0.9998 -0.0112
vn -0.6777 -0.7227 0.1359
vn -0.7050 -0.7092 0.0081
vn 0.5875 -0.7092 -0.3897
vn 0.3843 0.9094 -0.1592
vn 0.0198 0.9998 -0.0039
vn 0.0202 0.9998 -0.0000
vn 0.2713 -0.7091 0.6508
vn 0.0198 0.9998 0.0039
vn 0.6484 -0.7094 -0.2764
vn 0.6649 0.3404 0.6649
vn 0.4137 0.8110 0.4137
vn 0.4864 0.8110 0.3250
vn 0.7818 0.3404 0.5224
vn -0.0000 0.9094 -0.4159
vn -0.0198 0.9998 -0.0039
vn -0.0187 0.9998 -0.0077
vn -0.0039 0.9998 0.0198
vn -0.0811 0.9094 0.4079
vn -0.0143 0.9998 -0.0143
vn -0.0077 0.9998 0.0187
vn -0.0000 0.0701 -0.9975
vn 0.1946 0.0701 -0.9784
vn 0.1834 0.3404 -0.9222
vn -0.0000 0.3404 -0.9403
vn -0.9216 0.0701 0.3817
vn -0.9784 0.0701 0.1946
vn -0.9222 0.3404 0.1834
vn -0.8687 0.3404 0.3598
vn -0.5542 0.0701 0.8294
vn -0.7054 0.0701 0.7054
vn -0.6649 0.3404 0.6649
vn -0.5224 0.3404 0.7818
vn 0.9216 0.0701 0.3817
vn 0.8294 0.0701 0.5542
vn -0.3817 0.0701 0.9216
vn -0.3598 0.3404 0.8687
vn 0.9975 0.0701 -0.0000
vn 0.9784 0.0701 0.1946
vn 0.9403 0.3404 -0.0000
vn 0.9216 0.0701 -0.3817
vn 0.9784 0.0701 -0.1946
vn 0.9222 0.3404 -0.1834
vn 0.8687 0.3404 -0.3598
vn 0.5542 0.0701 0.8294
vn 0.3817 0.0701 0.9216
vn 0.3598 0.3404 0.8687
vn 0.5224 0.3404 0.7818
vn -0.8294 0.0701 -0.5542
vn -0.7054 0.0701 -0.7054
vn -0.6649 0.3404 -0.6649
vn -0.7818 0.3404 -0.5224
vn -0.5542 0.0701 -0.8294
vn -0.9216 0.0701 -0.3817
vn -0.8687 0.3404 -0.3598
vn 0.7818 0.3404 -0.5224
vn 0.4864 0.8110 -0.3250
vn -0.5738 0.8110 0.1141
vn -0.5405 0.8110 0.2239
vn -0.0168 0.9998 -0.0112
vn 0.0077 0.9998 0.0187
vn 0.0039 0.9998 -0.0198
vn -0.1141 0.8110 -0.5738
vn -0.0000 1.0000 -0.0000
vn -0.4137 0.8110 -0.4137
vn 0.5404 0.8110 -0.2242
vn -0.2239 0.8110 0.5405
vn -0.1141 0.8110 0.5738
vn -0.1834 0.3404 0.9222
vn 0.0187 0.9998 -0.0077
vn 0.3250 0.8110 0.4864
vn -0.0000 0.8110 0.5850
vn -0.0000 0.3404 0.9403
vn 0.0112 0.9998 0.0168
vn -0.9222 0.3404 -0.1834
vn -0.5738 0.8110 -0.1141
vn -0.5850 0.8110 -0.0000
vn -0.9403 0.3404 -0.0000
vn -0.0000 0.8110 -0.5850
vn -0.0000 0.9998 -0.0202
vn 0.5738 0.8110 -0.1141
vn -0.9784 0.0701 -0.1946
vn -0.3250 0.8110 0.4864
vn 0.1946 0.0701 0.9784
vn 0.1834 0.3404 0.9222
vn 0.2239 0.8110 0.5405
vn 0.7054 0.0701 0.7054
vn -0.5405 0.8110 -0.2239
vn -0.0185 0.9998 0.0076
vn 0.1141 0.8110 -0.5738
vn 0.5850 0.8110 -0.0000
vn -0.4137 0.8110 0.4137
vn 0.1141 0.8110 0.5738
vn -0.4864 0.8110 -0.3250
vn -0.0198 0.9998 0.0039
vn -0.5886 0.7995 0.1196
vn -0.9596 0.2033 0.1946
vn -0.9041 0.2060 0.3745
vn -0.5526 0.8014 0.2289
vn 0.3598 0.3404 -0.8687
vn 0.2239 0.8110 -0.5405
vn -0.7818 0.3404 0.5224
vn -0.4864 0.8110 0.3250
vn -0.0202 0.9998 -0.0000
vn -0.1195 0.7967 -0.5925
vn -0.2306 0.7981 -0.5566
vn -0.0039 0.9998 -0.0198
vn 0.5008 0.7995 -0.3316
vn 0.8161 0.2033 -0.5409
vn 0.6980 0.1958 -0.6888
vn 0.4327 0.7942 -0.4267
vn 0.5542 0.0701 -0.8294
vn 0.7054 0.0701 -0.7054
vn -0.9975 0.0701 -0.0000
vn 0.5589 0.1817 -0.8091
vn 0.3523 0.7913 -0.4997
vn -0.8294 0.0701 0.5542
vn 0.4291 0.7925 0.4333
vn 0.6902 0.1932 0.6974
vn 0.8099 0.1806 0.5581
vn 0.5006 0.7909 0.3518
vn -0.5008 0.7995 0.3316
vn -0.4327 0.7942 0.4267
vn -0.1052 0.7909 0.6028
vn 0.0029 0.7925 0.6098
vn 0.6015 0.7591 0.2488
vn 0.6025 0.7913 0.1042
vn 0.1195 0.7967 0.5925
vn 0.2306 0.7981 0.5566
vn 0.3345 0.7967 0.5034
vn -0.4291 0.7925 -0.4333
vn -0.5006 0.7909 -0.3518
vn -0.6077 0.7942 0.0043
vn -0.9806 0.1958 0.0065
vn 0.2494 0.7591 -0.6013
vn 0.1052 0.7909 -0.6028
vn -0.0029 0.7925 -0.6098
vn 0.3817 0.0701 -0.9216
vn -0.0000 0.0701 0.9975
vn -0.6025 0.7913 -0.1042
vn -0.9673 0.1817 -0.1769
vn 0.5886 0.7995 -0.1196
vn 0.9596 0.2033 -0.1946
vn 0.9041 0.2060 -0.3745
vn 0.5526 0.8014 -0.2289
vn -0.6015 0.7591 -0.2488
vn -0.9102 0.1722 -0.3767
vn 0.8294 0.0701 -0.5542
vn 0.6077 0.7942 -0.0043
vn 0.9806 0.1958 -0.0065
vn -0.8099 0.1806 -0.5581
vn 0.9673 0.1817 0.1769
vn -0.6902 0.1932 -0.6974
vn 0.9102 0.1722 0.3767
vn -0.3345 0.7967 -0.5034
vn -0.5422 0.1992 -0.8163
vn -0.3748 0.2013 -0.9050
vn -0.1780 0.1806 0.9673
vn 0.0051 0.1932 0.9811
vn -0.3523 0.7913 0.4997
vn -0.2494 0.7591 0.6013
vn -0.3772 0.1722 0.9100
vn 0.5422 0.1992 0.8163
vn -0.0051 0.1932 -0.9811
vn -0.1938 0.1992 -0.9606
vn -0.5589 0.1817 0.8091
vn -0.1946 0.0701 0.9784
vn 0.3748 0.2013 0.9050
vn 0.1780 0.1806 -0.9673
vn -0.6980 0.1958 0.6888
vn 0.1938 0.1992 0.9606
vn 0.3772 0.1722 -0.9100
vn -0.8161 0.2033 0.5409
vt 0.906250 1.000000
vt 0.906250 0.996746
vt 0.937500 0.996746
vt 0.937500 1.000000
vt 1.000000 0.980474
vt 0.000000 1.000000
vt 0.968750 0.996746
vt 0.968750 0.906022
vt 0.031250 0.500000
vt 0.000000 0.500000
vt 1.000000 0.500000
vt 0.843750 1.000000
vt 0.843750 0.996746
vt 0.875000 0.996746
vt 0.875000 1.000000
vt 0.937500 0.906022
vt 0.812500 1.000000
vt 0.812500 0.996746
vt 0.906250 0.906022
vt 0.781250 1.000000
vt 0.781250 0.996746
vt 0.875000 0.906022
vt 0.750000 1.000000
vt 0.750000 0.996746
vt 0.843750 0.906022
vt 0.718750 1.000000
vt 0.718750 0.996746
vt 0.812500 0.906022
vt 0.687500 1.000000
vt 0.687500 0.996746
vt 0.781250 0.906022
vt 0.656250 1.000000
vt 0.656250 0.996746
vt 0.750000 0.906022
vt 0.625000 1.000000
vt 0.625000 0.996746
vt 0.718750 0.906022
vt 0.156250 0.500000
vt 0.125000 0.500000
vt 0.593750 1.000000
vt 0.593750 0.996746
vt 0.687500 0.906022
vt 0.562500 1.000000
vt 0.562500 0.996746
vt 0.656250 0.906022
vt 0.531250 1.000000
vt 0.531250 0.996746
vt 0.625000 0.906022
vt 0.500000 1.000000
vt 0.500000 0.996746
vt 0.593750 0.906022
vt 0.468750 1.000000
vt 0.468750 0.996746
vt 0.131974 0.500000
vt 0.093750 0.500000
vt 0.097565 0.500000
vt 0.406250 1.000000
vt 0.375000 1.000000
vt 0.562500 0.906022
vt 0.437500 1.000000
vt 0.437500 0.996746
vt 0.531250 0.906022
vt 0.218750 0.500000
vt 0.187500 0.500000
vt 0.406250 0.996746
vt 0.500000 0.906022
vt 0.375000 0.996746
vt 0.468750 0.906022
vt 0.343750 1.000000
vt 0.343750 0.996746
vt 0.437500 0.906022
vt 0.312500 1.000000
vt 0.312500 0.996746
vt 0.406250 0.906022
vt 0.281250 1.000000
vt 0.281250 0.996746
vt 0.375000 0.906022
vt 0.250000 1.000000
vt 0.250000 0.996746
vt 0.343750 0.906022
vt 0.218750 1.000000
vt 0.218750 0.996746
vt 0.312500 0.906022
vt 0.187500 1.000000
vt 0.187500 0.996746
vt 0.281250 0.906022
vt 0.156250 1.000000
vt 0.156250 0.996746
vt 0.250000 0.906022
vt 0.125000 1.000000
vt 0.125000 0.996746
vt 0.218750 0.906022
vt 0.437500 0.500000
vt 0.406250 0.500000
vt 0.093750 1.000000
vt 0.093750 0.996746
vt 0.187500 0.906022
vt 0.062500 1.000000
vt 0.062500 0.996746
vt 0.156250 0.906022
vt 0.125000 0.906022
vt 0.781250 0.500000
vt 0.750000 0.500000
vt 0.093750 0.906022
vt 0.062500 0.906022
vt 0.781250 0.502373
vt 0.750000 0.502373
vt 0.531250 0.500000
vt 0.500000 0.500000
vt 0.031250 0.996746
vt 0.031250 0.906022
vt 1.000000 1.000000
vt 0.031250 1.000000
vt 0.906250 0.500000
vt 0.875000 0.500000
vt 0.500000 0.502373
vt 0.468750 0.502373
vt 0.468750 0.500000
vt 0.218750 0.502373
vt 0.187500 0.502373
vt 0.718750 0.500000
vt 0.718750 0.502373
vt 0.437500 0.502373
vt 0.968750 0.502373
vt 0.968750 0.500000
vt 0.156250 0.502373
vt 0.968750 1.000000
vt 0.687500 0.500000
vt 0.687500 0.502373
vt 0.406250 0.502373
vt 0.125000 0.502373
vt 0.937500 0.500000
vt 0.937500 0.502373
vt 0.879598 0.500000
vt 0.256430 0.500000
vt 0.228088 0.500000
vt 0.258929 0.500000
vt 0.453125 0.500000
vt 0.656250 0.502373
vt 0.656250 0.500000
vt 0.375000 0.502373
vt 0.375000 0.500000
vt 0.093750 0.502373
vt 0.906250 0.502373
vt 0.625000 0.502373
vt 0.625000 0.500000
vt 0.343750 0.500000
vt 0.343750 0.502373
vt 0.062500 0.500000
vt 0.062500 0.502373
vt 0.875000 0.502373
vt 0.593750 0.500000
vt 0.647569 0.500000
vt 0.706414 0.500000
vt 0.673295 0.500000
vt 0.593750 0.502373
vt 0.312500 0.500000
vt 0.312500 0.502373
vt 0.031250 0.502373
vt 0.281250 0.500000
vt 0.250000 0.500000
vt 0.843750 0.500000
vt 0.843750 0.502373
vt 0.562500 0.500000
vt 0.562500 0.502373
vt 0.281250 0.502373
vt 0.812500 0.500000
vt 0.812500 0.502373
vt 0.531250 0.502373
vt 0.250000 0.502373
vt 0.536573 0.500000
vt 0.505902 0.500000
vt 0.065104 0.500000
vt 0.591252 0.500000
vt 0.616071 0.500000
vt 0.588542 0.500000
vt 0.475359 0.500000
vt 0.616477 0.500000
vt 0.589638 0.500000
vt 0.853814 0.500000
vt 0.046075 0.500000
vt 0.444698 0.500000
vt 0.828925 0.500000
vt 0.413719 0.500000
vt 0.809896 0.500000
vt 0.339638 0.500000
vt 0.338427 0.500000
vt 0.777435 0.500000
vt 0.162752 0.500000
vt 0.197755 0.500000
vt 0.163719 0.500000
vt 0.743026 0.500000
vt 0.711281 0.500000
vt 0.286573 0.500000
vt 0.680302 0.500000
vt 0.255902 0.500000
vt 0.644022 0.500000
vt 0.649641 0.500000
vt 0.225359 0.500000
vt 0.619098 0.500000
vt 0.194698 0.500000
vt 0.588427 0.500000
vt 0.680099 0.500000
vt 0.724432 0.500000
vt 0.284055 0.500000
vt 0.418586 0.500000
vt 0.498508 0.500000
vt 0.525100 0.500000
vt 0.533748 0.500000
vt 1.000000 0.514235
vt 0.000000 0.980474
vt 0.968750 0.589569
vt 0.350511 1.000000
vt 0.308638 1.000000
vt 0.293586 1.000000
vt 0.326705 1.000000
vt 0.774641 1.000000
vt 0.805302 1.000000
vt 0.521912 1.000000
vt 0.493570 1.000000
vt 0.524641 1.000000
vt 0.555302 1.000000
vt 0.651786 0.500000
vt 0.741848 0.500000
vt 0.760454 0.500000
vt 0.675876 0.500000
vt 0.411573 1.000000
vt 0.552245 1.000000
vt 0.524489 1.000000
vt 0.492163 1.000000
vt 0.762244 0.500000
vt 0.127467 0.500000
vt 0.619792 0.500000
vt 0.447755 0.500000
vt 0.475511 0.500000
vt 0.507838 0.500000
vt 0.478088 0.500000
vt 0.473214 0.500000
vt 0.227431 0.500000
vt 0.112756 0.500000
vt 0.534055 0.500000
vt 0.599900 0.500000
vt 0.506430 0.500000
vt 0.505208 0.500000
vt 0.759096 0.500000
vt 0.626492 0.500000
vt 0.535897 0.500000
vt 0.286458 0.500000
vt 0.146186 1.000000
vt 0.171075 1.000000
vt 0.837248 1.000000
vt 0.802245 1.000000
vt 0.836281 1.000000
vt 0.868027 1.000000
vt 0.887244 1.000000
vt 0.953925 1.000000
vt 0.319901 1.000000
vt 0.240904 1.000000
vt 0.237756 1.000000
vt 0.190104 1.000000
vt 0.222565 1.000000
vt 0.408748 1.000000
vt 0.382838 1.000000
vt 0.410897 1.000000
vt 0.410362 1.000000
vt 0.255982 1.000000
vt 0.072717 1.000000
vt 0.258152 1.000000
vt 0.252841 1.000000
vt 0.771912 1.000000
vt 0.660362 1.000000
vt 0.661573 1.000000
vt 0.355978 1.000000
vt 0.744098 1.000000
vt 0.463427 1.000000
vt 0.465945 1.000000
vt 0.494098 1.000000
vt 0.713427 1.000000
vt 0.383523 1.000000
vt 0.586281 1.000000
vt 0.581414 1.000000
vt 0.902435 1.000000
vt 0.934896 1.000000
vt 0.464103 1.000000
vt 0.743570 1.000000
vt 0.715945 1.000000
vt 0.376459 1.000000
vt 0.348214 1.000000
vt 0.401210 1.000000
vt 0.466252 1.000000
vt 0.474900 1.000000
vt 0.501492 1.000000
vt 0.494792 1.000000
vt 0.872533 1.000000
vt 0.546875 1.000000
vt 0.741071 1.000000
vt 0.328125 1.000000
vt 0.526786 1.000000
vt 0.772569 1.000000
vt 0.713542 1.000000
vt 0.031250 0.589569
vt 0.000000 0.514235
vt 0.062500 0.589569
vt 0.093750 0.589569
vt 0.125000 0.589569
vt 0.156250 0.589569
vt 0.187500 0.589569
vt 0.218750 0.589569
vt 0.250000 0.589569
vt 0.281250 0.589569
vt 0.312500 0.589569
vt 0.343750 0.589569
vt 0.375000 0.589569
vt 0.406250 0.589569
vt 0.437500 0.589569
vt 0.468750 0.589569
vt 0.500000 0.589569
vt 0.531250 0.589569
vt 0.562500 0.589569
vt 0.593750 0.589569
vt 0.625000 0.589569
vt 0.656250 0.589569
vt 0.687500 0.589569
vt 0.718750 0.589569
vt 0.750000 0.589569
vt 0.781250 0.589569
vt 0.812500 0.589569
vt 0.843750 0.589569
vt 0.875000 0.589569
vt 0.906250 0.589569
vt 0.937500 0.589569
s 1
usemtl Material.001
f 72/1/1 8/2/2 6/3/3 70/4/4
f 515/5/5 2/6/5 4/7/6 516/8/6
f 191/9/7 127/9/8 65/10/9 129/11/7
f 76/12/10 12/13/11 10/14/12 74/15/13
f 516/8/6 4/7/6 6/3/3 517/16/3
f 78/17/14 14/18/15 12/13/11 76/12/10
f 517/16/3 6/3/3 8/2/2 518/19/2
f 80/20/16 16/21/17 14/18/15 78/17/14
f 518/19/2 8/2/2 10/14/12 519/22/12
f 82/23/18 18/24/19 16/21/17 80/20/16
f 519/22/12 10/14/12 12/13/11 520/25/11
f 84/26/20 20/27/21 18/24/19 82/23/18
f 520/25/11 12/13/11 14/18/15 521/28/15
f 86/29/22 22/30/23 20/27/21 84/26/20
f 521/28/15 14/18/15 16/21/17 522/31/17
f 148/26/24 84/26/20 82/23/18 146/23/25
f 88/32/26 24/33/27 22/30/23 86/29/22
f 522/31/17 16/21/17 18/24/19 523/34/19
f 90/35/28 26/36/29 24/33/27 88/32/26
f 523/34/19 18/24/19 20/27/21 524/37/21
f 183/38/7 119/38/30 121/39/31 185/39/7
f 92/40/32 28/41/33 26/36/29 90/35/28
f 524/37/21 20/27/21 22/30/23 525/42/23
f 94/43/34 30/44/35 28/41/33 92/40/32
f 525/42/23 22/30/23 24/33/27 526/45/27
f 96/46/36 32/47/37 30/44/35 94/43/34
f 526/45/27 24/33/27 26/36/29 527/48/29
f 98/49/38 34/50/39 32/47/37 96/46/36
f 527/48/29 26/36/29 28/41/33 528/51/33
f 100/52/40 36/53/41 34/50/39 98/49/38
f 253/54/7 185/39/7 187/55/7 254/56/7
f 452/57/42 451/58/43 170/58/44 168/57/45
f 528/51/33 28/41/33 30/44/35 529/59/35
f 102/60/46 38/61/47 36/53/41 100/52/40
f 529/59/35 30/44/35 32/47/37 530/62/37
f 179/63/7 115/63/48 117/64/49 181/64/7
f 104/57/50 40/65/51 38/61/47 102/60/46
f 530/62/37 32/47/37 34/50/39 531/66/39
f 106/58/52 42/67/53 40/65/51 104/57/50
f 531/66/39 34/50/39 36/53/41 532/68/41
f 108/69/54 44/70/55 42/67/53 106/58/52
f 532/68/41 36/53/41 38/61/47 533/71/47
f 110/72/56 46/73/57 44/70/55 108/69/54
f 533/71/47 38/61/47 40/65/51 534/74/51
f 112/75/58 48/76/59 46/73/57 110/72/56
f 534/74/51 40/65/51 42/67/53 535/77/53
f 114/78/60 50/79/61 48/76/59 112/75/58
f 535/77/53 42/67/53 44/70/55 536/80/55
f 116/81/62 52/82/63 50/79/61 114/78/60
f 536/80/55 44/70/55 46/73/57 537/83/57
f 118/84/64 54/85/65 52/82/63 116/81/62
f 537/83/57 46/73/57 48/76/59 538/86/59
f 120/87/66 56/88/67 54/85/65 118/84/64
f 538/86/59 48/76/59 50/79/61 539/89/61
f 122/90/68 58/91/69 56/88/67 120/87/66
f 539/89/61 50/79/61 52/82/63 540/92/63
f 165/93/7 101/93/70 103/94/71 167/94/7
f 124/95/72 60/96/73 58/91/69 122/90/68
f 540/92/63 52/82/63 54/85/65 541/97/65
f 126/98/74 62/99/75 60/96/73 124/95/72
f 541/97/65 54/85/65 56/88/67 542/100/67
f 542/100/67 56/88/67 58/91/69 543/101/69
f 143/102/7 79/102/76 81/103/77 145/103/7
f 543/101/69 58/91/69 60/96/73 544/104/73
f 146/23/25 82/23/18 80/20/16 144/20/78
f 544/104/73 60/96/73 62/99/75 545/105/75
f 15/106/17 17/107/19 81/103/77 79/102/76
f 159/108/7 95/108/79 97/109/80 161/109/7
f 545/105/75 62/99/75 64/110/81 546/111/81
f 66/6/82 2/112/5 64/110/81 128/113/83
f 332/84/84 219/84/85 218/81/86 331/81/87
f 182/84/88 118/84/64 116/81/62 180/81/89
f 135/114/7 71/114/90 73/115/91 137/115/7
f 97/109/80 33/116/39 35/117/41 99/118/92
f 115/63/48 51/119/63 53/120/65 117/64/49
f 184/87/93 120/87/66 118/84/64 182/84/88
f 473/29/94 478/32/95 152/32/96 150/29/97
f 145/103/7 81/103/77 83/121/98 147/121/7
f 81/103/77 17/107/19 19/122/21 83/121/98
f 161/109/7 97/109/80 99/118/92 163/118/7
f 163/118/7 99/118/92 101/93/70 165/93/7
f 99/118/92 35/117/41 37/123/47 101/93/70
f 168/57/45 104/57/50 102/60/46 166/60/99
f 150/29/97 86/29/22 84/26/20 148/26/24
f 65/11/9 1/10/5 3/124/6 67/125/100
f 53/120/65 55/126/67 119/38/30 117/64/49
f 186/90/101 122/90/68 120/87/66 184/87/93
f 152/32/96 88/32/26 86/29/22 150/29/97
f 478/32/95 482/35/102 154/35/103 152/32/96
f 134/4/104 70/4/4 68/127/105 132/127/106
f 147/121/7 83/121/98 85/128/107 149/128/7
f 451/58/43 459/69/108 172/69/109 170/58/44
f 83/121/98 19/122/21 21/129/23 85/128/107
f 37/123/47 39/130/51 103/94/71 101/93/70
f 170/58/44 106/58/52 104/57/50 168/57/45
f 55/126/67 57/131/69 121/39/31 119/38/30
f 188/95/110 124/95/72 122/90/68 186/90/101
f 133/132/7 131/125/7 67/125/100 69/132/111
f 67/125/100 3/124/6 5/133/3 69/132/111
f 467/95/112 472/98/113 190/98/114 188/95/110
f 563/43/115 567/46/116 321/46/117 320/43/118
f 136/1/119 72/1/1 70/4/4 134/4/104
f 227/132/7 133/132/7 135/114/7 228/134/7
f 291/135/7 284/136/7 283/137/7 290/138/7
f 21/129/23 23/139/27 87/140/120 85/128/107
f 320/43/118 207/43/121 206/40/122 319/40/123
f 154/35/103 90/35/28 88/32/26 152/32/96
f 464/46/124 469/49/125 162/49/126 160/46/127
f 39/130/51 41/141/53 105/142/128 103/94/71
f 172/69/109 108/69/54 106/58/52 170/58/44
f 185/39/7 121/39/31 123/55/129 187/55/7
f 121/39/31 57/131/69 59/143/73 123/55/129
f 466/4/130 471/1/131 136/1/119 134/4/104
f 190/98/114 126/98/74 124/95/72 188/95/110
f 5/133/3 7/144/2 71/114/90 69/132/111
f 138/15/132 74/15/13 72/1/1 136/1/119
f 23/139/27 25/145/29 89/146/133 87/140/120
f 156/40/134 92/40/32 90/35/28 154/35/103
f 169/142/7 105/142/128 107/147/135 171/147/7
f 180/81/89 116/81/62 114/78/60 178/78/136
f 105/142/128 41/141/53 43/148/55 107/147/135
f 174/72/137 110/72/56 108/69/54 172/69/109
f 187/55/7 123/55/129 125/149/138 189/149/7
f 123/55/129 59/143/73 61/150/75 125/149/138
f 192/113/139 128/113/83 126/98/74 190/98/114
f 7/144/2 9/151/12 73/115/91 71/114/90
f 140/12/140 76/12/10 74/15/13 138/15/132
f 176/75/141 112/75/58 110/72/56 174/72/137
f 153/146/7 89/146/133 91/152/142 155/152/7
f 272/153/7 265/128/7 264/154/7 271/155/7
f 89/146/133 25/145/29 27/156/33 91/152/142
f 158/43/143 94/43/34 92/40/32 156/40/134
f 326/58/144 213/58/145 212/57/146 325/57/147
f 171/147/7 107/147/135 109/157/148 173/157/7
f 107/147/135 43/148/55 45/158/57 109/157/148
f 476/15/149 481/12/150 140/12/140 138/15/132
f 191/9/7 189/149/7 125/149/138 127/9/8
f 125/149/138 61/150/75 63/159/81 127/9/8
f 175/160/7 111/160/151 113/161/152 177/161/7
f 137/115/7 73/115/91 75/162/153 139/162/7
f 75/162/153 73/115/91 9/151/12 11/163/11
f 142/17/154 78/17/14 76/12/10 140/12/140
f 455/20/155 463/23/156 146/23/25 144/20/78
f 155/152/7 91/152/142 93/164/157 157/164/7
f 91/152/142 27/156/33 29/165/35 93/164/157
f 160/46/127 96/46/36 94/43/34 158/43/143
f 173/157/7 109/157/148 111/160/151 175/160/7
f 109/157/148 45/158/57 47/166/59 111/160/151
f 63/159/81 1/10/5 65/11/9 127/9/8
f 463/23/156 468/26/158 148/26/24 146/23/25
f 141/167/7 139/162/7 75/162/153 77/167/159
f 334/90/160 221/90/161 220/87/162 333/87/163
f 77/167/159 75/162/153 11/163/11 13/168/15
f 130/6/164 66/112/82 128/113/83 192/113/139
f 157/164/7 93/164/157 95/108/79 159/108/7
f 93/164/157 29/165/35 31/169/37 95/108/79
f 47/166/59 49/170/61 113/161/152 111/160/151
f 480/81/165 454/84/166 182/84/88 180/81/89
f 149/128/7 85/128/107 87/140/120 151/140/7
f 469/49/125 474/52/167 164/52/168 162/49/126
f 240/171/7 159/108/7 161/109/7 241/172/7
f 462/90/169 467/95/112 188/95/110 186/90/101
f 178/78/136 114/78/60 112/75/58 176/75/141
f 141/167/7 77/167/159 79/102/76 143/102/7
f 77/167/159 13/168/15 15/106/17 79/102/76
f 31/169/37 33/116/39 97/109/80 95/108/79
f 133/132/7 69/132/111 71/114/90 135/114/7
f 479/60/170 452/57/42 168/57/45 166/60/99
f 144/20/78 80/20/16 78/17/14 142/17/154
f 177/161/7 113/161/152 115/63/48 179/63/7
f 151/140/7 87/140/120 89/146/133 153/146/7
f 113/161/152 49/170/61 51/119/63 115/63/48
f 129/11/7 65/10/9 67/125/100 131/125/7
f 162/49/126 98/49/38 96/46/36 160/46/127
f 570/49/171 573/52/172 323/52/173 322/49/174
f 254/56/7 187/55/7 189/149/7 255/173/7
f 287/164/7 280/174/7 279/175/7 286/176/7
f 241/172/7 161/109/7 163/118/7 242/177/7
f 293/164/7 286/176/7 285/178/7 292/179/7
f 228/134/7 135/114/7 137/115/7 229/180/7
f 255/173/7 189/149/7 191/9/7 256/181/7
f 242/177/7 163/118/7 165/93/7 243/182/7
f 229/180/7 137/115/7 139/162/7 230/183/7
f 256/181/7 191/9/7 129/10/7 225/11/7
f 548/17/175 547/20/176 313/20/177 312/17/178
f 243/182/7 165/93/7 167/94/7 244/184/7
f 231/185/7 230/183/7 139/162/7 141/167/7
f 305/157/7 304/186/7 245/142/7 246/187/7
f 244/184/7 167/94/7 169/142/7 245/142/7
f 231/185/7 141/167/7 143/102/7 232/188/7
f 571/1/179 574/15/180 310/15/181 309/1/182
f 270/189/7 277/190/7 252/191/7 253/54/7
f 245/142/7 169/142/7 171/147/7 246/187/7
f 232/188/7 143/102/7 145/103/7 233/192/7
f 560/84/183 562/87/184 333/87/163 332/84/84
f 246/187/7 171/147/7 173/157/7 247/157/7
f 568/4/185 571/1/179 309/1/182 308/4/186
f 556/78/187 558/81/188 331/81/87 330/78/189
f 233/192/7 145/103/7 147/121/7 234/193/7
f 552/72/190 554/75/191 329/75/192 328/72/193
f 558/81/188 560/84/183 332/84/84 331/81/87
f 248/194/7 247/157/7 173/157/7 175/160/7
f 234/193/7 147/121/7 149/128/7 235/195/7
f 248/194/7 175/160/7 177/161/7 249/196/7
f 286/176/7 279/175/7 278/197/7 285/178/7
f 236/198/7 235/195/7 149/128/7 151/140/7
f 249/196/7 177/161/7 179/63/7 250/199/7
f 569/95/194 572/98/195 336/98/196 335/95/197
f 236/198/7 151/140/7 153/146/7 237/200/7
f 557/32/198 559/35/199 318/35/200 317/32/201
f 559/35/199 561/40/202 319/40/123 318/35/200
f 250/199/7 179/63/7 181/64/7 251/201/7
f 237/200/7 153/146/7 155/152/7 238/202/7
f 555/29/203 557/32/198 317/32/201 316/29/204
f 262/203/7 225/10/7 226/125/7 261/204/7
f 251/201/7 181/64/7 183/38/7 252/191/7
f 238/202/7 155/152/7 157/164/7 239/164/7
f 240/171/7 299/164/7 238/202/7 239/164/7
f 225/11/7 129/10/7 131/125/7 226/125/7
f 279/175/7 272/153/7 271/155/7 278/197/7
f 305/157/7 298/205/7 297/157/7 304/206/7
f 289/207/7 282/208/7 281/164/7 288/209/7
f 327/69/205 214/69/206 213/58/145 326/58/144
f 313/20/177 200/20/207 199/17/208 312/17/178
f 483/210/5 515/211/5 516/8/6 484/212/6
f 252/191/7 183/38/7 185/39/7 253/54/7
f 239/164/7 157/164/7 159/108/7 240/171/7
f 226/125/7 131/125/7 133/132/7 227/132/7
f 453/87/209 462/90/169 186/90/101 184/87/93
f 457/43/210 464/46/124 160/46/127 158/43/143
f 460/127/211 466/4/130 134/4/104 132/127/106
f 321/46/117 208/46/212 207/43/121 320/43/118
f 417/213/213 410/214/213 409/215/213 416/216/213
f 212/57/146 213/58/145 451/58/43 452/57/42
f 319/40/123 206/40/122 205/35/214 318/35/200
f 328/72/193 215/72/215 214/69/206 327/69/205
f 219/84/85 220/87/162 453/87/209 454/84/166
f 308/4/186 195/4/216 194/127/217 307/127/218
f 199/17/208 200/20/207 455/20/155 456/17/219
f 335/95/197 222/95/220 221/90/161 334/90/160
f 307/127/218 194/127/217 193/112/221 306/6/222
f 206/40/122 207/43/121 457/43/210 458/40/223
f 554/75/191 556/78/187 330/78/189 329/75/192
f 315/26/224 202/26/225 201/23/226 314/23/227
f 213/58/145 214/69/206 459/69/108 451/58/43
f 322/49/174 209/49/228 208/46/212 321/46/117
f 314/23/227 201/23/226 200/20/207 313/20/177
f 567/46/116 570/49/171 322/49/174 321/46/117
f 193/6/221 194/127/217 460/127/211 461/112/229
f 329/75/192 216/75/230 215/72/215 328/72/193
f 220/87/162 221/90/161 462/90/169 453/87/209
f 553/26/231 555/29/203 316/29/204 315/26/224
f 309/1/182 196/1/232 195/4/216 308/4/186
f 200/20/207 201/23/226 463/23/156 455/20/155
f 572/98/195 575/113/233 337/113/234 336/98/196
f 336/98/196 223/98/235 222/95/220 335/95/197
f 207/43/121 208/46/212 464/46/124 457/43/210
f 566/90/236 569/95/194 335/95/197 334/90/160
f 316/29/204 203/29/237 202/26/225 315/26/224
f 214/69/206 215/72/215 465/72/238 459/69/108
f 323/52/173 210/52/239 209/49/228 322/49/174
f 194/127/217 195/4/216 466/4/130 460/127/211
f 330/78/189 217/78/240 216/75/230 329/75/192
f 221/90/161 222/95/220 467/95/112 462/90/169
f 310/15/181 197/15/241 196/1/232 309/1/182
f 201/23/226 202/26/225 468/26/158 463/23/156
f 337/113/234 224/113/242 223/98/235 336/98/196
f 208/46/212 209/49/228 469/49/125 464/46/124
f 317/32/201 204/32/243 203/29/237 316/29/204
f 215/72/215 216/75/230 470/75/244 465/72/238
f 377/217/245 345/20/246 344/17/247 376/218/248
f 324/60/249 211/60/250 210/52/239 323/52/173
f 195/4/216 196/1/232 471/1/131 466/4/130
f 331/81/87 218/81/86 217/78/240 330/78/189
f 222/95/220 223/98/235 472/98/113 467/95/112
f 311/12/251 198/12/252 197/15/241 310/15/181
f 202/26/225 203/29/237 473/29/94 468/26/158
f 209/49/228 210/52/239 474/52/167 469/49/125
f 216/75/230 217/78/240 475/78/253 470/75/244
f 196/1/232 197/15/241 476/15/149 471/1/131
f 447/219/213 446/220/213 385/221/254 384/222/255
f 223/98/235 224/113/242 477/113/256 472/98/113
f 203/29/237 204/32/243 478/32/95 473/29/94
f 391/69/257 359/69/258 358/58/259 390/58/260
f 578/57/261 550/58/262 326/58/144 325/57/147
f 210/52/239 211/60/250 479/60/170 474/52/167
f 318/35/200 205/35/214 204/32/243 317/32/201
f 267/223/7 260/224/7 259/225/7 266/226/7
f 217/78/240 218/81/86 480/81/165 475/78/253
f 306/6/222 193/112/221 224/113/242 337/113/234
f 197/15/241 198/12/252 481/12/150 476/15/149
f 224/113/242 193/6/221 461/112/229 477/113/256
f 561/40/202 563/43/115 320/43/118 319/40/123
f 325/57/147 212/57/146 211/60/250 324/60/249
f 204/32/243 205/35/214 482/35/102 478/32/95
f 211/60/250 212/57/146 452/57/42 479/60/170
f 218/81/86 219/84/85 454/84/166 480/81/165
f 547/20/176 551/23/263 314/23/227 313/20/177
f 198/12/252 199/17/208 456/17/219 481/12/150
f 390/58/260 358/58/259 357/57/264 389/227/265
f 205/35/214 206/40/122 458/40/223 482/35/102
f 448/228/213 441/229/213 440/230/213 447/219/213
f 290/138/7 283/137/7 282/208/7 289/207/7
f 264/154/7 257/231/7 232/188/7 233/192/7
f 269/164/7 262/232/7 261/204/7 268/233/7
f 248/194/7 305/157/7 246/187/7 247/157/7
f 303/234/7 296/235/7 295/236/7 302/237/7
f 288/209/7 281/164/7 280/174/7 287/164/7
f 261/204/7 226/125/7 227/132/7 260/224/7
f 283/238/7 276/239/7 275/164/7 282/208/7
f 263/240/7 270/189/7 253/54/7 254/56/7
f 271/155/7 264/154/7 233/192/7 234/193/7
f 300/241/7 299/164/7 240/171/7 241/172/7
f 270/189/7 263/240/7 262/232/7 269/164/7
f 577/12/266 548/17/175 312/17/178 311/12/251
f 304/206/7 297/157/7 296/235/7 303/234/7
f 260/224/7 227/132/7 228/134/7 259/225/7
f 282/208/7 275/164/7 274/242/7 281/164/7
f 256/181/7 263/240/7 254/56/7 255/173/7
f 278/197/7 271/155/7 234/193/7 235/195/7
f 301/243/7 300/241/7 241/172/7 242/177/7
f 276/244/7 269/64/7 268/233/7 275/164/7
f 298/205/7 305/157/7 248/194/7 249/196/7
f 259/225/7 228/134/7 229/180/7 258/245/7
f 281/164/7 274/242/7 273/246/7 280/174/7
f 265/128/7 258/245/7 257/231/7 264/154/7
f 285/178/7 278/197/7 235/195/7 236/198/7
f 302/237/7 301/243/7 242/177/7 243/182/7
f 291/135/7 298/205/7 249/196/7 250/199/7
f 258/245/7 229/180/7 230/183/7 257/231/7
f 266/226/7 259/225/7 258/245/7 265/128/7
f 263/240/7 256/181/7 225/10/7 262/203/7
f 302/237/7 295/236/7 294/247/7 301/243/7
f 292/179/7 285/178/7 236/198/7 237/200/7
f 303/234/7 302/237/7 243/182/7 244/184/7
f 268/233/7 261/204/7 260/224/7 267/223/7
f 284/136/7 291/135/7 250/199/7 251/201/7
f 257/231/7 230/183/7 231/185/7 232/188/7
f 299/164/7 292/179/7 237/200/7 238/202/7
f 301/243/7 294/247/7 293/164/7 300/241/7
f 304/186/7 303/234/7 244/184/7 245/142/7
f 277/190/7 284/136/7 251/201/7 252/191/7
f 273/246/7 266/226/7 265/128/7 272/153/7
f 294/247/7 287/164/7 286/176/7 293/164/7
f 280/174/7 273/246/7 272/153/7 279/175/7
f 274/242/7 267/223/7 266/226/7 273/246/7
f 275/164/7 268/233/7 267/223/7 274/242/7
f 295/236/7 288/209/7 287/164/7 294/247/7
f 296/235/7 289/207/7 288/209/7 295/236/7
f 297/93/7 290/248/7 289/207/7 296/235/7
f 284/136/7 277/190/7 276/239/7 283/238/7
f 298/205/7 291/135/7 290/248/7 297/93/7
f 277/190/7 270/189/7 269/64/7 276/244/7
f 398/249/267 366/90/268 365/87/269 397/250/270
f 415/251/213 422/252/213 375/253/271 374/254/272
f 408/255/213 371/256/273 370/112/274 407/257/213
f 482/35/102 458/40/223 156/40/134 154/35/103
f 410/214/213 403/258/213 402/259/213 409/215/213
f 402/259/213 397/250/270 396/260/275 395/261/276
f 432/60/213 425/262/213 424/263/213 431/264/213
f 444/60/213 437/265/213 390/58/260 389/227/265
f 562/87/184 566/90/236 334/90/160 333/87/163
f 406/266/213 401/267/277 400/98/278 405/268/213
f 404/269/213 399/95/279 398/249/267 403/258/213
f 74/15/13 10/14/12 8/2/2 72/1/1
f 422/252/213 429/270/213 376/218/248 375/253/271
f 450/29/213 449/271/213 382/35/280 381/272/281
f 424/263/213 417/213/213 416/216/213 423/273/213
f 167/94/7 103/94/71 105/142/128 169/142/7
f 181/64/7 117/64/49 119/38/30 183/38/7
f 378/274/282 346/23/283 345/20/246 377/217/245
f 164/52/168 100/52/40 98/49/38 162/49/126
f 444/60/213 389/227/265 388/60/284 387/275/285
f 445/276/213 444/60/213 387/275/285 386/277/286
f 573/52/172 576/60/287 324/60/249 323/52/173
f 574/15/180 577/12/266 311/12/251 310/15/181
f 575/113/233 565/6/288 306/112/222 337/113/234
f 459/69/108 465/72/238 174/72/137 172/69/109
f 379/278/289 347/26/290 346/23/283 378/274/282
f 128/113/83 64/110/81 62/99/75 126/98/74
f 393/75/291 361/75/292 360/72/293 392/72/294
f 344/17/247 345/20/246 547/20/176 548/17/175
f 380/29/295 348/29/296 347/26/290 379/278/289
f 392/72/294 360/72/293 359/69/258 391/69/257
f 358/58/259 359/69/258 549/69/297 550/58/262
f 394/78/298 362/78/299 361/75/292 393/75/291
f 438/60/213 431/264/213 430/279/213 437/265/213
f 345/20/246 346/23/283 551/23/263 547/20/176
f 409/215/213 402/259/213 395/261/276 394/78/298
f 381/272/281 349/32/300 348/29/296 380/29/295
f 359/69/258 360/72/293 552/72/190 549/69/297
f 68/127/105 4/7/6 2/112/5 66/6/82
f 395/261/276 363/81/301 362/78/299 394/78/298
f 346/23/283 347/26/290 553/26/231 551/23/263
f 382/35/280 350/35/302 349/32/300 381/272/281
f 360/72/293 361/75/292 554/75/191 552/72/190
f 396/260/275 364/84/303 363/81/301 395/261/276
f 449/271/213 448/228/213 383/280/304 382/35/280
f 347/26/290 348/29/296 555/29/203 553/26/231
f 383/280/304 351/40/305 350/35/302 382/35/280
f 361/75/292 362/78/299 556/78/187 554/75/191
f 397/250/270 365/87/269 364/84/303 396/260/275
f 348/29/296 349/32/300 557/32/198 555/29/203
f 384/222/255 352/43/306 351/40/305 383/280/304
f 449/281/213 442/29/213 441/229/213 448/228/213
f 362/78/299 363/81/301 558/81/188 556/78/187
f 448/228/213 447/219/213 384/222/255 383/280/304
f 371/256/273 339/127/307 338/112/308 370/6/274
f 349/32/300 350/35/302 559/35/199 557/32/198
f 408/255/213 373/282/309 372/283/310 371/256/273
f 363/81/301 364/84/303 560/84/183 558/81/188
f 372/283/310 340/4/311 339/127/307 371/256/273
f 416/216/213 409/215/213 394/78/298 393/75/291
f 350/35/302 351/40/305 561/40/202 559/35/199
f 399/95/279 367/95/312 366/90/268 398/249/267
f 364/84/303 365/87/269 562/87/184 560/84/183
f 386/277/286 354/49/313 353/46/314 385/221/254
f 351/40/305 352/43/306 563/43/115 561/40/202
f 446/220/213 439/284/213 438/60/213 445/276/213
f 373/282/309 341/1/315 340/4/311 372/283/310
f 450/29/213 381/272/281 380/29/295 379/278/289
f 385/221/254 353/46/314 352/43/306 384/222/255
f 446/220/213 445/276/213 386/277/286 385/221/254
f 338/6/308 339/127/307 564/127/316 565/112/288
f 400/98/278 368/98/317 367/95/312 399/95/279
f 365/87/269 366/90/268 566/90/236 562/87/184
f 405/268/213 400/98/278 399/95/279 404/269/213
f 387/275/285 355/52/318 354/49/313 386/277/286
f 352/43/306 353/46/314 567/46/116 563/43/115
f 374/254/272 342/15/319 341/1/315 373/282/309
f 339/127/307 340/4/311 568/4/185 564/127/316
f 408/255/213 415/251/213 374/254/272 373/282/309
f 401/267/277 369/113/320 368/98/317 400/98/278
f 366/90/268 367/95/312 569/95/194 566/90/236
f 388/60/284 356/60/321 355/52/318 387/275/285
f 353/46/314 354/49/313 570/49/171 567/46/116
f 375/253/271 343/12/322 342/15/319 374/254/272
f 340/4/311 341/1/315 571/1/179 568/4/185
f 367/95/312 368/98/317 572/98/195 569/95/194
f 354/49/313 355/52/318 573/52/172 570/49/171
f 341/1/315 342/15/319 574/15/180 571/1/179
f 368/98/317 369/113/320 575/113/233 572/98/195
f 389/227/265 357/57/264 356/60/321 388/60/284
f 437/265/213 430/279/213 391/69/257 390/58/260
f 355/52/318 356/60/321 576/60/287 573/52/172
f 429/270/213 436/285/213 377/217/245 376/218/248
f 401/267/277 370/6/274 338/112/308 369/113/320
f 342/15/319 343/12/322 577/12/266 574/15/180
f 369/113/320 338/6/308 565/112/288 575/113/233
f 376/218/248 344/17/247 343/12/322 375/253/271
f 356/60/321 357/57/264 578/57/261 576/60/287
f 436/285/213 443/286/213 378/274/282 377/217/245
f 343/12/322 344/17/247 548/17/175 577/12/266
f 413/287/213 406/266/213 405/268/213 412/288/213
f 450/29/213 443/286/213 442/29/213 449/281/213
f 70/4/4 6/3/3 4/7/6 68/127/105
f 430/279/213 423/273/213 392/72/294 391/69/257
f 357/57/264 358/58/259 550/58/262 578/57/261
f 549/69/297 552/72/190 328/72/193 327/69/205
f 431/264/213 424/263/213 423/273/213 430/279/213
f 447/219/213 440/230/213 439/284/213 446/220/213
f 403/258/213 398/249/267 397/250/270 402/259/213
f 426/60/213 419/289/213 418/58/213 425/262/213
f 425/262/213 418/58/213 417/213/213 424/263/213
f 433/290/213 426/60/213 425/262/213 432/60/213
f 427/291/213 420/60/213 419/289/213 426/60/213
f 434/292/213 427/291/213 426/60/213 433/290/213
f 421/293/213 414/17/213 413/287/213 420/60/213
f 415/251/213 408/255/213 407/294/213 414/60/213
f 435/295/213 428/296/213 427/291/213 434/292/213
f 436/285/213 429/270/213 428/296/213 435/295/213
f 407/257/213 370/112/274 401/267/277 406/266/213
f 414/60/213 407/294/213 406/266/213 413/287/213
f 412/288/213 405/268/213 404/269/213 411/297/213
f 443/286/213 450/29/213 379/278/289 378/274/282
f 445/276/213 438/60/213 437/265/213 444/60/213
f 546/111/81 64/110/81 2/6/5 515/5/5
f 423/273/213 416/216/213 393/75/291 392/72/294
f 418/58/213 411/297/213 410/214/213 417/213/213
f 439/284/213 432/60/213 431/264/213 438/60/213
f 419/289/213 412/288/213 411/297/213 418/58/213
f 420/60/213 413/287/213 412/288/213 419/289/213
f 428/298/213 421/299/213 420/60/213 427/291/213
f 440/230/213 433/290/213 432/60/213 439/284/213
f 441/229/213 434/292/213 433/290/213 440/230/213
f 442/43/213 435/300/213 434/292/213 441/229/213
f 429/270/213 422/252/213 421/299/213 428/298/213
f 443/286/213 436/285/213 435/300/213 442/43/213
f 422/252/213 415/251/213 414/17/213 421/293/213
f 312/17/178 199/17/208 198/12/252 311/12/251
f 551/23/263 553/26/231 315/26/224 314/23/227
f 565/6/288 564/127/316 307/127/218 306/112/222
f 550/58/262 549/69/297 327/69/205 326/58/144
f 300/241/7 293/164/7 292/179/7 299/164/7
f 63/159/81 514/301/81 483/302/5 1/11/5
f 61/150/75 513/303/75 514/301/81 63/159/81
f 59/143/73 512/304/73 513/303/75 61/150/75
f 57/131/69 511/305/69 512/304/73 59/143/73
f 55/126/67 510/306/67 511/305/69 57/131/69
f 53/120/65 509/307/65 510/306/67 55/126/67
f 132/127/106 68/127/105 66/112/82 130/6/164
f 51/119/63 508/308/63 509/307/65 53/120/65
f 474/52/167 479/60/170 166/60/99 164/52/168
f 508/308/63 51/119/63 49/170/61 507/309/61
f 47/166/59 506/310/59 507/309/61 49/170/61
f 45/158/57 505/311/57 506/310/59 47/166/59
f 43/148/55 504/312/55 505/311/57 45/158/57
f 41/141/53 503/313/53 504/312/55 43/148/55
f 39/130/51 502/314/51 503/313/53 41/141/53
f 37/123/47 501/315/47 502/314/51 39/130/51
f 35/117/41 500/316/41 501/315/47 37/123/47
f 456/17/219 455/20/155 144/20/78 142/17/154
f 500/316/41 35/117/41 33/116/39 499/317/39
f 31/169/37 498/318/37 499/317/39 33/116/39
f 29/165/35 497/319/35 498/318/37 31/169/37
f 27/156/33 496/320/33 497/319/35 29/165/35
f 475/78/253 480/81/165 180/81/89 178/78/136
f 25/145/29 495/321/29 496/320/33 27/156/33
f 23/139/27 494/322/27 495/321/29 25/145/29
f 21/129/23 493/323/23 494/322/27 23/139/27
f 19/122/21 492/324/21 493/323/23 21/129/23
f 458/40/223 457/43/210 158/43/143 156/40/134
f 468/26/158 473/29/94 150/29/97 148/26/24
f 492/324/21 19/122/21 17/107/19 491/325/19
f 3/124/6 1/11/5 483/302/5 484/212/6
f 15/106/17 490/326/17 491/325/19 17/107/19
f 13/168/15 489/327/15 490/326/17 15/106/17
f 11/163/11 488/328/11 489/327/15 13/168/15
f 9/151/12 487/329/12 488/328/11 11/163/11
f 7/144/2 486/330/2 487/329/12 9/151/12
f 5/133/3 485/331/3 486/330/2 7/144/2
f 3/124/6 484/212/6 485/331/3 5/133/3
f 514/301/81 546/111/81 515/211/5 483/210/5
f 513/303/75 545/105/75 546/111/81 514/301/81
f 512/304/73 544/104/73 545/105/75 513/303/75
f 511/305/69 543/101/69 544/104/73 512/304/73
f 510/306/67 542/100/67 543/101/69 511/305/69
f 509/307/65 541/97/65 542/100/67 510/306/67
f 508/308/63 540/92/63 541/97/65 509/307/65
f 507/309/61 539/89/61 540/92/63 508/308/63
f 506/310/59 538/86/59 539/89/61 507/309/61
f 505/311/57 537/83/57 538/86/59 506/310/59
f 504/312/55 536/80/55 537/83/57 505/311/57
f 503/313/53 535/77/53 536/80/55 504/312/55
f 502/314/51 534/74/51 535/77/53 503/313/53
f 501/315/47 533/71/47 534/74/51 502/314/51
f 500/316/41 532/68/41 533/71/47 501/315/47
f 499/317/39 531/66/39 532/68/41 500/316/41
f 498/318/37 530/62/37 531/66/39 499/317/39
f 497/319/35 529/59/35 530/62/37 498/318/37
f 496/320/33 528/51/33 529/59/35 497/319/35
f 495/321/29 527/48/29 528/51/33 496/320/33
f 494/322/27 526/45/27 527/48/29 495/321/29
f 493/323/23 525/42/23 526/45/27 494/322/27
f 492/324/21 524/37/21 525/42/23 493/323/23
f 491/325/19 523/34/19 524/37/21 492/324/21
f 490/326/17 522/31/17 523/34/19 491/325/19
f 489/327/15 521/28/15 522/31/17 490/326/17
f 488/328/11 520/25/11 521/28/15 489/327/15
f 487/329/12 519/22/12 520/25/11 488/328/11
f 486/330/2 518/19/2 519/22/12 487/329/12
f 485/331/3 517/16/3 518/19/2 486/330/2
f 484/212/6 516/8/6 517/16/3 485/331/3
f 411/297/213 404/269/213 403/258/213 410/214/213
f 461/6/229 460/127/211 132/127/106 130/112/164
f 454/84/166 453/87/209 184/87/93 182/84/88
f 477/113/256 461/6/229 130/112/164 192/113/139
f 472/98/113 477/113/256 192/113/139 190/98/114
f 166/60/99 102/60/46 100/52/40 164/52/168
f 481/12/150 456/17/219 142/17/154 140/12/140
f 465/72/238 470/75/244 176/75/141 174/72/137
f 470/75/244 475/78/253 178/78/136 176/75/141
f 333/87/163 220/87/162 219/84/85 332/84/84
f 471/1/131 476/15/149 138/15/132 136/1/119
f 564/127/316 568/4/185 308/4/186 307/127/218
f 576/60/287 578/57/261 325/57/147 324/60/249
o Plane.002
v 880.237488 -1.000853 3.350070
v 893.391418 -1.000853 3.350070
v 880.237488 -1.000855 -3.389223
v 893.391418 -1.000855 -3.389223
vn -0.0000 1.0000 -0.0000
vt 0.000000 0.000000
vt 1.000000 0.000000
vt 1.000000 1.000000
vt 0.000000 1.000000
s 1
usemtl Material.001
f 579/332/323 580/333/323 582/334/323 581/335/323
