# File generated by ImageToStl.com - Free Image and 3D model conversion tools

mtllib simple_shooting_range_target.mtl

o obj1
v -0.01590598 0.80250972 0.04568924
v -0.01590598 -0.02347879 0.0456892
v 0.01590598 -0.02347879 0.0456892
v 0.01590598 0.80250972 0.04568924
v -0.01590598 0.80250973 -0.04568893
v 0.01590598 0.80250973 -0.04568893
v -0.01590598 -0.02347878 -0.04568896
v 0.01590598 -0.02347878 -0.04568896
v -0.01590598 -0.02347879 0.0456892
v 0.01590598 -0.02347879 0.0456892
v 0.01590598 -0.02347878 -0.04568896
v 0.01590598 0.80250973 -0.04568893
v -0.01590598 0.80250973 -0.04568893
v -0.01590598 -0.02347878 -0.04568896
v -0.02773466 -0.47992008 -0.02013611
v -0.02773466 -0.40022283 -0.01006798
v -0.02773466 -0.39833213 -0.01997737
v -0.02773466 -0.47613943 -0.03995481
v -0.02773466 -0.39521516 -0.02957162
v -0.02773466 -0.46990474 -0.05914338
v -0.02773466 -0.39091933 -0.03869961
v -0.02773466 -0.46131388 -0.07739927
v -0.02773466 -0.38551443 -0.0472172
v -0.02773466 -0.45050327 -0.09443455
v -0.02773466 -0.37908393 -0.05499015
v -0.02773466 -0.43764228 -0.10998076
v -0.02773466 -0.37172973 -0.06189583
v -0.02773466 -0.42293463 -0.12379196
v -0.02773466 -0.36356819 -0.06782549
v -0.02773466 -0.40661161 -0.13565065
v -0.02773466 -0.35472855 -0.07268541
v -0.02773466 -0.38893151 -0.14537064
v -0.02773466 -0.34534882 -0.07639902
v -0.02773466 -0.37017206 -0.15279787
v -0.02773466 -0.33557746 -0.07890783
v -0.02773466 -0.35063014 -0.15781596
v -0.02773466 -0.32556937 -0.08017218
v -0.02773466 -0.33061314 -0.16034466
v -0.02773466 -0.31548101 -0.08017218
v -0.02773466 -0.31043725 -0.16034466
v -0.02773466 -0.30547211 -0.07890783
v -0.02773466 -0.29042023 -0.15781595
v -0.02773466 -0.29570155 -0.07639902
v -0.02773466 -0.27087752 -0.15279787
v -0.02773466 -0.28632183 -0.07268541
v -0.02773466 -0.25211886 -0.14537063
v -0.02773466 -0.27748137 -0.06782541
v -0.02773466 -0.23443797 -0.13565064
v -0.02773466 -0.26932065 -0.06189582
v -0.02773466 -0.21811571 -0.12379195
v -0.02773466 -0.26196645 -0.05499007
v -0.02773466 -0.20340733 -0.10997995
v -0.02773466 -0.25553595 -0.04721711
v -0.02773466 -0.19054711 -0.09443454
v -0.02773466 -0.25013024 -0.03869952
v -0.02773466 -0.17973649 -0.07739918
v -0.02773466 -0.24583521 -0.02957161
v -0.02773466 -0.17114563 -0.05914337
v -0.02773466 -0.24271825 -0.01997729
v -0.02773466 -0.16491093 -0.0399548
v -0.02773466 -0.24082755 -0.01006798
v -0.02773466 -0.16113031 -0.0201361
v -0.02773466 -0.24019438 1.4E-07
v -0.02773466 -0.15986315 1.5E-07
v -0.02773466 -0.24082755 0.01006828
v -0.02773466 -0.16113031 0.02013641
v -0.02773466 -0.24271826 0.01997759
v -0.02773466 -0.16491094 0.03995511
v -0.02773466 -0.24583522 0.02957191
v -0.02773466 -0.17114564 0.05914368
v -0.02773466 -0.25013024 0.03869982
v -0.02773466 -0.1797365 0.07739948
v -0.02773466 -0.25553596 0.04721742
v -0.02773466 -0.19054712 0.09443452
v -0.02773466 -0.26196645 0.05499036
v -0.02773466 -0.20340813 0.10998073
v -0.02773466 -0.26932065 0.06189612
v -0.02773466 -0.21811572 0.12379193
v -0.02773466 -0.27748138 0.0678257
v -0.02773466 -0.23443798 0.13565142
v -0.02773466 -0.28632183 0.07268562
v -0.02773466 -0.25211887 0.14537141
v -0.02773466 -0.29570156 0.07639932
v -0.02773466 -0.27087754 0.15279864
v -0.02773466 -0.30547293 0.07890804
v -0.02773466 -0.29042024 0.15781593
v -0.02773466 -0.31548102 0.08017239
v -0.02773466 -0.31043726 0.16034463
v -0.02773466 -0.32556937 0.08017239
v -0.02773466 -0.33061316 0.16034463
v -0.02773466 -0.33557746 0.07890804
v -0.02773466 -0.35063015 0.15781592
v -0.02773466 -0.34534883 0.07639923
v -0.02773466 -0.37017207 0.15279864
v -0.02773466 -0.35472856 0.07268562
v -0.02773466 -0.38893153 0.14537141
v -0.02773466 -0.3635682 0.06782562
v -0.02773466 -0.40661162 0.13565141
v -0.02773466 -0.37172973 0.06189603
v -0.02773466 -0.42293464 0.12379192
v -0.02773466 -0.37908394 0.05499036
v -0.02773466 -0.43764229 0.10998072
v -0.02773466 -0.38551364 0.04721741
v -0.02773466 -0.45050327 0.09443451
v -0.02773466 -0.39091933 0.03869981
v -0.02773466 -0.46131389 0.07739939
v -0.02773466 -0.39521438 0.02957182
v -0.02773466 -0.46990475 0.05914358
v -0.02773466 -0.39833213 0.01997758
v -0.02773466 -0.47613944 0.03995501
v -0.02773466 -0.40022202 0.01006827
v -0.02773466 -0.47992009 0.02013639
v -0.02773466 -0.400856 1.3E-07
v -0.02773466 -0.48118642 1.2E-07
v -0.02773466 -0.55961731 -0.03020424
v -0.02773466 -0.553946 -0.05993234
v -0.02773466 -0.54459435 -0.08871507
v -0.02773466 -0.53170844 -0.1160991
v -0.02773466 -0.51549213 -0.14165182
v -0.02773466 -0.49620139 -0.16497034
v -0.02773466 -0.47413961 -0.18568793
v -0.02773466 -0.44965503 -0.20347635
v -0.02773466 -0.42313448 -0.21805635
v -0.02773466 -0.39499608 -0.22919759
v -0.02773466 -0.3656828 -0.23672354
v -0.02773466 -0.3356569 -0.240517
v -0.02773466 -0.30539265 -0.240517
v -0.02773466 -0.27536756 -0.23672353
v -0.02773466 -0.24605428 -0.22919758
v -0.02773466 -0.2179151 -0.21805634
v -0.02773466 -0.19139455 -0.20347634
v -0.02773466 -0.16691078 -0.18568791
v -0.02773466 -0.14484898 -0.16497033
v -0.02773466 -0.12555826 -0.1416518
v -0.02773466 -0.10934195 -0.11609908
v -0.02773466 -0.09645605 -0.08871505
v -0.02773466 -0.0871036 -0.05993223
v -0.02773466 -0.08143307 -0.03020422
v -0.02773466 -0.07953257 1.6E-07
v -0.02773466 -0.08143307 0.03020454
v -0.02773466 -0.08710361 0.05993255
v -0.02773466 -0.09645605 0.08871504
v -0.02773466 -0.10934196 0.11609907
v -0.02773466 -0.12555828 0.14165179
v -0.02773466 -0.144849 0.16497111
v -0.02773466 -0.16691079 0.1856879
v -0.02773466 -0.19139457 0.20347714
v -0.02773466 -0.2179159 0.21805632
v -0.02773466 -0.2460543 0.22919756
v -0.02773466 -0.27536758 0.2367243
v -0.02773466 -0.30539267 0.24051698
v -0.02773466 -0.33565692 0.24051697
v -0.02773466 -0.36568282 0.23672351
v -0.02773466 -0.3949961 0.22919755
v -0.02773466 -0.4231345 0.21805632
v -0.02773466 -0.44965505 0.20347632
v -0.02773466 -0.47413963 0.18568788
v -0.02773466 -0.49620059 0.1649711
v -0.02773466 -0.51549214 0.14165178
v -0.02773466 -0.53170845 0.11609905
v -0.02773466 -0.54459435 0.08871502
v -0.02773466 -0.553946 0.05993244
v -0.02773466 -0.55961731 0.03020443
v -0.02773466 -0.56151768 1.2E-07
v -0.02773466 -0.63931453 -0.04027237
v -0.02773466 -0.63175333 -0.07990977
v -0.02773466 -0.6192839 -0.11828675
v -0.02773466 -0.60210299 -0.15479853
v -0.02773466 -0.58048095 -0.18886909
v -0.02773466 -0.55475973 -0.21996072
v -0.02773466 -0.52534454 -0.24758391
v -0.02773466 -0.49269841 -0.27130207
v -0.02773466 -0.45733744 -0.29074208
v -0.02773466 -0.41981929 -0.30559652
v -0.02773466 -0.38073467 -0.3156319
v -0.02773466 -0.34070068 -0.32068931
v -0.02773466 -0.30034888 -0.32068931
v -0.02773466 -0.26031487 -0.31563189
v -0.02773466 -0.22123025 -0.30559651
v -0.02773466 -0.18371211 -0.29074207
v -0.02773466 -0.14835113 -0.27130206
v -0.02773466 -0.11570584 -0.24758389
v -0.02773466 -0.08629065 -0.2199607
v -0.02773466 -0.06056893 -0.18886906
v -0.02773466 -0.03894732 -0.15479851
v -0.02773466 -0.02176615 -0.11828672
v -0.02773466 -0.00929675 -0.07990967
v -0.02773466 -0.00173546 -0.04027234
v -0.02773466 0.00079818 1.8E-07
v -0.02773466 -0.00173546 0.04027267
v -0.02773466 -0.00929676 0.07990999
v -0.02773466 -0.02176616 0.11828752
v -0.02773466 -0.03894733 0.15479851
v -0.02773466 -0.06056911 0.18886906
v -0.02773466 -0.08629067 0.21996069
v -0.02773466 -0.11570586 0.24758388
v -0.02773466 -0.14835115 0.27130204
v -0.02773466 -0.18371214 0.29074205
v -0.02773466 -0.22123107 0.30559649
v -0.02773466 -0.2603149 0.31563187
v -0.02773466 -0.30034891 0.32068928
v -0.02773466 -0.34070071 0.32068928
v -0.02773466 -0.3807347 0.31563186
v -0.02773466 -0.41981932 0.30559648
v -0.02773466 -0.45733747 0.29074204
v -0.02773466 -0.49269843 0.27130203
v -0.02773466 -0.52534375 0.24758386
v -0.02773466 -0.55475975 0.21996067
v -0.02773466 -0.58048096 0.18886903
v -0.02773466 -0.602103 0.15479848
v -0.02773466 -0.61928391 0.11828669
v -0.02773466 -0.63175334 0.07990996
v -0.02773466 -0.63931454 0.04027256
v -0.02773466 -0.64184807 1.2E-07
v -0.02773466 -0.71901181 -0.0503405
v -0.02773466 -0.70956066 -0.09988761
v -0.02773466 -0.69397351 -0.14785844
v -0.02773466 -0.67249754 -0.19349797
v -0.02773466 -0.64546981 -0.23608636
v -0.02773466 -0.61331803 -0.27495109
v -0.02773466 -0.57654947 -0.30947987
v -0.02773466 -0.53574183 -0.33912779
v -0.02773466 -0.49154122 -0.36342778
v -0.02773466 -0.44464334 -0.38199545
v -0.02773466 -0.39578735 -0.39453949
v -0.02773466 -0.34574525 -0.40086164
v -0.02773466 -0.2953051 -0.40086164
v -0.02773466 -0.2452622 -0.39453948
v -0.02773466 -0.19640701 -0.38199544
v -0.02773466 -0.14950916 -0.36342776
v -0.02773466 -0.10530771 -0.33912777
v -0.02773466 -0.06450098 -0.30947985
v -0.02773466 -0.02773167 -0.27495106
v -0.02773466 0.00442 -0.23608633
v -0.02773466 0.03144716 -0.19349794
v -0.02773466 0.0529236 -0.14785841
v -0.02773466 0.06851034 -0.09988678
v -0.02773466 0.0779619 -0.05034039
v -0.02773466 0.08112892 1.9E-07
v -0.02773466 0.07796189 0.0503408
v -0.02773466 0.06851033 0.09988758
v -0.02773466 0.05292351 0.14785921
v -0.02773466 0.03144714 0.19349874
v -0.02773466 0.00441985 0.23608633
v -0.02773466 -0.02773186 0.27495106
v -0.02773466 -0.06450117 0.30947984
v -0.02773466 -0.10530856 0.33912776
v -0.02773466 -0.14950919 0.36342775
v -0.02773466 -0.19640704 0.38199542
v -0.02773466 -0.24526305 0.39453946
v -0.02773466 -0.29530513 0.40086161
v -0.02773466 -0.34574528 0.40086161
v -0.02773466 -0.39578739 0.39453946
v -0.02773466 -0.44464337 0.38199541
v -0.02773466 -0.49154125 0.36342774
v -0.02773466 -0.53574186 0.33912774
v -0.02773466 -0.57654869 0.30947982
v -0.02773466 -0.61331805 0.27495104
v -0.02773466 -0.64546983 0.23608631
v -0.02773466 -0.67249675 0.19349871
v -0.02773466 -0.69397352 0.14785838
v -0.02773466 -0.70956067 0.09988755
v -0.02773466 -0.71901181 0.05034068
v -0.02773466 -0.72217928 1.1E-07
v -0.02773466 -0.79870984 -0.06040871
v -0.02773466 -0.78736794 -0.11986449
v -0.02773466 -0.76866306 -0.17743012
v -0.02773466 -0.74289205 -0.23219819
v -0.02773466 -0.71045944 -0.28330363
v -0.02773466 -0.67187719 -0.32994148
v -0.02773466 -0.62775359 -0.37137584
v -0.02773466 -0.57878525 -0.40695351
v -0.02773466 -0.52574418 -0.43611269
v -0.02773466 -0.46946657 -0.45839516
v -0.02773466 -0.41084001 -0.47344787
v -0.02773466 -0.35078903 -0.48103399
v -0.02773466 -0.29026052 -0.48103399
v -0.02773466 -0.23021033 -0.47344787
v -0.02773466 -0.17158378 -0.45839515
v -0.02773466 -0.11530619 -0.43611267
v -0.02773466 -0.06226454 -0.40695349
v -0.02773466 -0.01329621 -0.37137581
v -0.02773466 0.0308269 -0.32994145
v -0.02773466 0.069409 -0.28330359
v -0.02773466 0.1018417 -0.23219815
v -0.02773466 0.1276135 -0.17743008
v -0.02773466 0.1463176 -0.11986445
v -0.02773466 0.15765946 -0.06040851
v -0.02773466 0.16146014 2E-07
v -0.02773466 0.15765945 0.06040892
v -0.02773466 0.14631758 0.11986526
v -0.02773466 0.12761348 0.17743089
v -0.02773466 0.10184168 0.23219816
v -0.02773466 0.06940889 0.2833036
v -0.02773466 0.03082671 0.32994145
v -0.02773466 -0.0132964 0.37137581
v -0.02773466 -0.06226474 0.40695348
v -0.02773466 -0.11530622 0.43611266
v -0.02773466 -0.17158382 0.45839514
v -0.02773466 -0.23021037 0.47344785
v -0.02773466 -0.29026138 0.48103397
v -0.02773466 -0.35078907 0.48103396
v -0.02773466 -0.41084006 0.47344784
v -0.02773466 -0.46946661 0.45839512
v -0.02773466 -0.52574422 0.43611264
v -0.02773466 -0.57878528 0.40695346
v -0.02773466 -0.62775362 0.37137578
v -0.02773466 -0.67187722 0.32994142
v -0.02773466 -0.71045865 0.28330356
v -0.02773466 -0.74289131 0.23219812
v -0.02773466 -0.76866308 0.17743085
v -0.02773466 -0.78736719 0.11986522
v -0.02773466 -0.79870904 0.0604088
v -0.02773466 -0.80250973 1.1E-07
v 0.02773466 -0.79870984 -0.06040871
v -0.02773466 -0.79870984 -0.06040871
v -0.02773466 -0.78736794 -0.11986449
v 0.02773466 -0.78736794 -0.11986449
v -0.02773466 -0.76866306 -0.17743012
v 0.02773466 -0.76866306 -0.17743012
v -0.02773466 -0.74289205 -0.23219819
v 0.02773466 -0.74289205 -0.23219819
v -0.02773466 -0.71045944 -0.28330363
v 0.02773466 -0.71045944 -0.28330363
v -0.02773466 -0.67187719 -0.32994148
v 0.02773466 -0.67187719 -0.32994148
v -0.02773466 -0.62775359 -0.37137584
v 0.02773466 -0.62775359 -0.37137584
v -0.02773466 -0.57878525 -0.40695351
v 0.02773466 -0.57878525 -0.40695351
v -0.02773466 -0.52574418 -0.43611269
v 0.02773466 -0.52574418 -0.43611269
v -0.02773466 -0.46946657 -0.45839516
v 0.02773466 -0.46946657 -0.45839516
v -0.02773466 -0.41084001 -0.47344787
v 0.02773466 -0.41084001 -0.47344787
v -0.02773466 -0.35078903 -0.48103399
v 0.02773466 -0.35078903 -0.48103399
v -0.02773466 -0.29026052 -0.48103399
v 0.02773466 -0.29026052 -0.48103399
v -0.02773466 -0.23021033 -0.47344787
v 0.02773466 -0.23021033 -0.47344787
v -0.02773466 -0.17158378 -0.45839515
v 0.02773466 -0.17158378 -0.45839515
v -0.02773466 -0.11530619 -0.43611267
v 0.02773466 -0.11530619 -0.43611267
v -0.02773466 -0.06226454 -0.40695349
v 0.02773466 -0.06226454 -0.40695349
v -0.02773466 -0.01329621 -0.37137581
v 0.02773466 -0.01329621 -0.37137581
v -0.02773466 0.0308269 -0.32994145
v 0.02773466 0.0308269 -0.32994145
v -0.02773466 0.069409 -0.28330359
v 0.02773466 0.069409 -0.28330359
v -0.02773466 0.1018417 -0.23219815
v 0.02773466 0.1018417 -0.23219815
v -0.02773466 0.1276135 -0.17743008
v 0.02773466 0.1276135 -0.17743008
v -0.02773466 0.1463176 -0.11986445
v 0.02773466 0.1463176 -0.11986445
v -0.02773466 0.15765946 -0.06040851
v 0.02773466 0.15765946 -0.06040851
v -0.02773466 0.16146014 2E-07
v 0.02773466 0.16146014 2E-07
v -0.02773466 0.15765945 0.06040892
v 0.02773466 0.15765945 0.06040892
v -0.02773466 0.14631758 0.11986526
v 0.02773466 0.14631758 0.11986526
v -0.02773466 0.12761348 0.17743089
v 0.02773466 0.12761348 0.17743089
v -0.02773466 0.10184168 0.23219816
v 0.02773466 0.10184168 0.23219816
v -0.02773466 0.06940889 0.2833036
v 0.02773466 0.06940889 0.2833036
v -0.02773466 0.03082671 0.32994145
v 0.02773466 0.03082671 0.32994145
v -0.02773466 -0.0132964 0.37137581
v 0.02773466 -0.0132964 0.37137581
v -0.02773466 -0.06226474 0.40695348
v 0.02773466 -0.06226474 0.40695348
v -0.02773466 -0.11530622 0.43611266
v 0.02773466 -0.11530622 0.43611266
v -0.02773466 -0.17158382 0.45839514
v 0.02773466 -0.17158382 0.45839514
v -0.02773466 -0.23021037 0.47344785
v 0.02773466 -0.23021037 0.47344785
v -0.02773466 -0.29026138 0.48103397
v 0.02773466 -0.29026138 0.48103397
v -0.02773466 -0.35078907 0.48103396
v 0.02773466 -0.35078907 0.48103396
v -0.02773466 -0.41084006 0.47344784
v 0.02773466 -0.41084006 0.47344784
v -0.02773466 -0.46946661 0.45839512
v 0.02773466 -0.46946661 0.45839512
v -0.02773466 -0.52574422 0.43611264
v 0.02773466 -0.52574422 0.43611264
v -0.02773466 -0.57878528 0.40695346
v 0.02773466 -0.57878528 0.40695346
v -0.02773466 -0.62775362 0.37137578
v 0.02773466 -0.62775362 0.37137578
v -0.02773466 -0.67187722 0.32994142
v 0.02773466 -0.67187722 0.32994142
v -0.02773466 -0.71045865 0.28330356
v 0.02773466 -0.71045865 0.28330356
v -0.02773466 -0.74289131 0.23219812
v 0.02773466 -0.74289131 0.23219812
v -0.02773466 -0.76866308 0.17743085
v 0.02773466 -0.76866308 0.17743085
v -0.02773466 -0.78736719 0.11986522
v 0.02773466 -0.78736719 0.11986522
v -0.02773466 -0.79870904 0.0604088
v 0.02773466 -0.79870904 0.0604088
v -0.02773466 -0.80250973 1.1E-07
v 0.02773466 -0.80250973 1.1E-07
v -0.02773466 -0.79870984 -0.06040871
v 0.02773466 -0.79870984 -0.06040871
v 0.02773466 -0.71901181 -0.0503405
v 0.02773466 -0.79870984 -0.06040871
v 0.02773466 -0.78736794 -0.11986449
v 0.02773466 -0.70956066 -0.09988761
v 0.02773466 -0.76866306 -0.17743012
v 0.02773466 -0.69397351 -0.14785844
v 0.02773466 -0.74289205 -0.23219819
v 0.02773466 -0.67249754 -0.19349797
v 0.02773466 -0.71045944 -0.28330363
v 0.02773466 -0.64546981 -0.23608636
v 0.02773466 -0.67187719 -0.32994148
v 0.02773466 -0.61331803 -0.27495109
v 0.02773466 -0.62775359 -0.37137584
v 0.02773466 -0.57654947 -0.30947987
v 0.02773466 -0.57878525 -0.40695351
v 0.02773466 -0.53574183 -0.33912779
v 0.02773466 -0.52574418 -0.43611269
v 0.02773466 -0.49154122 -0.36342778
v 0.02773466 -0.46946657 -0.45839516
v 0.02773466 -0.44464334 -0.38199545
v 0.02773466 -0.41084001 -0.47344787
v 0.02773466 -0.39578735 -0.39453949
v 0.02773466 -0.35078903 -0.48103399
v 0.02773466 -0.34574525 -0.40086164
v 0.02773466 -0.29026052 -0.48103399
v 0.02773466 -0.2953051 -0.40086164
v 0.02773466 -0.23021033 -0.47344787
v 0.02773466 -0.2452622 -0.39453948
v 0.02773466 -0.17158378 -0.45839515
v 0.02773466 -0.19640701 -0.38199544
v 0.02773466 -0.11530619 -0.43611267
v 0.02773466 -0.14950916 -0.36342776
v 0.02773466 -0.06226454 -0.40695349
v 0.02773466 -0.10530771 -0.33912777
v 0.02773466 -0.01329621 -0.37137581
v 0.02773466 -0.06450098 -0.30947985
v 0.02773466 0.0308269 -0.32994145
v 0.02773466 -0.02773167 -0.27495106
v 0.02773466 0.069409 -0.28330359
v 0.02773466 0.00442 -0.23608633
v 0.02773466 0.1018417 -0.23219815
v 0.02773466 0.03144716 -0.19349794
v 0.02773466 0.1276135 -0.17743008
v 0.02773466 0.0529236 -0.14785841
v 0.02773466 0.1463176 -0.11986445
v 0.02773466 0.06851034 -0.09988678
v 0.02773466 0.15765946 -0.06040851
v 0.02773466 0.0779619 -0.05034039
v 0.02773466 0.16146014 2E-07
v 0.02773466 0.08112892 1.9E-07
v 0.02773466 0.15765945 0.06040892
v 0.02773466 0.07796189 0.0503408
v 0.02773466 0.14631758 0.11986526
v 0.02773466 0.06851033 0.09988758
v 0.02773466 0.12761348 0.17743089
v 0.02773466 0.05292351 0.14785921
v 0.02773466 0.10184168 0.23219816
v 0.02773466 0.03144714 0.19349874
v 0.02773466 0.06940889 0.2833036
v 0.02773466 0.00441985 0.23608633
v 0.02773466 0.03082671 0.32994145
v 0.02773466 -0.02773186 0.27495106
v 0.02773466 -0.0132964 0.37137581
v 0.02773466 -0.06450117 0.30947984
v 0.02773466 -0.06226474 0.40695348
v 0.02773466 -0.10530856 0.33912776
v 0.02773466 -0.11530622 0.43611266
v 0.02773466 -0.14950919 0.36342775
v 0.02773466 -0.17158382 0.45839514
v 0.02773466 -0.19640704 0.38199542
v 0.02773466 -0.23021037 0.47344785
v 0.02773466 -0.24526305 0.39453946
v 0.02773466 -0.29026138 0.48103397
v 0.02773466 -0.29530513 0.40086161
v 0.02773466 -0.35078907 0.48103396
v 0.02773466 -0.34574528 0.40086161
v 0.02773466 -0.41084006 0.47344784
v 0.02773466 -0.39578739 0.39453946
v 0.02773466 -0.46946661 0.45839512
v 0.02773466 -0.44464337 0.38199541
v 0.02773466 -0.52574422 0.43611264
v 0.02773466 -0.49154125 0.36342774
v 0.02773466 -0.57878528 0.40695346
v 0.02773466 -0.53574186 0.33912774
v 0.02773466 -0.62775362 0.37137578
v 0.02773466 -0.57654869 0.30947982
v 0.02773466 -0.67187722 0.32994142
v 0.02773466 -0.61331805 0.27495104
v 0.02773466 -0.71045865 0.28330356
v 0.02773466 -0.64546983 0.23608631
v 0.02773466 -0.74289131 0.23219812
v 0.02773466 -0.67249675 0.19349871
v 0.02773466 -0.76866308 0.17743085
v 0.02773466 -0.69397352 0.14785838
v 0.02773466 -0.78736719 0.11986522
v 0.02773466 -0.70956067 0.09988755
v 0.02773466 -0.79870904 0.0604088
v 0.02773466 -0.71901181 0.05034068
v 0.02773466 -0.80250973 1.1E-07
v 0.02773466 -0.72217928 1.1E-07
v 0.02773466 -0.63931453 -0.04027237
v 0.02773466 -0.63175333 -0.07990977
v 0.02773466 -0.6192839 -0.11828675
v 0.02773466 -0.60210299 -0.15479853
v 0.02773466 -0.58048095 -0.18886909
v 0.02773466 -0.55475973 -0.21996072
v 0.02773466 -0.52534454 -0.24758391
v 0.02773466 -0.49269841 -0.27130207
v 0.02773466 -0.45733744 -0.29074208
v 0.02773466 -0.41981929 -0.30559652
v 0.02773466 -0.38073467 -0.3156319
v 0.02773466 -0.34070068 -0.32068931
v 0.02773466 -0.30034888 -0.32068931
v 0.02773466 -0.26031487 -0.31563189
v 0.02773466 -0.22123025 -0.30559651
v 0.02773466 -0.18371211 -0.29074207
v 0.02773466 -0.14835113 -0.27130206
v 0.02773466 -0.11570584 -0.24758389
v 0.02773466 -0.08629065 -0.2199607
v 0.02773466 -0.06056893 -0.18886906
v 0.02773466 -0.03894732 -0.15479851
v 0.02773466 -0.02176615 -0.11828672
v 0.02773466 -0.00929675 -0.07990967
v 0.02773466 -0.00173546 -0.04027234
v 0.02773466 0.00079818 1.8E-07
v 0.02773466 -0.00173546 0.04027267
v 0.02773466 -0.00929676 0.07990999
v 0.02773466 -0.02176616 0.11828752
v 0.02773466 -0.03894733 0.15479851
v 0.02773466 -0.06056911 0.18886906
v 0.02773466 -0.08629067 0.21996069
v 0.02773466 -0.11570586 0.24758388
v 0.02773466 -0.14835115 0.27130204
v 0.02773466 -0.18371214 0.29074205
v 0.02773466 -0.22123107 0.30559649
v 0.02773466 -0.2603149 0.31563187
v 0.02773466 -0.30034891 0.32068928
v 0.02773466 -0.34070071 0.32068928
v 0.02773466 -0.3807347 0.31563186
v 0.02773466 -0.41981932 0.30559648
v 0.02773466 -0.45733747 0.29074204
v 0.02773466 -0.49269843 0.27130203
v 0.02773466 -0.52534375 0.24758386
v 0.02773466 -0.55475975 0.21996067
v 0.02773466 -0.58048096 0.18886903
v 0.02773466 -0.602103 0.15479848
v 0.02773466 -0.61928391 0.11828669
v 0.02773466 -0.63175334 0.07990996
v 0.02773466 -0.63931454 0.04027256
v 0.02773466 -0.64184807 1.2E-07
v 0.02773466 -0.55961731 -0.03020424
v 0.02773466 -0.553946 -0.05993234
v 0.02773466 -0.54459435 -0.08871507
v 0.02773466 -0.53170844 -0.1160991
v 0.02773466 -0.51549213 -0.14165182
v 0.02773466 -0.49620139 -0.16497034
v 0.02773466 -0.47413961 -0.18568793
v 0.02773466 -0.44965503 -0.20347635
v 0.02773466 -0.42313448 -0.21805635
v 0.02773466 -0.39499608 -0.22919759
v 0.02773466 -0.3656828 -0.23672354
v 0.02773466 -0.3356569 -0.240517
v 0.02773466 -0.30539265 -0.240517
v 0.02773466 -0.27536756 -0.23672353
v 0.02773466 -0.24605428 -0.22919758
v 0.02773466 -0.2179151 -0.21805634
v 0.02773466 -0.19139455 -0.20347634
v 0.02773466 -0.16691078 -0.18568791
v 0.02773466 -0.14484898 -0.16497033
v 0.02773466 -0.12555826 -0.1416518
v 0.02773466 -0.10934195 -0.11609908
v 0.02773466 -0.09645605 -0.08871505
v 0.02773466 -0.0871036 -0.05993223
v 0.02773466 -0.08143307 -0.03020422
v 0.02773466 -0.07953257 1.6E-07
v 0.02773466 -0.08143307 0.03020454
v 0.02773466 -0.08710361 0.05993255
v 0.02773466 -0.09645605 0.08871504
v 0.02773466 -0.10934196 0.11609907
v 0.02773466 -0.12555828 0.14165179
v 0.02773466 -0.144849 0.16497111
v 0.02773466 -0.16691079 0.1856879
v 0.02773466 -0.19139457 0.20347714
v 0.02773466 -0.2179159 0.21805632
v 0.02773466 -0.2460543 0.22919756
v 0.02773466 -0.27536758 0.2367243
v 0.02773466 -0.30539267 0.24051698
v 0.02773466 -0.33565692 0.24051697
v 0.02773466 -0.36568282 0.23672351
v 0.02773466 -0.3949961 0.22919755
v 0.02773466 -0.4231345 0.21805632
v 0.02773466 -0.44965505 0.20347632
v 0.02773466 -0.47413963 0.18568788
v 0.02773466 -0.49620059 0.1649711
v 0.02773466 -0.51549214 0.14165178
v 0.02773466 -0.53170845 0.11609905
v 0.02773466 -0.54459435 0.08871502
v 0.02773466 -0.553946 0.05993244
v 0.02773466 -0.55961731 0.03020443
v 0.02773466 -0.56151768 1.2E-07
v 0.02773466 -0.47992008 -0.02013611
v 0.02773466 -0.47613943 -0.03995481
v 0.02773466 -0.46990474 -0.05914338
v 0.02773466 -0.46131388 -0.07739927
v 0.02773466 -0.45050327 -0.09443455
v 0.02773466 -0.43764228 -0.10998076
v 0.02773466 -0.42293463 -0.12379196
v 0.02773466 -0.40661161 -0.13565065
v 0.02773466 -0.38893151 -0.14537064
v 0.02773466 -0.37017206 -0.15279787
v 0.02773466 -0.35063014 -0.15781596
v 0.02773466 -0.33061314 -0.16034466
v 0.02773466 -0.31043725 -0.16034466
v 0.02773466 -0.29042023 -0.15781595
v 0.02773466 -0.27087752 -0.15279787
v 0.02773466 -0.25211886 -0.14537063
v 0.02773466 -0.23443797 -0.13565064
v 0.02773466 -0.21811571 -0.12379195
v 0.02773466 -0.20340733 -0.10997995
v 0.02773466 -0.19054711 -0.09443454
v 0.02773466 -0.17973649 -0.07739918
v 0.02773466 -0.17114563 -0.05914337
v 0.02773466 -0.16491093 -0.0399548
v 0.02773466 -0.16113031 -0.0201361
v 0.02773466 -0.15986315 1.5E-07
v 0.02773466 -0.16113031 0.02013641
v 0.02773466 -0.16491094 0.03995511
v 0.02773466 -0.17114564 0.05914368
v 0.02773466 -0.1797365 0.07739948
v 0.02773466 -0.19054712 0.09443452
v 0.02773466 -0.20340813 0.10998073
v 0.02773466 -0.21811572 0.12379193
v 0.02773466 -0.23443798 0.13565142
v 0.02773466 -0.25211887 0.14537141
v 0.02773466 -0.27087754 0.15279864
v 0.02773466 -0.29042024 0.15781593
v 0.02773466 -0.31043726 0.16034463
v 0.02773466 -0.33061316 0.16034463
v 0.02773466 -0.35063015 0.15781592
v 0.02773466 -0.37017207 0.15279864
v 0.02773466 -0.38893153 0.14537141
v 0.02773466 -0.40661162 0.13565141
v 0.02773466 -0.42293464 0.12379192
v 0.02773466 -0.43764229 0.10998072
v 0.02773466 -0.45050327 0.09443451
v 0.02773466 -0.46131389 0.07739939
v 0.02773466 -0.46990475 0.05914358
v 0.02773466 -0.47613944 0.03995501
v 0.02773466 -0.47992009 0.02013639
v 0.02773466 -0.48118642 1.2E-07
v 0.02773466 -0.40022283 -0.01006798
v 0.02773466 -0.39833213 -0.01997737
v 0.02773466 -0.39521516 -0.02957162
v 0.02773466 -0.39091933 -0.03869961
v 0.02773466 -0.38551443 -0.0472172
v 0.02773466 -0.37908393 -0.05499015
v 0.02773466 -0.37172973 -0.06189583
v 0.02773466 -0.36356819 -0.06782549
v 0.02773466 -0.35472855 -0.07268541
v 0.02773466 -0.34534882 -0.07639902
v 0.02773466 -0.33557746 -0.07890783
v 0.02773466 -0.32556937 -0.08017218
v 0.02773466 -0.31548101 -0.08017218
v 0.02773466 -0.30547211 -0.07890783
v 0.02773466 -0.29570155 -0.07639902
v 0.02773466 -0.28632183 -0.07268541
v 0.02773466 -0.27748137 -0.06782541
v 0.02773466 -0.26932065 -0.06189582
v 0.02773466 -0.26196645 -0.05499007
v 0.02773466 -0.25553595 -0.04721711
v 0.02773466 -0.25013024 -0.03869952
v 0.02773466 -0.24583521 -0.02957161
v 0.02773466 -0.24271825 -0.01997729
v 0.02773466 -0.24082755 -0.01006798
v 0.02773466 -0.24019438 1.4E-07
v 0.02773466 -0.24082755 0.01006828
v 0.02773466 -0.24271826 0.01997759
v 0.02773466 -0.24583522 0.02957191
v 0.02773466 -0.25013024 0.03869982
v 0.02773466 -0.25553596 0.04721742
v 0.02773466 -0.26196645 0.05499036
v 0.02773466 -0.26932065 0.06189612
v 0.02773466 -0.27748138 0.0678257
v 0.02773466 -0.28632183 0.07268562
v 0.02773466 -0.29570156 0.07639932
v 0.02773466 -0.30547293 0.07890804
v 0.02773466 -0.31548102 0.08017239
v 0.02773466 -0.32556937 0.08017239
v 0.02773466 -0.33557746 0.07890804
v 0.02773466 -0.34534883 0.07639923
v 0.02773466 -0.35472856 0.07268562
v 0.02773466 -0.3635682 0.06782562
v 0.02773466 -0.37172973 0.06189603
v 0.02773466 -0.37908394 0.05499036
v 0.02773466 -0.38551364 0.04721741
v 0.02773466 -0.39091933 0.03869981
v 0.02773466 -0.39521438 0.02957182
v 0.02773466 -0.39833213 0.01997758
v 0.02773466 -0.40022202 0.01006827
v 0.02773466 -0.400856 1.3E-07
v -0.02773466 -0.3205248 1.3E-07
v 0.02773466 -0.3205248 1.3E-07
vn 0 0 1
vn 0 1 0
vn 0 0 -1
vn 0 -1 0
vn 1 0 0
vn -1 0 0
vn -1 -0 0
vn -1 -0 0
vn -1 -0 0
vn -1 -0 0
vn -1 0 0
vn -1 0 0
vn -1 0 0
vn -1 -0 0
vn -1 -0 0
vn -1 -0 0
vn -1 -0 0
vn -1 -0 0
vn -1 0 0
vn -1 -0 0
vn -1 0 0
vn -1 0 0
vn -1 0 0
vn -1 0 0
vn -1 -0 0
vn -1 -0 0
vn -1 -0 0
vn -1 0 0
vn -1 -0 0
vn -1 -0 0
vn -1 -0 0
vn -1 0 0
vn -1 0 0
vn -1 0 0
vn -1 -0 0
vn -1 -0 0
vn -1 0 0
vn -1 1E-05 0
vn -1 0 0
vn -1 -0 0
vn -1 0 0
vn -1 -0 0
vn -1 -0 0
vn -1 -0 0
vn -1 -0 0
vn -1 -0 0
vn -1 -0 0
vn -1 -0 0
vn -1 0 0
vn -1 0 0
vn -1 -0 0
vn -1 -0 0
vn -1 -0 0
vn -1 0 0
vn -1 0 0
vn -1 -0 0
vn -1 0 0
vn -1 -0 0
vn -1 -0 0
vn -1 -0 0
vn -1 -0 0
vn -1 0 0
vn -1 -0 0
vn -1 -0 0
vn -1 -0 0
vn -1 -0 0
vn -1 -0 0
vn -1 -0 0
vn -1 -0 0
vn -1 0 0
vn -1 -0 0
vn -1 0 0
vn -1 -0 0
vn -1 0 0
vn -1 -0 0
vn -1 -0 0
vn -1 0 0
vn -1 0 0
vn -1 0 0
vn -1 0 0
vn -1 0 0
vn -1 0 0
vn -1 0 0
vn -1 -0 0
vn -1 -0 0
vn -1 -0 0
vn -1 -0 0
vn -1 -0 0
vn -1 -0 0
vn -1 -0 0
vn -1 -0 0
vn -1 -0 0
vn -1 -0 0
vn -1 0 0
vn -1 0 0
vn -1 0 0
vn -1 -0 0
vn -1 -0 0
vn -1 0 0
vn -1 0 0
vn -1 0 0
vn -1 -0 0
vn -1 -0 0
vn -1 -0 0
vn -1 0 0
vn -1 0 0
vn -1 0 0
vn -1 0 0
vn -1 -0 0
vn -1 0 0
vn -1 0 0
vn -1 0 0
vn -1 0 0
vn -1 0 0
vn -1 -0 0
vn -1 0 0
vn -1 0 0
vn -1 -0 0
vn -1 -0 0
vn -1 -0 0
vn -1 0 0
vn -1 0 0
vn -1 -0 0
vn -1 -0 0
vn -1 -0 0
vn -1 -0 0
vn -1 -0 0
vn -1 -0 0
vn -1 0 0
vn -1 0 0
vn -1 0 0
vn -1 -0 0
vn -1 -0 0
vn -1 -0 0
vn -1 0 0
vn -1 -0 0
vn -1 0 0
vn -1 -0 0
vn -1 0 0
vn -1 0 0
vn -1 0 0
vn -1 0 0
vn -1 0 0
vn -1 -0 0
vn -1 0 0
vn -1 -0 0
vn -1 -0 0
vn -1 -0 0
vn -1 -0 0
vn -1 0 0
vn -1 -0 0
vn -1 -0 0
vn 0 -0.99212 -0.12533
vn 0 -0.96858 -0.24869
vn 0 -0.92978 -0.36812
vn 0 -0.87631 -0.48175
vn 0 -0.80902 -0.58779
vn 0 -0.72897 -0.68455
vn 0 -0.63742 -0.77051
vn 0 -0.53583 -0.84433
vn 0 -0.42578 -0.90483
vn 0 -0.30902 -0.95106
vn 0 -0.18738 -0.98229
vn 0 -0.06279 -0.99803
vn 0 0.06279 -0.99803
vn 0 0.18738 -0.98229
vn 0 0.30902 -0.95106
vn 0 0.42578 -0.90483
vn 0 0.53583 -0.84433
vn 0 0.63742 -0.77051
vn 0 0.72897 -0.68455
vn 0 0.80902 -0.58779
vn 0 0.87631 -0.48175
vn 0 0.92978 -0.36813
vn 0 0.96858 -0.24869
vn 0 0.99211 -0.12533
vn 0 0.99211 0.12533
vn 0 0.96858 0.24869
vn 0 0.92978 0.36813
vn 0 0.87631 0.48175
vn 0 0.80902 0.58779
vn 0 0.72897 0.68455
vn 0 0.63742 0.77051
vn 0 0.53583 0.84433
vn 0 0.42578 0.90483
vn 0 0.30902 0.95106
vn 0 0.18738 0.98229
vn 0 0.06279 0.99803
vn 0 -0.06279 0.99803
vn 0 -0.18738 0.98229
vn 0 -0.30902 0.95106
vn 0 -0.42578 0.90483
vn 0 -0.53583 0.84433
vn 0 -0.63742 0.77051
vn 0 -0.72897 0.68455
vn 0 -0.80902 0.58779
vn 0 -0.87631 0.48175
vn 0 -0.92978 0.36812
vn 0 -0.96858 0.24869
vn 0 -0.99211 0.12533
vn 0 -1 0
vn 1 0 0
vn 1 0 0
vn 1 -0 0
vn 1 -0 0
vn 1 0 0
vn 1 0 0
vn 1 0 0
vn 1 0 0
vn 1 -0 0
vn 1 -0 0
vn 1 0 0
vn 1 0 0
vn 1 0 0
vn 1 0 0
vn 1 0 0
vn 1 -0 0
vn 1 -0 0
vn 1 -0 0
vn 1 0 0
vn 1 -0 0
vn 1 0 0
vn 1 -0 0
vn 1 -0 0
vn 1 -0 0
vn 1 -0 0
vn 1 -0 0
vn 1 0 0
vn 1 0 0
vn 1 0 0
vn 1 0 0
vn 1 0 0
vn 1 -0 0
vn 1 -0 0
vn 1 0 0
vn 1 -0 0
vn 1 0 0
vn 1 0 0
vn 1 -0 0
vn 1 -0 0
vn 1 0 0
vn 1 0 0
vn 1 -0 0
vn 1 0 0
vn 1 -0 0
vn 1 -0 0
vn 1 -0 0
vn 1 0 0
vn 1 0 0
vn 1 0 0
vn 1 0 0
vn 1 0 0
vn 1 0 0
vn 1 0 0
vn 1 0 0
vn 1 -0 0
vn 1 0 0
vn 1 -0 0
vn 1 0 0
vn 1 0 0
vn 1 0 0
vn 1 0 0
vn 1 0 0
vn 1 -0 0
vn 1 0 0
vn 1 0 0
vn 1 0 0
vn 1 -0 0
vn 1 0 0
vn 1 0 0
vn 1 -0 0
vn 1 -0 0
vn 1 -0 0
vn 1 -0 0
vn 1 -0 0
vn 1 -0 0
vn 1 -0 0
vn 1 -0 0
vn 1 -0 0
vn 1 0 0
vn 1 -0 0
vn 1 0 0
vn 1 0 0
vn 1 0 0
vn 1 0 0
vn 1 -0 0
vn 1 0 0
vn 1 -0 0
vn 1 0 0
vn 1 -0 0
vn 1 -0 0
vn 1 0 0
vn 1 0 0
vn 1 -0 0
vn 1 -0 0
vn 1 0 0
vn 1 -0 0
vn 1 0 0
vn 1 0 0
vn 1 0 0
vn 1 -0 0
vn 1 -0 0
vn 1 -0 0
vn 1 0 0
vn 1 0 0
vn 1 -0 0
vn 1 -0 0
vn 1 0 0
vn 1 0 0
vn 1 0 0
vn 1 -0 0
vn 1 -0 0
vn 1 0 0
vn 1 -0 0
vn 1 -0 0
vn 1 0 0
vn 1 0 0
vn 1 0 0
vn 1 -0 0
vn 1 0 0
vn 1 0 0
vn 1 0 0
vn 1 0 0
vn 1 0 0
vn 1 -0 0
vn 1 -0 0
vn 1 -0 0
vn 1 0 0
vn 1 0 0
vn 1 0 0
vn 1 -0 0
vn 1 -0 0
vn 1 0 0
vn 1 0 0
vn 1 0 0
vn 1 0 0
vn 1 0 0
vn 1 0 0
vn 1 0 0
vn 1 0 0
vn 1 -0 0
vn 1 0 0
vn 1 -0 0
vn 1 0 0
vn 1 0 0
vn 1 0 0
vn 1 0 0
vn 1 0 0
vn 1 0 0
vn 1 0 0
vn 1 -0 0
vn 1 -0 0
vn 1 0 0
vn 1 -1E-05 0
vn 1 -0 0
vn 1 -0 0
vn 1 1E-05 0
vn 1 0 0
vn 1 0 0
vn 1 -0 0
vn 1 -0 0
vn 1 0 0
vn 1 0 0
vn 1 -0 0
vn 1 0 0
vn 1 0 0
vn 1 0 0
vn 1 -1E-05 0
vn 1 -0 0
vn 1 -0 0
vn 1 -0 0
vn -1 0 0
vn 1 -0 0
vt 0.8293 0.73702
vt 0.8293 0.96684
vt 0.88029 0.96684
vt 0.88029 0.73702
vt 0.8293 0.50719
vt 0.88029 0.50719
vt 0.8293 0.27737
vt 0.88029 0.27737
vt 0.8293 0.04755
vt 0.88029 0.04755
vt 0.93127 0.96684
vt 0.93127 0.73702
vt 0.77832 0.73702
vt 0.77832 0.96684
vt 0.33432 0.73595
vt 0.29689 0.73052
vt 0.29591 0.73517
vt 0.33237 0.74525
vt 0.29436 0.73966
vt 0.32927 0.75423
vt 0.29226 0.74392
vt 0.32506 0.76275
vt 0.28964 0.74788
vt 0.31983 0.77067
vt 0.28655 0.75148
vt 0.31364 0.77788
vt 0.28303 0.75467
vt 0.3066 0.78425
vt 0.27913 0.75739
vt 0.29881 0.7897
vt 0.27493 0.7596
vt 0.2904 0.79412
vt 0.27048 0.76127
vt 0.28151 0.79745
vt 0.26586 0.76237
vt 0.27226 0.79964
vt 0.26114 0.76288
vt 0.26282 0.80066
vt 0.25639 0.76279
vt 0.25332 0.80049
vt 0.25169 0.76211
vt 0.24392 0.79912
vt 0.24711 0.76084
vt 0.23476 0.79659
vt 0.24273 0.75901
vt 0.226 0.79293
vt 0.23861 0.75665
vt 0.21776 0.7882
vt 0.23482 0.75379
vt 0.21018 0.78248
vt 0.23142 0.75047
vt 0.20337 0.77585
vt 0.22846 0.74676
vt 0.19746 0.76842
vt 0.22599 0.7427
vt 0.19251 0.76031
vt 0.22404 0.73837
vt 0.18863 0.75164
vt 0.22266 0.73382
vt 0.18586 0.74255
vt 0.22186 0.72914
vt 0.18425 0.73319
vt 0.22164 0.7244
vt 0.18383 0.7237
vt 0.22203 0.71966
vt 0.1846 0.71423
vt 0.22301 0.71501
vt 0.18655 0.70494
vt 0.22456 0.71052
vt 0.18965 0.69596
vt 0.22666 0.70626
vt 0.19386 0.68744
vt 0.22928 0.7023
vt 0.19909 0.67951
vt 0.23237 0.6987
vt 0.20528 0.6723
vt 0.23589 0.69551
vt 0.21232 0.66593
vt 0.23979 0.69279
vt 0.22011 0.66049
vt 0.24399 0.69058
vt 0.22852 0.65607
vt 0.24844 0.68891
vt 0.23741 0.65273
vt 0.25306 0.68782
vt 0.24666 0.65054
vt 0.25778 0.68731
vt 0.2561 0.64952
vt 0.26253 0.68739
vt 0.2656 0.6497
vt 0.26723 0.68808
vt 0.275 0.65106
vt 0.27181 0.68934
vt 0.28416 0.65359
vt 0.27619 0.69117
vt 0.29292 0.65725
vt 0.28031 0.69354
vt 0.30116 0.66198
vt 0.2841 0.6964
vt 0.30874 0.6677
vt 0.2875 0.69971
vt 0.31554 0.67433
vt 0.29046 0.70343
vt 0.32146 0.68176
vt 0.29293 0.70748
vt 0.32641 0.68988
vt 0.29488 0.71182
vt 0.33029 0.69854
vt 0.29626 0.71636
vt 0.33306 0.70763
vt 0.29706 0.72104
vt 0.33467 0.71699
vt 0.29728 0.72579
vt 0.33509 0.72648
vt 0.37175 0.74138
vt 0.36882 0.75533
vt 0.36417 0.7688
vt 0.35787 0.78157
vt 0.35001 0.79346
vt 0.34073 0.80427
vt 0.33016 0.81383
vt 0.31848 0.822
vt 0.30587 0.82863
vt 0.29253 0.83363
vt 0.27867 0.83692
vt 0.2645 0.83845
vt 0.25025 0.83818
vt 0.23615 0.83614
vt 0.22242 0.83234
vt 0.20927 0.82685
vt 0.19691 0.81976
vt 0.18554 0.81117
vt 0.17533 0.80123
vt 0.16645 0.79008
vt 0.15904 0.77792
vt 0.15321 0.76491
vt 0.14906 0.75128
vt 0.14665 0.73724
vt 0.14601 0.723
vt 0.14717 0.7088
vt 0.1501 0.69486
vt 0.15475 0.68139
vt 0.16105 0.66861
vt 0.16891 0.65672
vt 0.17819 0.64591
vt 0.18876 0.63635
vt 0.20044 0.62819
vt 0.21305 0.62155
vt 0.22639 0.61655
vt 0.24025 0.61326
vt 0.25442 0.61174
vt 0.26867 0.612
vt 0.28277 0.61405
vt 0.2965 0.61784
vt 0.30965 0.62333
vt 0.32201 0.63042
vt 0.33338 0.63901
vt 0.34359 0.64895
vt 0.35247 0.6601
vt 0.35988 0.67227
vt 0.36571 0.68527
vt 0.36986 0.6989
vt 0.37227 0.71294
vt 0.37291 0.72718
vt 0.40918 0.74681
vt 0.40528 0.7654
vt 0.39907 0.78336
vt 0.39067 0.8004
vt 0.3802 0.81625
vt 0.36782 0.83067
vt 0.35373 0.84342
vt 0.33816 0.8543
vt 0.32135 0.86314
vt 0.30356 0.86981
vt 0.28507 0.87419
vt 0.26618 0.87623
vt 0.24718 0.87588
vt 0.22838 0.87315
vt 0.21007 0.86809
vt 0.19254 0.86077
vt 0.17606 0.85131
vt 0.1609 0.83987
vt 0.14729 0.82661
vt 0.13545 0.81175
vt 0.12557 0.79552
vt 0.1178 0.77819
vt 0.11226 0.76001
vt 0.10904 0.74129
vt 0.1082 0.72231
vt 0.10974 0.70337
vt 0.11364 0.68478
vt 0.11985 0.66682
vt 0.12825 0.64978
vt 0.13872 0.63393
vt 0.1511 0.61952
vt 0.16519 0.60677
vt 0.18076 0.59589
vt 0.19758 0.58704
vt 0.21536 0.58037
vt 0.23385 0.57599
vt 0.25274 0.57395
vt 0.27174 0.5743
vt 0.29054 0.57703
vt 0.30885 0.5821
vt 0.32638 0.58941
vt 0.34286 0.59887
vt 0.35802 0.61032
vt 0.37163 0.62358
vt 0.38347 0.63844
vt 0.39335 0.65466
vt 0.40112 0.672
vt 0.40666 0.69017
vt 0.40988 0.70889
vt 0.41072 0.72787
vt 0.44661 0.75224
vt 0.44173 0.77548
vt 0.43398 0.79793
vt 0.42347 0.81923
vt 0.41038 0.83904
vt 0.39491 0.85706
vt 0.3773 0.873
vt 0.35783 0.8866
vt 0.33682 0.89766
vt 0.31458 0.90599
vt 0.29147 0.91147
vt 0.26786 0.91401
vt 0.24411 0.91358
vt 0.22061 0.91017
vt 0.19772 0.90384
vt 0.17581 0.89469
vt 0.15521 0.88287
vt 0.13626 0.86856
vt 0.11925 0.85199
vt 0.10445 0.83341
vt 0.0921 0.81313
vt 0.08238 0.79146
vt 0.07546 0.76874
vt 0.07144 0.74534
vt 0.07038 0.72161
vt 0.07231 0.69794
vt 0.07719 0.6747
vt 0.08494 0.65225
vt 0.09545 0.63095
vt 0.10854 0.61114
vt 0.12401 0.59312
vt 0.14162 0.57719
vt 0.16109 0.56359
vt 0.1821 0.55253
vt 0.20434 0.54419
vt 0.22745 0.53871
vt 0.25106 0.53617
vt 0.27481 0.53661
vt 0.29831 0.54002
vt 0.3212 0.54634
vt 0.34311 0.55549
vt 0.36371 0.56731
vt 0.38266 0.58162
vt 0.39967 0.5982
vt 0.41447 0.61677
vt 0.42682 0.63705
vt 0.43654 0.65872
vt 0.44346 0.68144
vt 0.44748 0.70485
vt 0.44854 0.72857
vt 0.48404 0.75767
vt 0.47818 0.78556
vt 0.46888 0.8125
vt 0.45627 0.83806
vt 0.44056 0.86183
vt 0.422 0.88345
vt 0.40087 0.90258
vt 0.37751 0.9189
vt 0.35229 0.93217
vt 0.3256 0.94217
vt 0.29787 0.94875
vt 0.26954 0.9518
vt 0.24105 0.95127
vt 0.21284 0.94718
vt 0.18538 0.93959
vt 0.15908 0.92861
vt 0.13436 0.91443
vt 0.11162 0.89725
vt 0.09121 0.87737
vt 0.07345 0.85508
vt 0.05862 0.83074
vt 0.04696 0.80473
vt 0.03866 0.77747
vt 0.03383 0.74939
vt 0.03257 0.72092
vt 0.03488 0.69251
vt 0.04074 0.66462
vt 0.05004 0.63769
vt 0.06265 0.61213
vt 0.07836 0.58835
vt 0.09692 0.56673
vt 0.11805 0.54761
vt 0.14141 0.53128
vt 0.16663 0.51802
vt 0.19332 0.50802
vt 0.22105 0.50144
vt 0.24938 0.49839
vt 0.27787 0.49891
vt 0.30608 0.503
vt 0.33354 0.5106
vt 0.35984 0.52157
vt 0.38456 0.53576
vt 0.4073 0.55293
vt 0.42772 0.57282
vt 0.44547 0.59511
vt 0.4603 0.61944
vt 0.47196 0.64545
vt 0.48026 0.67271
vt 0.48509 0.7008
vt 0.48635 0.72927
vt 0.00216 0.98498
vt 0.00216 0.99906
vt 0.02199 0.99906
vt 0.02199 0.98498
vt 0.04181 0.99906
vt 0.04181 0.98498
vt 0.06164 0.99906
vt 0.06164 0.98498
vt 0.08146 0.99906
vt 0.08146 0.98498
vt 0.10128 0.99906
vt 0.10128 0.98498
vt 0.12111 0.99906
vt 0.12111 0.98498
vt 0.14093 0.99906
vt 0.14093 0.98498
vt 0.16076 0.99906
vt 0.16076 0.98498
vt 0.18058 0.99906
vt 0.18058 0.98498
vt 0.2004 0.99906
vt 0.2004 0.98498
vt 0.22023 0.99906
vt 0.22023 0.98498
vt 0.24005 0.99906
vt 0.24005 0.98498
vt 0.25988 0.99906
vt 0.25988 0.98498
vt 0.2797 0.99906
vt 0.2797 0.98498
vt 0.29952 0.99906
vt 0.29952 0.98498
vt 0.31935 0.99906
vt 0.31935 0.98498
vt 0.33917 0.99906
vt 0.33917 0.98498
vt 0.359 0.99906
vt 0.359 0.98498
vt 0.37882 0.99906
vt 0.37882 0.98498
vt 0.39864 0.99906
vt 0.39864 0.98498
vt 0.41847 0.99906
vt 0.41847 0.98498
vt 0.43829 0.99906
vt 0.43829 0.98498
vt 0.45812 0.99906
vt 0.45812 0.98498
vt 0.47794 0.99906
vt 0.47794 0.98498
vt 0.49776 0.99906
vt 0.49776 0.98498
vt 0.51759 0.99906
vt 0.51759 0.98498
vt 0.53741 0.99906
vt 0.53741 0.98498
vt 0.55724 0.99906
vt 0.55724 0.98498
vt 0.57706 0.99906
vt 0.57706 0.98498
vt 0.59688 0.99906
vt 0.59688 0.98498
vt 0.61671 0.99906
vt 0.61671 0.98498
vt 0.63653 0.99906
vt 0.63653 0.98498
vt 0.65636 0.99906
vt 0.65636 0.98498
vt 0.67618 0.99906
vt 0.67618 0.98498
vt 0.696 0.99906
vt 0.696 0.98498
vt 0.71583 0.99906
vt 0.71583 0.98498
vt 0.73565 0.99906
vt 0.73565 0.98498
vt 0.75547 0.99906
vt 0.75547 0.98498
vt 0.7753 0.99906
vt 0.7753 0.98498
vt 0.79512 0.99906
vt 0.79512 0.98498
vt 0.81495 0.99906
vt 0.81495 0.98498
vt 0.83477 0.99906
vt 0.83477 0.98498
vt 0.8546 0.99906
vt 0.8546 0.98498
vt 0.87442 0.99906
vt 0.87442 0.98498
vt 0.89424 0.99906
vt 0.89424 0.98498
vt 0.91407 0.99906
vt 0.91407 0.98498
vt 0.93389 0.99906
vt 0.93389 0.98498
vt 0.95372 0.99906
vt 0.95372 0.98498
vt 0.97354 0.99906
vt 0.97354 0.98498
vt 0.99336 0.99906
vt 0.99336 0.98498
vt 0.44214 0.22768
vt 0.4791 0.22408
vt 0.47465 0.19646
vt 0.43843 0.20466
vt 0.46677 0.16961
vt 0.43186 0.18229
vt 0.45558 0.14396
vt 0.42254 0.16092
vt 0.44127 0.11992
vt 0.41061 0.14088
vt 0.42406 0.09786
vt 0.39627 0.1225
vt 0.40421 0.07813
vt 0.37974 0.10606
vt 0.38206 0.06104
vt 0.36127 0.09182
vt 0.35793 0.04687
vt 0.34117 0.08
vt 0.33222 0.03583
vt 0.31974 0.07081
vt 0.30533 0.0281
vt 0.29733 0.06437
vt 0.27768 0.0238
vt 0.27429 0.06078
vt 0.24971 0.02301
vt 0.25098 0.06012
vt 0.22186 0.02572
vt 0.22778 0.06238
vt 0.19457 0.0319
vt 0.20504 0.06753
vt 0.16828 0.04145
vt 0.18312 0.07549
vt 0.14338 0.05423
vt 0.16238 0.08614
vt 0.12028 0.07002
vt 0.14313 0.0993
vt 0.09935 0.08859
vt 0.12568 0.11477
vt 0.08091 0.10963
vt 0.11031 0.1323
vt 0.06525 0.13281
vt 0.09726 0.15162
vt 0.05261 0.15778
vt 0.08674 0.17243
vt 0.04321 0.18413
vt 0.0789 0.19439
vt 0.03719 0.21146
vt 0.07388 0.21716
vt 0.03463 0.23932
vt 0.07175 0.24038
vt 0.03559 0.26728
vt 0.07255 0.26368
vt 0.04005 0.29491
vt 0.07626 0.2867
vt 0.04793 0.32175
vt 0.08283 0.30907
vt 0.05912 0.3474
vt 0.09215 0.33045
vt 0.07343 0.37144
vt 0.10408 0.35048
vt 0.09064 0.3935
vt 0.11842 0.36887
vt 0.11048 0.41323
vt 0.13496 0.38531
vt 0.13264 0.43032
vt 0.15342 0.39955
vt 0.15676 0.44449
vt 0.17353 0.41136
vt 0.18248 0.45553
vt 0.19495 0.42056
vt 0.20937 0.46326
vt 0.21736 0.427
vt 0.23701 0.46756
vt 0.2404 0.43058
vt 0.26498 0.46836
vt 0.26371 0.43124
vt 0.29283 0.46564
vt 0.28692 0.42898
vt 0.32012 0.45946
vt 0.30966 0.42383
vt 0.34642 0.44991
vt 0.33158 0.41587
vt 0.37131 0.43713
vt 0.35232 0.40523
vt 0.39441 0.42134
vt 0.37157 0.39206
vt 0.41535 0.40278
vt 0.38901 0.3766
vt 0.43379 0.38174
vt 0.40438 0.35906
vt 0.44945 0.35855
vt 0.41743 0.33974
vt 0.46208 0.33358
vt 0.42796 0.31893
vt 0.47148 0.30723
vt 0.4358 0.29697
vt 0.47751 0.27991
vt 0.44082 0.2742
vt 0.48006 0.25204
vt 0.44294 0.25098
vt 0.40519 0.23128
vt 0.40222 0.21286
vt 0.39696 0.19497
vt 0.3895 0.17787
vt 0.37996 0.16184
vt 0.36849 0.14713
vt 0.35526 0.13398
vt 0.34049 0.12259
vt 0.3244 0.11314
vt 0.30726 0.10578
vt 0.28934 0.10063
vt 0.2709 0.09776
vt 0.25226 0.09723
vt 0.23369 0.09904
vt 0.2155 0.10316
vt 0.19797 0.10953
vt 0.18137 0.11805
vt 0.16597 0.12857
vt 0.15202 0.14095
vt 0.13972 0.15498
vt 0.12928 0.17044
vt 0.12086 0.18708
vt 0.11459 0.20465
vt 0.11057 0.22286
vt 0.10887 0.24144
vt 0.10951 0.26008
vt 0.11248 0.2785
vt 0.11774 0.2964
vt 0.12519 0.31349
vt 0.13474 0.32952
vt 0.14621 0.34423
vt 0.15944 0.35738
vt 0.17421 0.36877
vt 0.19029 0.37822
vt 0.20743 0.38558
vt 0.22536 0.39073
vt 0.24379 0.3936
vt 0.26244 0.39413
vt 0.281 0.39232
vt 0.2992 0.3882
vt 0.31673 0.38183
vt 0.33333 0.37332
vt 0.34872 0.36279
vt 0.36268 0.35041
vt 0.37498 0.33639
vt 0.38542 0.32093
vt 0.39384 0.30428
vt 0.40011 0.28671
vt 0.40412 0.2685
vt 0.40582 0.24992
vt 0.36823 0.23488
vt 0.366 0.22107
vt 0.36206 0.20764
vt 0.35646 0.19482
vt 0.34931 0.1828
vt 0.3407 0.17177
vt 0.33078 0.16191
vt 0.3197 0.15336
vt 0.30764 0.14628
vt 0.29478 0.14076
vt 0.28134 0.13689
vt 0.26751 0.13474
vt 0.25353 0.13434
vt 0.23961 0.1357
vt 0.22596 0.13879
vt 0.21281 0.14357
vt 0.20037 0.14995
vt 0.18882 0.15785
vt 0.17835 0.16713
vt 0.16913 0.17765
vt 0.1613 0.18925
vt 0.15498 0.20173
vt 0.15028 0.21491
vt 0.14727 0.22857
vt 0.14599 0.2425
vt 0.14647 0.25648
vt 0.1487 0.27029
vt 0.15264 0.28372
vt 0.15823 0.29654
vt 0.16539 0.30856
vt 0.17399 0.31959
vt 0.18392 0.32946
vt 0.19499 0.338
vt 0.20706 0.34509
vt 0.21991 0.35061
vt 0.23336 0.35447
vt 0.24718 0.35662
vt 0.26117 0.35702
vt 0.27509 0.35566
vt 0.28874 0.35257
vt 0.30188 0.3478
vt 0.31433 0.34141
vt 0.32588 0.33351
vt 0.33635 0.32423
vt 0.34557 0.31371
vt 0.3534 0.30212
vt 0.35972 0.28963
vt 0.36442 0.27646
vt 0.36743 0.26279
vt 0.36871 0.24886
vt 0.33127 0.23848
vt 0.32978 0.22927
vt 0.32715 0.22032
vt 0.32342 0.21178
vt 0.31866 0.20376
vt 0.31292 0.19641
vt 0.3063 0.18983
vt 0.29892 0.18414
vt 0.29088 0.17941
vt 0.28231 0.17573
vt 0.27334 0.17316
vt 0.26413 0.17172
vt 0.2548 0.17146
vt 0.24552 0.17236
vt 0.23642 0.17442
vt 0.22766 0.1776
vt 0.21936 0.18186
vt 0.21166 0.18713
vt 0.20468 0.19332
vt 0.19853 0.20033
vt 0.19331 0.20806
vt 0.1891 0.21638
vt 0.18597 0.22517
vt 0.18396 0.23427
vt 0.18311 0.24356
vt 0.18343 0.25288
vt 0.18491 0.26209
vt 0.18754 0.27104
vt 0.19127 0.27959
vt 0.19604 0.2876
vt 0.20178 0.29496
vt 0.20839 0.30153
vt 0.21578 0.30723
vt 0.22382 0.31195
vt 0.23239 0.31563
vt 0.24135 0.31821
vt 0.25057 0.31964
vt 0.25989 0.31991
vt 0.26918 0.319
vt 0.27827 0.31694
vt 0.28704 0.31376
vt 0.29534 0.3095
vt 0.30304 0.30423
vt 0.31001 0.29805
vt 0.31616 0.29103
vt 0.32138 0.2833
vt 0.32559 0.27498
vt 0.32873 0.2662
vt 0.33073 0.25709
vt 0.33159 0.2478
vt 0.29431 0.24208
vt 0.29357 0.23748
vt 0.29225 0.233
vt 0.29039 0.22873
vt 0.288 0.22472
vt 0.28513 0.22104
vt 0.28183 0.21776
vt 0.27813 0.21491
vt 0.27411 0.21255
vt 0.26983 0.21071
vt 0.26535 0.20942
vt 0.26074 0.2087
vt 0.25607 0.20857
vt 0.25143 0.20902
vt 0.24689 0.21005
vt 0.2425 0.21164
vt 0.23835 0.21377
vt 0.2345 0.2164
vt 0.23101 0.2195
vt 0.22794 0.223
vt 0.22533 0.22687
vt 0.22323 0.23103
vt 0.22166 0.23542
vt 0.22065 0.23998
vt 0.22023 0.24462
vt 0.22039 0.24928
vt 0.22113 0.25389
vt 0.22244 0.25836
vt 0.22431 0.26263
vt 0.2267 0.26664
vt 0.22956 0.27032
vt 0.23287 0.27361
vt 0.23656 0.27645
vt 0.24058 0.27882
vt 0.24487 0.28066
vt 0.24935 0.28194
vt 0.25396 0.28266
vt 0.25862 0.28279
vt 0.26326 0.28234
vt 0.26781 0.28131
vt 0.27219 0.27972
vt 0.27634 0.27759
vt 0.28019 0.27496
vt 0.28368 0.27186
vt 0.28675 0.26836
vt 0.28936 0.26449
vt 0.29147 0.26033
vt 0.29304 0.25594
vt 0.29404 0.25138
vt 0.29447 0.24674
vt 0.25946 0.72509
vt 0.25735 0.24568
usemtl mat0
f 1/1/1 2/2/1 3/3/1
f 3/3/1 4/4/1 1/1/1
f 5/5/2 1/1/2 4/4/2
f 4/4/2 6/6/2 5/5/2
f 7/7/3 5/5/3 6/6/3
f 6/6/3 8/8/3 7/7/3
f 9/9/4 7/7/4 8/8/4
f 8/8/4 10/10/4 9/9/4
f 4/4/5 3/3/5 11/11/5
f 11/11/5 12/12/5 4/4/5
f 13/13/6 14/14/6 2/2/6
f 2/2/6 1/1/6 13/13/6
f 15/15/7 16/16/8 17/17/8
f 17/17/8 18/18/7 15/15/7
f 18/18/7 17/17/8 19/19/6
f 19/19/6 20/20/9 18/18/7
f 20/20/9 19/19/6 21/21/6
f 21/21/6 22/22/9 20/20/9
f 22/22/9 21/21/6 23/23/10
f 23/23/10 24/24/11 22/22/9
f 24/24/11 23/23/10 25/25/10
f 25/25/10 26/26/12 24/24/11
f 26/26/12 25/25/10 27/27/6
f 27/27/6 28/28/6 26/26/12
f 28/28/6 27/27/6 29/29/6
f 29/29/6 30/30/6 28/28/6
f 30/30/6 29/29/6 31/31/6
f 31/31/6 32/32/13 30/30/6
f 32/32/13 31/31/6 33/33/6
f 33/33/6 34/34/13 32/32/13
f 34/34/13 33/33/6 35/35/6
f 35/35/6 36/36/6 34/34/13
f 36/36/6 35/35/6 37/37/6
f 37/37/6 38/38/6 36/36/6
f 38/38/6 37/37/6 39/39/6
f 39/39/6 40/40/13 38/38/6
f 40/40/13 39/39/6 41/41/6
f 41/41/6 42/42/13 40/40/13
f 42/42/13 41/41/6 43/43/6
f 43/43/6 44/44/6 42/42/13
f 44/44/6 43/43/6 45/45/14
f 45/45/14 46/46/6 44/44/6
f 46/46/6 45/45/14 47/47/15
f 47/47/15 48/48/6 46/46/6
f 48/48/6 47/47/15 49/49/6
f 49/49/6 50/50/6 48/48/6
f 50/50/6 49/49/6 51/51/6
f 51/51/6 52/52/6 50/50/6
f 52/52/6 51/51/6 53/53/6
f 53/53/6 54/54/6 52/52/6
f 54/54/6 53/53/6 55/55/10
f 55/55/10 56/56/16 54/54/6
f 56/56/16 55/55/10 57/57/10
f 57/57/10 58/58/17 56/56/16
f 58/58/17 57/57/10 59/59/18
f 59/59/18 60/60/19 58/58/17
f 60/60/19 59/59/18 61/61/20
f 61/61/20 62/62/21 60/60/19
f 62/62/21 61/61/20 63/63/22
f 63/63/22 64/64/23 62/62/21
f 64/64/23 63/63/22 65/65/24
f 65/65/24 66/66/25 64/64/23
f 66/66/25 65/65/24 67/67/26
f 67/67/26 68/68/27 66/66/25
f 68/68/27 67/67/26 69/69/28
f 69/69/28 70/70/29 68/68/27
f 70/70/29 69/69/28 71/71/30
f 71/71/30 72/72/17 70/70/29
f 72/72/17 71/71/30 73/73/10
f 73/73/10 74/74/31 72/72/17
f 74/74/31 73/73/10 75/75/32
f 75/75/32 76/76/33 74/74/31
f 76/76/33 75/75/32 77/77/32
f 77/77/32 78/78/34 76/76/33
f 78/78/34 77/77/32 79/79/6
f 79/79/6 80/80/35 78/78/34
f 80/80/35 79/79/6 81/81/6
f 81/81/6 82/82/36 80/80/35
f 82/82/36 81/81/6 83/83/6
f 83/83/6 84/84/6 82/82/36
f 84/84/6 83/83/6 85/85/6
f 85/85/6 86/86/6 84/84/6
f 86/86/6 85/85/6 87/87/6
f 87/87/6 88/88/35 86/86/6
f 88/88/35 87/87/6 89/89/6
f 89/89/6 90/90/35 88/88/35
f 90/90/35 89/89/6 91/91/6
f 91/91/6 92/92/35 90/90/35
f 92/92/35 91/91/6 93/93/6
f 93/93/6 94/94/37 92/92/35
f 94/94/37 93/93/6 95/95/38
f 95/95/38 96/96/39 94/94/37
f 96/96/39 95/95/38 97/97/40
f 97/97/40 98/98/41 96/96/39
f 98/98/41 97/97/40 99/99/42
f 99/99/42 100/100/43 98/98/41
f 100/100/43 99/99/42 101/101/44
f 101/101/44 102/102/45 100/100/43
f 102/102/45 101/101/44 103/103/42
f 103/103/42 104/104/43 102/102/45
f 104/104/43 103/103/42 105/105/46
f 105/105/46 106/106/47 104/104/43
f 106/106/47 105/105/46 107/107/48
f 107/107/48 108/108/19 106/106/47
f 108/108/19 107/107/48 109/109/49
f 109/109/49 110/110/50 108/108/19
f 110/110/50 109/109/49 111/111/6
f 111/111/6 112/112/51 110/110/50
f 112/112/51 111/111/6 113/113/6
f 113/113/6 114/114/52 112/112/51
f 114/114/52 113/113/6 16/16/8
f 16/16/8 15/15/7 114/114/52
f 115/115/53 15/15/7 18/18/7
f 18/18/7 116/116/54 115/115/53
f 116/116/54 18/18/7 20/20/9
f 20/20/9 117/117/55 116/116/54
f 117/117/55 20/20/9 22/22/9
f 22/22/9 118/118/56 117/117/55
f 118/118/56 22/22/9 24/24/11
f 24/24/11 119/119/57 118/118/56
f 119/119/57 24/24/11 26/26/12
f 26/26/12 120/120/57 119/119/57
f 120/120/57 26/26/12 28/28/6
f 28/28/6 121/121/6 120/120/57
f 121/121/6 28/28/6 30/30/6
f 30/30/6 122/122/6 121/121/6
f 122/122/6 30/30/6 32/32/13
f 32/32/13 123/123/58 122/122/6
f 123/123/58 32/32/13 34/34/13
f 34/34/13 124/124/59 123/123/58
f 124/124/59 34/34/13 36/36/6
f 36/36/6 125/125/6 124/124/59
f 125/125/6 36/36/6 38/38/6
f 38/38/6 126/126/6 125/125/6
f 126/126/6 38/38/6 40/40/13
f 40/40/13 127/127/57 126/126/6
f 127/127/57 40/40/13 42/42/13
f 42/42/13 128/128/60 127/127/57
f 128/128/60 42/42/13 44/44/6
f 44/44/6 129/129/61 128/128/60
f 129/129/61 44/44/6 46/46/6
f 46/46/6 130/130/6 129/129/61
f 130/130/6 46/46/6 48/48/6
f 48/48/6 131/131/62 130/130/6
f 131/131/62 48/48/6 50/50/6
f 50/50/6 132/132/62 131/131/62
f 132/132/62 50/50/6 52/52/6
f 52/52/6 133/133/6 132/132/62
f 133/133/6 52/52/6 54/54/6
f 54/54/6 134/134/6 133/133/6
f 134/134/6 54/54/6 56/56/16
f 56/56/16 135/135/56 134/134/6
f 135/135/56 56/56/16 58/58/17
f 58/58/17 136/136/63 135/135/56
f 136/136/63 58/58/17 60/60/19
f 60/60/19 137/137/64 136/136/63
f 137/137/64 60/60/19 62/62/21
f 62/62/21 138/138/65 137/137/64
f 138/138/65 62/62/21 64/64/23
f 64/64/23 139/139/66 138/138/65
f 139/139/66 64/64/23 66/66/25
f 66/66/25 140/140/67 139/139/66
f 140/140/67 66/66/25 68/68/27
f 68/68/27 141/141/68 140/140/67
f 141/141/68 68/68/27 70/70/29
f 70/70/29 142/142/69 141/141/68
f 142/142/69 70/70/29 72/72/17
f 72/72/17 143/143/63 142/142/69
f 143/143/63 72/72/17 74/74/31
f 74/74/31 144/144/56 143/143/63
f 144/144/56 74/74/31 76/76/33
f 76/76/33 145/145/70 144/144/56
f 145/145/70 76/76/33 78/78/34
f 78/78/34 146/146/61 145/145/70
f 146/146/61 78/78/34 80/80/35
f 80/80/35 147/147/71 146/146/61
f 147/147/71 80/80/35 82/82/36
f 82/82/36 148/148/72 147/147/71
f 148/148/72 82/82/36 84/84/6
f 84/84/6 149/149/6 148/148/72
f 149/149/6 84/84/6 86/86/6
f 86/86/6 150/150/6 149/149/6
f 150/150/6 86/86/6 88/88/35
f 88/88/35 151/151/71 150/150/6
f 151/151/71 88/88/35 90/90/35
f 90/90/35 152/152/73 151/151/71
f 152/152/73 90/90/35 92/92/35
f 92/92/35 153/153/71 152/152/73
f 153/153/71 92/92/35 94/94/37
f 94/94/37 154/154/62 153/153/71
f 154/154/62 94/94/37 96/96/39
f 96/96/39 155/155/57 154/154/62
f 155/155/57 96/96/39 98/98/41
f 98/98/41 156/156/6 155/155/57
f 156/156/6 98/98/41 100/100/43
f 100/100/43 157/157/74 156/156/6
f 157/157/74 100/100/43 102/102/45
f 102/102/45 158/158/74 157/157/74
f 158/158/74 102/102/45 104/104/43
f 104/104/43 159/159/6 158/158/74
f 159/159/6 104/104/43 106/106/47
f 106/106/47 160/160/75 159/159/6
f 160/160/75 106/106/47 108/108/19
f 108/108/19 161/161/76 160/160/75
f 161/161/76 108/108/19 110/110/50
f 110/110/50 162/162/77 161/161/76
f 162/162/77 110/110/50 112/112/51
f 112/112/51 163/163/78 162/162/77
f 163/163/78 112/112/51 114/114/52
f 114/114/52 164/164/79 163/163/78
f 164/164/79 114/114/52 15/15/7
f 15/15/7 115/115/53 164/164/79
f 165/165/80 115/115/53 116/116/54
f 116/116/54 166/166/81 165/165/80
f 166/166/81 116/116/54 117/117/55
f 117/117/55 167/167/82 166/166/81
f 167/167/82 117/117/55 118/118/56
f 118/118/56 168/168/83 167/167/82
f 168/168/83 118/118/56 119/119/57
f 119/119/57 169/169/84 168/168/83
f 169/169/84 119/119/57 120/120/57
f 120/120/57 170/170/85 169/169/84
f 170/170/85 120/120/57 121/121/6
f 121/121/6 171/171/86 170/170/85
f 171/171/86 121/121/6 122/122/6
f 122/122/6 172/172/6 171/171/86
f 172/172/6 122/122/6 123/123/58
f 123/123/58 173/173/87 172/172/6
f 173/173/87 123/123/58 124/124/59
f 124/124/59 174/174/87 173/173/87
f 174/174/87 124/124/59 125/125/6
f 125/125/6 175/175/6 174/174/87
f 175/175/6 125/125/6 126/126/6
f 126/126/6 176/176/86 175/175/6
f 176/176/86 126/126/6 127/127/57
f 127/127/57 177/177/86 176/176/86
f 177/177/86 127/127/57 128/128/60
f 128/128/60 178/178/87 177/177/86
f 178/178/87 128/128/60 129/129/61
f 129/129/61 179/179/87 178/178/87
f 179/179/87 129/129/61 130/130/6
f 130/130/6 180/180/6 179/179/87
f 180/180/6 130/130/6 131/131/62
f 131/131/62 181/181/88 180/180/6
f 181/181/88 131/131/62 132/132/62
f 132/132/62 182/182/89 181/181/88
f 182/182/89 132/132/62 133/133/6
f 133/133/6 183/183/6 182/182/89
f 183/183/6 133/133/6 134/134/6
f 134/134/6 184/184/6 183/183/6
f 184/184/6 134/134/6 135/135/56
f 135/135/56 185/185/6 184/184/6
f 185/185/6 135/135/56 136/136/63
f 136/136/63 186/186/90 185/185/6
f 186/186/90 136/136/63 137/137/64
f 137/137/64 187/187/91 186/186/90
f 187/187/91 137/137/64 138/138/65
f 138/138/65 188/188/92 187/187/91
f 188/188/92 138/138/65 139/139/66
f 139/139/66 189/189/93 188/188/92
f 189/189/93 139/139/66 140/140/67
f 140/140/67 190/190/94 189/189/93
f 190/190/94 140/140/67 141/141/68
f 141/141/68 191/191/86 190/190/94
f 191/191/86 141/141/68 142/142/69
f 142/142/69 192/192/86 191/191/86
f 192/192/86 142/142/69 143/143/63
f 143/143/63 193/193/95 192/192/86
f 193/193/95 143/143/63 144/144/56
f 144/144/56 194/194/96 193/193/95
f 194/194/96 144/144/56 145/145/70
f 145/145/70 195/195/97 194/194/96
f 195/195/97 145/145/70 146/146/61
f 146/146/61 196/196/87 195/195/97
f 196/196/87 146/146/61 147/147/71
f 147/147/71 197/197/98 196/196/87
f 197/197/98 147/147/71 148/148/72
f 148/148/72 198/198/99 197/197/98
f 198/198/99 148/148/72 149/149/6
f 149/149/6 199/199/6 198/198/99
f 199/199/6 149/149/6 150/150/6
f 150/150/6 200/200/6 199/199/6
f 200/200/6 150/150/6 151/151/71
f 151/151/71 201/201/83 200/200/6
f 201/201/83 151/151/71 152/152/73
f 152/152/73 202/202/100 201/201/83
f 202/202/100 152/152/73 153/153/71
f 153/153/71 203/203/101 202/202/100
f 203/203/101 153/153/71 154/154/62
f 154/154/62 204/204/99 203/203/101
f 204/204/99 154/154/62 155/155/57
f 155/155/57 205/205/6 204/204/99
f 205/205/6 155/155/57 156/156/6
f 156/156/6 206/206/6 205/205/6
f 206/206/6 156/156/6 157/157/74
f 157/157/74 207/207/99 206/206/6
f 207/207/99 157/157/74 158/158/74
f 158/158/74 208/208/99 207/207/99
f 208/208/99 158/158/74 159/159/6
f 159/159/6 209/209/102 208/208/99
f 209/209/102 159/159/6 160/160/75
f 160/160/75 210/210/103 209/209/102
f 210/210/103 160/160/75 161/161/76
f 161/161/76 211/211/104 210/210/103
f 211/211/104 161/161/76 162/162/77
f 162/162/77 212/212/105 211/211/104
f 212/212/105 162/162/77 163/163/78
f 163/163/78 213/213/106 212/212/105
f 213/213/106 163/163/78 164/164/79
f 164/164/79 214/214/107 213/213/106
f 214/214/107 164/164/79 115/115/53
f 115/115/53 165/165/80 214/214/107
f 215/215/108 165/165/80 166/166/81
f 166/166/81 216/216/109 215/215/108
f 216/216/109 166/166/81 167/167/82
f 167/167/82 217/217/110 216/216/109
f 217/217/110 167/167/82 168/168/83
f 168/168/83 218/218/111 217/217/110
f 218/218/111 168/168/83 169/169/84
f 169/169/84 219/219/112 218/218/111
f 219/219/112 169/169/84 170/170/85
f 170/170/85 220/220/113 219/219/112
f 220/220/113 170/170/85 171/171/86
f 171/171/86 221/221/114 220/220/113
f 221/221/114 171/171/86 172/172/6
f 172/172/6 222/222/115 221/221/114
f 222/222/115 172/172/6 173/173/87
f 173/173/87 223/223/115 222/222/115
f 223/223/115 173/173/87 174/174/87
f 174/174/87 224/224/6 223/223/115
f 224/224/6 174/174/87 175/175/6
f 175/175/6 225/225/116 224/224/6
f 225/225/116 175/175/6 176/176/86
f 176/176/86 226/226/117 225/225/116
f 226/226/117 176/176/86 177/177/86
f 177/177/86 227/227/118 226/226/117
f 227/227/118 177/177/86 178/178/87
f 178/178/87 228/228/119 227/227/118
f 228/228/119 178/178/87 179/179/87
f 179/179/87 229/229/119 228/228/119
f 229/229/119 179/179/87 180/180/6
f 180/180/6 230/230/119 229/229/119
f 230/230/119 180/180/6 181/181/88
f 181/181/88 231/231/120 230/230/119
f 231/231/120 181/181/88 182/182/89
f 182/182/89 232/232/120 231/231/120
f 232/232/120 182/182/89 183/183/6
f 183/183/6 233/233/6 232/232/120
f 233/233/6 183/183/6 184/184/6
f 184/184/6 234/234/6 233/233/6
f 234/234/6 184/184/6 185/185/6
f 185/185/6 235/235/6 234/234/6
f 235/235/6 185/185/6 186/186/90
f 186/186/90 236/236/121 235/235/6
f 236/236/121 186/186/90 187/187/91
f 187/187/91 237/237/121 236/236/121
f 237/237/121 187/187/91 188/188/92
f 188/188/92 238/238/122 237/237/121
f 238/238/122 188/188/92 189/189/93
f 189/189/93 239/239/123 238/238/122
f 239/239/123 189/189/93 190/190/94
f 190/190/94 240/240/124 239/239/123
f 240/240/124 190/190/94 191/191/86
f 191/191/86 241/241/125 240/240/124
f 241/241/125 191/191/86 192/192/86
f 192/192/86 242/242/126 241/241/125
f 242/242/126 192/192/86 193/193/95
f 193/193/95 243/243/111 242/242/126
f 243/243/111 193/193/95 194/194/96
f 194/194/96 244/244/127 243/243/111
f 244/244/127 194/194/96 195/195/97
f 195/195/97 245/245/128 244/244/127
f 245/245/128 195/195/97 196/196/87
f 196/196/87 246/246/6 245/245/128
f 246/246/6 196/196/87 197/197/98
f 197/197/98 247/247/6 246/246/6
f 247/247/6 197/197/98 198/198/99
f 198/198/99 248/248/6 247/247/6
f 248/248/6 198/198/99 199/199/6
f 199/199/6 249/249/129 248/248/6
f 249/249/129 199/199/6 200/200/6
f 200/200/6 250/250/129 249/249/129
f 250/250/129 200/200/6 201/201/83
f 201/201/83 251/251/130 250/250/129
f 251/251/130 201/201/83 202/202/100
f 202/202/100 252/252/131 251/251/130
f 252/252/131 202/202/100 203/203/101
f 203/203/101 253/253/6 252/252/131
f 253/253/6 203/203/101 204/204/99
f 204/204/99 254/254/6 253/253/6
f 254/254/6 204/204/99 205/205/6
f 205/205/6 255/255/132 254/254/6
f 255/255/132 205/205/6 206/206/6
f 206/206/6 256/256/133 255/255/132
f 256/256/133 206/206/6 207/207/99
f 207/207/99 257/257/116 256/256/133
f 257/257/116 207/207/99 208/208/99
f 208/208/99 258/258/6 257/257/116
f 258/258/6 208/208/99 209/209/102
f 209/209/102 259/259/134 258/258/6
f 259/259/134 209/209/102 210/210/103
f 210/210/103 260/260/134 259/259/134
f 260/260/134 210/210/103 211/211/104
f 211/211/104 261/261/121 260/260/134
f 261/261/121 211/211/104 212/212/105
f 212/212/105 262/262/135 261/261/121
f 262/262/135 212/212/105 213/213/106
f 213/213/106 263/263/136 262/262/135
f 263/263/136 213/213/106 214/214/107
f 214/214/107 264/264/137 263/263/136
f 264/264/137 214/214/107 165/165/80
f 165/165/80 215/215/108 264/264/137
f 265/265/6 215/215/108 216/216/109
f 216/216/109 266/266/138 265/265/6
f 266/266/138 216/216/109 217/217/110
f 217/217/110 267/267/139 266/266/138
f 267/267/139 217/217/110 218/218/111
f 218/218/111 268/268/140 267/267/139
f 268/268/140 218/218/111 219/219/112
f 219/219/112 269/269/141 268/268/140
f 269/269/141 219/219/112 220/220/113
f 220/220/113 270/270/142 269/269/141
f 270/270/142 220/220/113 221/221/114
f 221/221/114 271/271/143 270/270/142
f 271/271/143 221/221/114 222/222/115
f 222/222/115 272/272/144 271/271/143
f 272/272/144 222/222/115 223/223/115
f 223/223/115 273/273/144 272/272/144
f 273/273/144 223/223/115 224/224/6
f 224/224/6 274/274/6 273/273/144
f 274/274/6 224/224/6 225/225/116
f 225/225/116 275/275/143 274/274/6
f 275/275/143 225/225/116 226/226/117
f 226/226/117 276/276/143 275/275/143
f 276/276/143 226/226/117 227/227/118
f 227/227/118 277/277/144 276/276/143
f 277/277/144 227/227/118 228/228/119
f 228/228/119 278/278/144 277/277/144
f 278/278/144 228/228/119 229/229/119
f 229/229/119 279/279/144 278/278/144
f 279/279/144 229/229/119 230/230/119
f 230/230/119 280/280/144 279/279/144
f 280/280/144 230/230/119 231/231/120
f 231/231/120 281/281/6 280/280/144
f 281/281/6 231/231/120 232/232/120
f 232/232/120 282/282/6 281/281/6
f 282/282/6 232/232/120 233/233/6
f 233/233/6 283/283/6 282/282/6
f 283/283/6 233/233/6 234/234/6
f 234/234/6 284/284/6 283/283/6
f 284/284/6 234/234/6 235/235/6
f 235/235/6 285/285/6 284/284/6
f 285/285/6 235/235/6 236/236/121
f 236/236/121 286/286/145 285/285/6
f 286/286/145 236/236/121 237/237/121
f 237/237/121 287/287/145 286/286/145
f 287/287/145 237/237/121 238/238/122
f 238/238/122 288/288/145 287/287/145
f 288/288/145 238/238/122 239/239/123
f 239/239/123 289/289/146 288/288/145
f 289/289/146 239/239/123 240/240/124
f 240/240/124 290/290/147 289/289/146
f 290/290/147 240/240/124 241/241/125
f 241/241/125 291/291/148 290/290/147
f 291/291/148 241/241/125 242/242/126
f 242/242/126 292/292/138 291/291/148
f 292/292/138 242/242/126 243/243/111
f 243/243/111 293/293/6 292/292/138
f 293/293/6 243/243/111 244/244/127
f 244/244/127 294/294/149 293/293/6
f 294/294/149 244/244/127 245/245/128
f 245/245/128 295/295/149 294/294/149
f 295/295/149 245/245/128 246/246/6
f 246/246/6 296/296/6 295/295/149
f 296/296/6 246/246/6 247/247/6
f 247/247/6 297/297/6 296/296/6
f 297/297/6 247/247/6 248/248/6
f 248/248/6 298/298/6 297/297/6
f 298/298/6 248/248/6 249/249/129
f 249/249/129 299/299/143 298/298/6
f 299/299/143 249/249/129 250/250/129
f 250/250/129 300/300/143 299/299/143
f 300/300/143 250/250/129 251/251/130
f 251/251/130 301/301/6 300/300/143
f 301/301/6 251/251/130 252/252/131
f 252/252/131 302/302/6 301/301/6
f 302/302/6 252/252/131 253/253/6
f 253/253/6 303/303/6 302/302/6
f 303/303/6 253/253/6 254/254/6
f 254/254/6 304/304/6 303/303/6
f 304/304/6 254/254/6 255/255/132
f 255/255/132 305/305/144 304/304/6
f 305/305/144 255/255/132 256/256/133
f 256/256/133 306/306/150 305/305/144
f 306/306/150 256/256/133 257/257/116
f 257/257/116 307/307/143 306/306/150
f 307/307/143 257/257/116 258/258/6
f 258/258/6 308/308/6 307/307/143
f 308/308/6 258/258/6 259/259/134
f 259/259/134 309/309/6 308/308/6
f 309/309/6 259/259/134 260/260/134
f 260/260/134 310/310/6 309/309/6
f 310/310/6 260/260/134 261/261/121
f 261/261/121 311/311/145 310/310/6
f 311/311/145 261/261/121 262/262/135
f 262/262/135 312/312/139 311/311/145
f 312/312/139 262/262/135 263/263/136
f 263/263/136 313/313/151 312/312/139
f 313/313/151 263/263/136 264/264/137
f 264/264/137 314/314/152 313/313/151
f 314/314/152 264/264/137 215/215/108
f 215/215/108 265/265/6 314/314/152
f 315/315/153 316/316/153 317/317/154
f 317/317/154 318/318/154 315/315/153
f 318/318/154 317/317/154 319/319/155
f 319/319/155 320/320/155 318/318/154
f 320/320/155 319/319/155 321/321/156
f 321/321/156 322/322/156 320/320/155
f 322/322/156 321/321/156 323/323/157
f 323/323/157 324/324/157 322/322/156
f 324/324/157 323/323/157 325/325/158
f 325/325/158 326/326/158 324/324/157
f 326/326/158 325/325/158 327/327/159
f 327/327/159 328/328/159 326/326/158
f 328/328/159 327/327/159 329/329/160
f 329/329/160 330/330/160 328/328/159
f 330/330/160 329/329/160 331/331/161
f 331/331/161 332/332/161 330/330/160
f 332/332/161 331/331/161 333/333/162
f 333/333/162 334/334/162 332/332/161
f 334/334/162 333/333/162 335/335/163
f 335/335/163 336/336/163 334/334/162
f 336/336/163 335/335/163 337/337/164
f 337/337/164 338/338/164 336/336/163
f 338/338/164 337/337/164 339/339/165
f 339/339/165 340/340/165 338/338/164
f 340/340/165 339/339/165 341/341/166
f 341/341/166 342/342/166 340/340/165
f 342/342/166 341/341/166 343/343/167
f 343/343/167 344/344/167 342/342/166
f 344/344/167 343/343/167 345/345/168
f 345/345/168 346/346/168 344/344/167
f 346/346/168 345/345/168 347/347/169
f 347/347/169 348/348/169 346/346/168
f 348/348/169 347/347/169 349/349/170
f 349/349/170 350/350/170 348/348/169
f 350/350/170 349/349/170 351/351/171
f 351/351/171 352/352/171 350/350/170
f 352/352/171 351/351/171 353/353/172
f 353/353/172 354/354/172 352/352/171
f 354/354/172 353/353/172 355/355/173
f 355/355/173 356/356/173 354/354/172
f 356/356/173 355/355/173 357/357/174
f 357/357/174 358/358/174 356/356/173
f 358/358/174 357/357/174 359/359/175
f 359/359/175 360/360/175 358/358/174
f 360/360/175 359/359/175 361/361/176
f 361/361/176 362/362/176 360/360/175
f 362/362/176 361/361/176 363/363/2
f 363/363/2 364/364/2 362/362/176
f 364/364/2 363/363/2 365/365/177
f 365/365/177 366/366/177 364/364/2
f 366/366/177 365/365/177 367/367/178
f 367/367/178 368/368/178 366/366/177
f 368/368/178 367/367/178 369/369/179
f 369/369/179 370/370/179 368/368/178
f 370/370/179 369/369/179 371/371/180
f 371/371/180 372/372/180 370/370/179
f 372/372/180 371/371/180 373/373/181
f 373/373/181 374/374/181 372/372/180
f 374/374/181 373/373/181 375/375/182
f 375/375/182 376/376/182 374/374/181
f 376/376/182 375/375/182 377/377/183
f 377/377/183 378/378/183 376/376/182
f 378/378/183 377/377/183 379/379/184
f 379/379/184 380/380/184 378/378/183
f 380/380/184 379/379/184 381/381/185
f 381/381/185 382/382/185 380/380/184
f 382/382/185 381/381/185 383/383/186
f 383/383/186 384/384/186 382/382/185
f 384/384/186 383/383/186 385/385/187
f 385/385/187 386/386/187 384/384/186
f 386/386/187 385/385/187 387/387/188
f 387/387/188 388/388/188 386/386/187
f 388/388/188 387/387/188 389/389/189
f 389/389/189 390/390/189 388/388/188
f 390/390/189 389/389/189 391/391/190
f 391/391/190 392/392/190 390/390/189
f 392/392/190 391/391/190 393/393/191
f 393/393/191 394/394/191 392/392/190
f 394/394/191 393/393/191 395/395/192
f 395/395/192 396/396/192 394/394/191
f 396/396/192 395/395/192 397/397/193
f 397/397/193 398/398/193 396/396/192
f 398/398/193 397/397/193 399/399/194
f 399/399/194 400/400/194 398/398/193
f 400/400/194 399/399/194 401/401/195
f 401/401/195 402/402/195 400/400/194
f 402/402/195 401/401/195 403/403/196
f 403/403/196 404/404/196 402/402/195
f 404/404/196 403/403/196 405/405/197
f 405/405/197 406/406/197 404/404/196
f 406/406/197 405/405/197 407/407/198
f 407/407/198 408/408/198 406/406/197
f 408/408/198 407/407/198 409/409/199
f 409/409/199 410/410/199 408/408/198
f 410/410/199 409/409/199 411/411/200
f 411/411/200 412/412/200 410/410/199
f 412/412/200 411/411/200 413/413/201
f 413/413/201 414/414/201 412/412/200
f 414/414/201 413/413/201 415/415/153
f 415/415/153 416/416/153 414/414/201
f 417/417/202 418/418/203 419/419/204
f 419/419/204 420/420/205 417/417/202
f 420/420/205 419/419/204 421/421/206
f 421/421/206 422/422/207 420/420/205
f 422/422/207 421/421/206 423/423/208
f 423/423/208 424/424/209 422/422/207
f 424/424/209 423/423/208 425/425/210
f 425/425/210 426/426/211 424/424/209
f 426/426/211 425/425/210 427/427/5
f 427/427/5 428/428/5 426/426/211
f 428/428/5 427/427/5 429/429/5
f 429/429/5 430/430/212 428/428/5
f 430/430/212 429/429/5 431/431/213
f 431/431/213 432/432/214 430/430/212
f 432/432/214 431/431/213 433/433/215
f 433/433/215 434/434/216 432/432/214
f 434/434/216 433/433/215 435/435/217
f 435/435/217 436/436/218 434/434/216
f 436/436/218 435/435/217 437/437/5
f 437/437/5 438/438/219 436/436/218
f 438/438/219 437/437/5 439/439/5
f 439/439/5 440/440/220 438/438/219
f 440/440/220 439/439/5 441/441/217
f 441/441/217 442/442/218 440/440/220
f 442/442/218 441/441/217 443/443/217
f 443/443/217 444/444/221 442/442/218
f 444/444/221 443/443/217 445/445/213
f 445/445/213 446/446/222 444/444/221
f 446/446/222 445/445/213 447/447/213
f 447/447/213 448/448/222 446/446/222
f 448/448/222 447/447/213 449/449/5
f 449/449/5 450/450/223 448/448/222
f 450/450/223 449/449/5 451/451/5
f 451/451/5 452/452/224 450/450/223
f 452/452/224 451/451/5 453/453/217
f 453/453/217 454/454/225 452/452/224
f 454/454/225 453/453/217 455/455/226
f 455/455/226 456/456/227 454/454/225
f 456/456/227 455/455/226 457/457/228
f 457/457/228 458/458/229 456/456/227
f 458/458/229 457/457/228 459/459/230
f 459/459/230 460/460/231 458/458/229
f 460/460/231 459/459/230 461/461/206
f 461/461/206 462/462/232 460/460/231
f 462/462/232 461/461/206 463/463/233
f 463/463/233 464/464/234 462/462/232
f 464/464/234 463/463/233 465/465/235
f 465/465/235 466/466/236 464/464/234
f 466/466/236 465/465/235 467/467/237
f 467/467/237 468/468/238 466/466/236
f 468/468/238 467/467/237 469/469/204
f 469/469/204 470/470/239 468/468/238
f 470/470/239 469/469/204 471/471/240
f 471/471/240 472/472/241 470/470/239
f 472/472/241 471/471/240 473/473/5
f 473/473/5 474/474/242 472/472/241
f 474/474/242 473/473/5 475/475/210
f 475/475/210 476/476/243 474/474/242
f 476/476/243 475/475/210 477/477/230
f 477/477/230 478/478/244 476/476/243
f 478/478/244 477/477/230 479/479/213
f 479/479/213 480/480/222 478/478/244
f 480/480/222 479/479/213 481/481/5
f 481/481/5 482/482/216 480/480/222
f 482/482/216 481/481/5 483/483/5
f 483/483/5 484/484/216 482/482/216
f 484/484/216 483/483/5 485/485/5
f 485/485/5 486/486/5 484/484/216
f 486/486/5 485/485/5 487/487/5
f 487/487/5 488/488/5 486/486/5
f 488/488/5 487/487/5 489/489/5
f 489/489/5 490/490/224 488/488/5
f 490/490/224 489/489/5 491/491/5
f 491/491/5 492/492/245 490/490/224
f 492/492/245 491/491/5 493/493/5
f 493/493/5 494/494/5 492/492/245
f 494/494/5 493/493/5 495/495/217
f 495/495/217 496/496/246 494/494/5
f 496/496/246 495/495/217 497/497/217
f 497/497/217 498/498/247 496/496/246
f 498/498/247 497/497/217 499/499/5
f 499/499/5 500/500/245 498/498/247
f 500/500/245 499/499/5 501/501/5
f 501/501/5 502/502/224 500/500/245
f 502/502/224 501/501/5 503/503/5
f 503/503/5 504/504/224 502/502/224
f 504/504/224 503/503/5 505/505/5
f 505/505/5 506/506/245 504/504/224
f 506/506/245 505/505/5 507/507/5
f 507/507/5 508/508/248 506/506/245
f 508/508/248 507/507/5 509/509/213
f 509/509/213 510/510/249 508/508/248
f 510/510/249 509/509/213 511/511/250
f 511/511/250 512/512/251 510/510/249
f 512/512/251 511/511/250 513/513/252
f 513/513/252 514/514/253 512/512/251
f 514/514/253 513/513/252 515/515/254
f 515/515/254 516/516/255 514/514/253
f 516/516/255 515/515/254 418/418/203
f 418/418/203 417/417/202 516/516/255
f 517/517/256 417/417/202 420/420/205
f 420/420/205 518/518/257 517/517/256
f 518/518/257 420/420/205 422/422/207
f 422/422/207 519/519/258 518/518/257
f 519/519/258 422/422/207 424/424/209
f 424/424/209 520/520/259 519/519/258
f 520/520/259 424/424/209 426/426/211
f 426/426/211 521/521/260 520/520/259
f 521/521/260 426/426/211 428/428/5
f 428/428/5 522/522/261 521/521/260
f 522/522/261 428/428/5 430/430/212
f 430/430/212 523/523/262 522/522/261
f 523/523/262 430/430/212 432/432/214
f 432/432/214 524/524/263 523/523/262
f 524/524/263 432/432/214 434/434/216
f 434/434/216 525/525/264 524/524/263
f 525/525/264 434/434/216 436/436/218
f 436/436/218 526/526/265 525/525/264
f 526/526/265 436/436/218 438/438/219
f 438/438/219 527/527/266 526/526/265
f 527/527/266 438/438/219 440/440/220
f 440/440/220 528/528/267 527/527/266
f 528/528/267 440/440/220 442/442/218
f 442/442/218 529/529/268 528/528/267
f 529/529/268 442/442/218 444/444/221
f 444/444/221 530/530/269 529/529/268
f 530/530/269 444/444/221 446/446/222
f 446/446/222 531/531/270 530/530/269
f 531/531/270 446/446/222 448/448/222
f 448/448/222 532/532/5 531/531/270
f 532/532/5 448/448/222 450/450/223
f 450/450/223 533/533/271 532/532/5
f 533/533/271 450/450/223 452/452/224
f 452/452/224 534/534/272 533/533/271
f 534/534/272 452/452/224 454/454/225
f 454/454/225 535/535/263 534/534/272
f 535/535/263 454/454/225 456/456/227
f 456/456/227 536/536/273 535/535/263
f 536/536/273 456/456/227 458/458/229
f 458/458/229 537/537/274 536/536/273
f 537/537/274 458/458/229 460/460/231
f 460/460/231 538/538/275 537/537/274
f 538/538/275 460/460/231 462/462/232
f 462/462/232 539/539/276 538/538/275
f 539/539/276 462/462/232 464/464/234
f 464/464/234 540/540/277 539/539/276
f 540/540/277 464/464/234 466/466/236
f 466/466/236 541/541/278 540/540/277
f 541/541/278 466/466/236 468/468/238
f 468/468/238 542/542/279 541/541/278
f 542/542/279 468/468/238 470/470/239
f 470/470/239 543/543/258 542/542/279
f 543/543/258 470/470/239 472/472/241
f 472/472/241 544/544/280 543/543/258
f 544/544/280 472/472/241 474/474/242
f 474/474/242 545/545/281 544/544/280
f 545/545/281 474/474/242 476/476/243
f 476/476/243 546/546/282 545/545/281
f 546/546/282 476/476/243 478/478/244
f 478/478/244 547/547/283 546/546/282
f 547/547/283 478/478/244 480/480/222
f 480/480/222 548/548/274 547/547/283
f 548/548/274 480/480/222 482/482/216
f 482/482/216 549/549/263 548/548/274
f 549/549/263 482/482/216 484/484/216
f 484/484/216 550/550/263 549/549/263
f 550/550/263 484/484/216 486/486/5
f 486/486/5 551/551/5 550/550/263
f 551/551/5 486/486/5 488/488/5
f 488/488/5 552/552/5 551/551/5
f 552/552/5 488/488/5 490/490/224
f 490/490/224 553/553/272 552/552/5
f 553/553/272 490/490/224 492/492/245
f 492/492/245 554/554/272 553/553/272
f 554/554/272 492/492/245 494/494/5
f 494/494/5 555/555/268 554/554/272
f 555/555/268 494/494/5 496/496/246
f 496/496/246 556/556/267 555/555/268
f 556/556/267 496/496/246 498/498/247
f 498/498/247 557/557/263 556/556/267
f 557/557/263 498/498/247 500/500/245
f 500/500/245 558/558/272 557/557/263
f 558/558/272 500/500/245 502/502/224
f 502/502/224 559/559/272 558/558/272
f 559/559/272 502/502/224 504/504/224
f 504/504/224 560/560/272 559/559/272
f 560/560/272 504/504/224 506/506/245
f 506/506/245 561/561/272 560/560/272
f 561/561/272 506/506/245 508/508/248
f 508/508/248 562/562/282 561/561/272
f 562/562/282 508/508/248 510/510/249
f 510/510/249 563/563/284 562/562/282
f 563/563/284 510/510/249 512/512/251
f 512/512/251 564/564/273 563/563/284
f 564/564/273 512/512/251 514/514/253
f 514/514/253 565/565/285 564/564/273
f 565/565/285 514/514/253 516/516/255
f 516/516/255 566/566/286 565/565/285
f 566/566/286 516/516/255 417/417/202
f 417/417/202 517/517/256 566/566/286
f 567/567/287 517/517/256 518/518/257
f 518/518/257 568/568/288 567/567/287
f 568/568/288 518/518/257 519/519/258
f 519/519/258 569/569/289 568/568/288
f 569/569/289 519/519/258 520/520/259
f 520/520/259 570/570/290 569/569/289
f 570/570/290 520/520/259 521/521/260
f 521/521/260 571/571/291 570/570/290
f 571/571/291 521/521/260 522/522/261
f 522/522/261 572/572/292 571/571/291
f 572/572/292 522/522/261 523/523/262
f 523/523/262 573/573/293 572/572/292
f 573/573/293 523/523/262 524/524/263
f 524/524/263 574/574/294 573/573/293
f 574/574/294 524/524/263 525/525/264
f 525/525/264 575/575/295 574/574/294
f 575/575/295 525/525/264 526/526/265
f 526/526/265 576/576/296 575/575/295
f 576/576/296 526/526/265 527/527/266
f 527/527/266 577/577/293 576/576/296
f 577/577/293 527/527/266 528/528/267
f 528/528/267 578/578/297 577/577/293
f 578/578/297 528/528/267 529/529/268
f 529/529/268 579/579/297 578/578/297
f 579/579/297 529/529/268 530/530/269
f 530/530/269 580/580/293 579/579/297
f 580/580/293 530/530/269 531/531/270
f 531/531/270 581/581/298 580/580/293
f 581/581/298 531/531/270 532/532/5
f 532/532/5 582/582/299 581/581/298
f 582/582/299 532/532/5 533/533/271
f 533/533/271 583/583/5 582/582/299
f 583/583/5 533/533/271 534/534/272
f 534/534/272 584/584/5 583/583/5
f 584/584/5 534/534/272 535/535/263
f 535/535/263 585/585/5 584/584/5
f 585/585/5 535/535/263 536/536/273
f 536/536/273 586/586/300 585/585/5
f 586/586/300 536/536/273 537/537/274
f 537/537/274 587/587/301 586/586/300
f 587/587/301 537/537/274 538/538/275
f 538/538/275 588/588/302 587/587/301
f 588/588/302 538/538/275 539/539/276
f 539/539/276 589/589/303 588/588/302
f 589/589/303 539/539/276 540/540/277
f 540/540/277 590/590/304 589/589/303
f 590/590/304 540/540/277 541/541/278
f 541/541/278 591/591/305 590/590/304
f 591/591/305 541/541/278 542/542/279
f 542/542/279 592/592/306 591/591/305
f 592/592/306 542/542/279 543/543/258
f 543/543/258 593/593/307 592/592/306
f 593/593/307 543/543/258 544/544/280
f 544/544/280 594/594/308 593/593/307
f 594/594/308 544/544/280 545/545/281
f 545/545/281 595/595/309 594/594/308
f 595/595/309 545/545/281 546/546/282
f 546/546/282 596/596/310 595/595/309
f 596/596/310 546/546/282 547/547/283
f 547/547/283 597/597/311 596/596/310
f 597/597/311 547/547/283 548/548/274
f 548/548/274 598/598/312 597/597/311
f 598/598/312 548/548/274 549/549/263
f 549/549/263 599/599/299 598/598/312
f 599/599/299 549/549/263 550/550/263
f 550/550/263 600/600/313 599/599/299
f 600/600/313 550/550/263 551/551/5
f 551/551/5 601/601/314 600/600/313
f 601/601/314 551/551/5 552/552/5
f 552/552/5 602/602/299 601/601/314
f 602/602/299 552/552/5 553/553/272
f 553/553/272 603/603/299 602/602/299
f 603/603/299 553/553/272 554/554/272
f 554/554/272 604/604/5 603/603/299
f 604/604/5 554/554/272 555/555/268
f 555/555/268 605/605/312 604/604/5
f 605/605/312 555/555/268 556/556/267
f 556/556/267 606/606/315 605/605/312
f 606/606/315 556/556/267 557/557/263
f 557/557/263 607/607/5 606/606/315
f 607/607/5 557/557/263 558/558/272
f 558/558/272 608/608/5 607/607/5
f 608/608/5 558/558/272 559/559/272
f 559/559/272 609/609/5 608/608/5
f 609/609/5 559/559/272 560/560/272
f 560/560/272 610/610/5 609/609/5
f 610/610/5 560/560/272 561/561/272
f 561/561/272 611/611/5 610/610/5
f 611/611/5 561/561/272 562/562/282
f 562/562/282 612/612/316 611/611/5
f 612/612/316 562/562/282 563/563/284
f 563/563/284 613/613/316 612/612/316
f 613/613/316 563/563/284 564/564/273
f 564/564/273 614/614/317 613/613/316
f 614/614/317 564/564/273 565/565/285
f 565/565/285 615/615/318 614/614/317
f 615/615/318 565/565/285 566/566/286
f 566/566/286 616/616/319 615/615/318
f 616/616/319 566/566/286 517/517/256
f 517/517/256 567/567/287 616/616/319
f 617/617/320 567/567/287 568/568/288
f 568/568/288 618/618/321 617/617/320
f 618/618/321 568/568/288 569/569/289
f 569/569/289 619/619/322 618/618/321
f 619/619/322 569/569/289 570/570/290
f 570/570/290 620/620/323 619/619/322
f 620/620/323 570/570/290 571/571/291
f 571/571/291 621/621/324 620/620/323
f 621/621/324 571/571/291 572/572/292
f 572/572/292 622/622/325 621/621/324
f 622/622/325 572/572/292 573/573/293
f 573/573/293 623/623/325 622/622/325
f 623/623/325 573/573/293 574/574/294
f 574/574/294 624/624/5 623/623/325
f 624/624/5 574/574/294 575/575/295
f 575/575/295 625/625/325 624/624/5
f 625/625/325 575/575/295 576/576/296
f 576/576/296 626/626/325 625/625/325
f 626/626/325 576/576/296 577/577/293
f 577/577/293 627/627/5 626/626/325
f 627/627/5 577/577/293 578/578/297
f 578/578/297 628/628/326 627/627/5
f 628/628/326 578/578/297 579/579/297
f 579/579/297 629/629/327 628/628/326
f 629/629/327 579/579/297 580/580/293
f 580/580/293 630/630/328 629/629/327
f 630/630/328 580/580/293 581/581/298
f 581/581/298 631/631/329 630/630/328
f 631/631/329 581/581/298 582/582/299
f 582/582/299 632/632/329 631/631/329
f 632/632/329 582/582/299 583/583/5
f 583/583/5 633/633/5 632/632/329
f 633/633/5 583/583/5 584/584/5
f 584/584/5 634/634/5 633/633/5
f 634/634/5 584/584/5 585/585/5
f 585/585/5 635/635/5 634/634/5
f 635/635/5 585/585/5 586/586/300
f 586/586/300 636/636/330 635/635/5
f 636/636/330 586/586/300 587/587/301
f 587/587/301 637/637/331 636/636/330
f 637/637/331 587/587/301 588/588/302
f 588/588/302 638/638/332 637/637/331
f 638/638/332 588/588/302 589/589/303
f 589/589/303 639/639/333 638/638/332
f 639/639/333 589/589/303 590/590/304
f 590/590/304 640/640/334 639/639/333
f 640/640/334 590/590/304 591/591/305
f 591/591/305 641/641/335 640/640/334
f 641/641/335 591/591/305 592/592/306
f 592/592/306 642/642/336 641/641/335
f 642/642/336 592/592/306 593/593/307
f 593/593/307 643/643/320 642/642/336
f 643/643/320 593/593/307 594/594/308
f 594/594/308 644/644/337 643/643/320
f 644/644/337 594/594/308 595/595/309
f 595/595/309 645/645/338 644/644/337
f 645/645/338 595/595/309 596/596/310
f 596/596/310 646/646/332 645/645/338
f 646/646/332 596/596/310 597/597/311
f 597/597/311 647/647/323 646/646/332
f 647/647/323 597/597/311 598/598/312
f 598/598/312 648/648/339 647/647/323
f 648/648/339 598/598/312 599/599/299
f 599/599/299 649/649/339 648/648/339
f 649/649/339 599/599/299 600/600/313
f 600/600/313 650/650/340 649/649/339
f 650/650/340 600/600/313 601/601/314
f 601/601/314 651/651/341 650/650/340
f 651/651/341 601/601/314 602/602/299
f 602/602/299 652/652/342 651/651/341
f 652/652/342 602/602/299 603/603/299
f 603/603/299 653/653/342 652/652/342
f 653/653/342 603/603/299 604/604/5
f 604/604/5 654/654/325 653/653/342
f 654/654/325 604/604/5 605/605/312
f 605/605/312 655/655/329 654/654/325
f 655/655/329 605/605/312 606/606/315
f 606/606/315 656/656/342 655/655/329
f 656/656/342 606/606/315 607/607/5
f 607/607/5 657/657/328 656/656/342
f 657/657/328 607/607/5 608/608/5
f 608/608/5 658/658/328 657/657/328
f 658/658/328 608/608/5 609/609/5
f 609/609/5 659/659/5 658/658/328
f 659/659/5 609/609/5 610/610/5
f 610/610/5 660/660/5 659/659/5
f 660/660/5 610/610/5 611/611/5
f 611/611/5 661/661/343 660/660/5
f 661/661/343 611/611/5 612/612/316
f 612/612/316 662/662/344 661/661/343
f 662/662/344 612/612/316 613/613/316
f 613/613/316 663/663/345 662/662/344
f 663/663/345 613/613/316 614/614/317
f 614/614/317 664/664/346 663/663/345
f 664/664/346 614/614/317 615/615/318
f 615/615/318 665/665/347 664/664/346
f 665/665/347 615/615/318 616/616/319
f 616/616/319 666/666/348 665/665/347
f 666/666/348 616/616/319 567/567/287
f 567/567/287 617/617/320 666/666/348
f 667/667/349 617/617/320 618/618/321
f 618/618/321 668/668/350 667/667/349
f 668/668/350 618/618/321 619/619/322
f 619/619/322 669/669/351 668/668/350
f 669/669/351 619/619/322 620/620/323
f 620/620/323 670/670/352 669/669/351
f 670/670/352 620/620/323 621/621/324
f 621/621/324 671/671/353 670/670/352
f 671/671/353 621/621/324 622/622/325
f 622/622/325 672/672/354 671/671/353
f 672/672/354 622/622/325 623/623/325
f 623/623/325 673/673/354 672/672/354
f 673/673/354 623/623/325 624/624/5
f 624/624/5 674/674/5 673/673/354
f 674/674/5 624/624/5 625/625/325
f 625/625/325 675/675/355 674/674/5
f 675/675/355 625/625/325 626/626/325
f 626/626/325 676/676/356 675/675/355
f 676/676/356 626/626/325 627/627/5
f 627/627/5 677/677/5 676/676/356
f 677/677/5 627/627/5 628/628/326
f 628/628/326 678/678/5 677/677/5
f 678/678/5 628/628/326 629/629/327
f 629/629/327 679/679/357 678/678/5
f 679/679/357 629/629/327 630/630/328
f 630/630/328 680/680/357 679/679/357
f 680/680/357 630/630/328 631/631/329
f 631/631/329 681/681/354 680/680/357
f 681/681/354 631/631/329 632/632/329
f 632/632/329 682/682/355 681/681/354
f 682/682/355 632/632/329 633/633/5
f 633/633/5 683/683/358 682/682/355
f 683/683/358 633/633/5 634/634/5
f 634/634/5 684/684/5 683/683/358
f 684/684/5 634/634/5 635/635/5
f 635/635/5 685/685/5 684/684/5
f 685/685/5 635/635/5 636/636/330
f 636/636/330 686/686/359 685/685/5
f 686/686/359 636/636/330 637/637/331
f 637/637/331 687/687/360 686/686/359
f 687/687/360 637/637/331 638/638/332
f 638/638/332 688/688/361 687/687/360
f 688/688/361 638/638/332 639/639/333
f 639/639/333 689/689/362 688/688/361
f 689/689/362 639/639/333 640/640/334
f 640/640/334 690/690/363 689/689/362
f 690/690/363 640/640/334 641/641/335
f 641/641/335 691/691/364 690/690/363
f 691/691/364 641/641/335 642/642/336
f 642/642/336 692/692/364 691/691/364
f 692/692/364 642/642/336 643/643/320
f 643/643/320 693/693/349 692/692/364
f 693/693/349 643/643/320 644/644/337
f 644/644/337 694/694/365 693/693/349
f 694/694/365 644/644/337 645/645/338
f 645/645/338 695/695/361 694/694/365
f 695/695/361 645/645/338 646/646/332
f 646/646/332 696/696/361 695/695/361
f 696/696/361 646/646/332 647/647/323
f 647/647/323 697/697/5 696/696/361
f 697/697/5 647/647/323 648/648/339
f 648/648/339 698/698/366 697/697/5
f 698/698/366 648/648/339 649/649/339
f 649/649/339 699/699/367 698/698/366
f 699/699/367 649/649/339 650/650/340
f 650/650/340 700/700/367 699/699/367
f 700/700/367 650/650/340 651/651/341
f 651/651/341 701/701/366 700/700/367
f 701/701/366 651/651/341 652/652/342
f 652/652/342 702/702/5 701/701/366
f 702/702/5 652/652/342 653/653/342
f 653/653/342 703/703/5 702/702/5
f 703/703/5 653/653/342 654/654/325
f 654/654/325 704/704/368 703/703/5
f 704/704/368 654/654/325 655/655/329
f 655/655/329 705/705/368 704/704/368
f 705/705/368 655/655/329 656/656/342
f 656/656/342 706/706/5 705/705/368
f 706/706/5 656/656/342 657/657/328
f 657/657/328 707/707/367 706/706/5
f 707/707/367 657/657/328 658/658/328
f 658/658/328 708/708/366 707/707/367
f 708/708/366 658/658/328 659/659/5
f 659/659/5 709/709/5 708/708/366
f 709/709/5 659/659/5 660/660/5
f 660/660/5 710/710/5 709/709/5
f 710/710/5 660/660/5 661/661/343
f 661/661/343 711/711/369 710/710/5
f 711/711/369 661/661/343 662/662/344
f 662/662/344 712/712/5 711/711/369
f 712/712/5 662/662/344 663/663/345
f 663/663/345 713/713/353 712/712/5
f 713/713/353 663/663/345 664/664/346
f 664/664/346 714/714/370 713/713/353
f 714/714/370 664/664/346 665/665/347
f 665/665/347 715/715/371 714/714/370
f 715/715/371 665/665/347 666/666/348
f 666/666/348 716/716/5 715/715/371
f 716/716/5 666/666/348 617/617/320
f 617/617/320 667/667/349 716/716/5
f 17/17/8 16/16/8 717/717/372
f 19/19/6 17/17/8 717/717/372
f 21/21/6 19/19/6 717/717/372
f 23/23/10 21/21/6 717/717/372
f 25/25/10 23/23/10 717/717/372
f 27/27/6 25/25/10 717/717/372
f 29/29/6 27/27/6 717/717/372
f 31/31/6 29/29/6 717/717/372
f 33/33/6 31/31/6 717/717/372
f 35/35/6 33/33/6 717/717/372
f 37/37/6 35/35/6 717/717/372
f 39/39/6 37/37/6 717/717/372
f 41/41/6 39/39/6 717/717/372
f 43/43/6 41/41/6 717/717/372
f 45/45/14 43/43/6 717/717/372
f 47/47/15 45/45/14 717/717/372
f 49/49/6 47/47/15 717/717/372
f 51/51/6 49/49/6 717/717/372
f 53/53/6 51/51/6 717/717/372
f 55/55/10 53/53/6 717/717/372
f 57/57/10 55/55/10 717/717/372
f 59/59/18 57/57/10 717/717/372
f 61/61/20 59/59/18 717/717/372
f 63/63/22 61/61/20 717/717/372
f 65/65/24 63/63/22 717/717/372
f 67/67/26 65/65/24 717/717/372
f 69/69/28 67/67/26 717/717/372
f 71/71/30 69/69/28 717/717/372
f 73/73/10 71/71/30 717/717/372
f 75/75/32 73/73/10 717/717/372
f 77/77/32 75/75/32 717/717/372
f 79/79/6 77/77/32 717/717/372
f 81/81/6 79/79/6 717/717/372
f 83/83/6 81/81/6 717/717/372
f 85/85/6 83/83/6 717/717/372
f 87/87/6 85/85/6 717/717/372
f 89/89/6 87/87/6 717/717/372
f 91/91/6 89/89/6 717/717/372
f 93/93/6 91/91/6 717/717/372
f 95/95/38 93/93/6 717/717/372
f 97/97/40 95/95/38 717/717/372
f 99/99/42 97/97/40 717/717/372
f 101/101/44 99/99/42 717/717/372
f 103/103/42 101/101/44 717/717/372
f 105/105/46 103/103/42 717/717/372
f 107/107/48 105/105/46 717/717/372
f 109/109/49 107/107/48 717/717/372
f 111/111/6 109/109/49 717/717/372
f 113/113/6 111/111/6 717/717/372
f 16/16/8 113/113/6 717/717/372
f 667/667/349 668/668/350 718/718/373
f 668/668/350 669/669/351 718/718/373
f 669/669/351 670/670/352 718/718/373
f 670/670/352 671/671/353 718/718/373
f 671/671/353 672/672/354 718/718/373
f 672/672/354 673/673/354 718/718/373
f 673/673/354 674/674/5 718/718/373
f 674/674/5 675/675/355 718/718/373
f 675/675/355 676/676/356 718/718/373
f 676/676/356 677/677/5 718/718/373
f 677/677/5 678/678/5 718/718/373
f 678/678/5 679/679/357 718/718/373
f 679/679/357 680/680/357 718/718/373
f 680/680/357 681/681/354 718/718/373
f 681/681/354 682/682/355 718/718/373
f 682/682/355 683/683/358 718/718/373
f 683/683/358 684/684/5 718/718/373
f 684/684/5 685/685/5 718/718/373
f 685/685/5 686/686/359 718/718/373
f 686/686/359 687/687/360 718/718/373
f 687/687/360 688/688/361 718/718/373
f 688/688/361 689/689/362 718/718/373
f 689/689/362 690/690/363 718/718/373
f 690/690/363 691/691/364 718/718/373
f 691/691/364 692/692/364 718/718/373
f 692/692/364 693/693/349 718/718/373
f 693/693/349 694/694/365 718/718/373
f 694/694/365 695/695/361 718/718/373
f 695/695/361 696/696/361 718/718/373
f 696/696/361 697/697/5 718/718/373
f 697/697/5 698/698/366 718/718/373
f 698/698/366 699/699/367 718/718/373
f 699/699/367 700/700/367 718/718/373
f 700/700/367 701/701/366 718/718/373
f 701/701/366 702/702/5 718/718/373
f 702/702/5 703/703/5 718/718/373
f 703/703/5 704/704/368 718/718/373
f 704/704/368 705/705/368 718/718/373
f 705/705/368 706/706/5 718/718/373
f 706/706/5 707/707/367 718/718/373
f 707/707/367 708/708/366 718/718/373
f 708/708/366 709/709/5 718/718/373
f 709/709/5 710/710/5 718/718/373
f 710/710/5 711/711/369 718/718/373
f 711/711/369 712/712/5 718/718/373
f 712/712/5 713/713/353 718/718/373
f 713/713/353 714/714/370 718/718/373
f 714/714/370 715/715/371 718/718/373
f 715/715/371 716/716/5 718/718/373
f 716/716/5 667/667/349 718/718/373
# Vertices: 718, normals: 373, texture coordinates: 718, faces: 1212

